<mxfile host="app.diagrams.net" modified="2023-05-03T20:18:56.303Z" agent="Mozilla/5.0 (Windows NT 10.0; Win64; x64) AppleWebKit/537.36 (KHTML, like Gecko) Chrome/112.0.0.0 Safari/537.36" etag="egyKQXjegmPTsy4EXwP4" version="21.2.7" type="github">
  <diagram name="Page-1" id="K0wyTHRHal-JTifpf6G2">
    <mxGraphModel dx="1434" dy="764" grid="1" gridSize="10" guides="1" tooltips="1" connect="1" arrows="1" fold="1" page="1" pageScale="1" pageWidth="850" pageHeight="1100" math="0" shadow="0">
      <root>
        <mxCell id="0" />
        <mxCell id="1" parent="0" />
        <mxCell id="Mh-F11BUkrrVfM7CmYZf-1" value="" style="shape=image;verticalLabelPosition=bottom;labelBackgroundColor=default;verticalAlign=top;aspect=fixed;imageAspect=0;image=data:image/png,iVBORw0KGgoAAAANSUhEUgAAAs4AAAMbCAYAAABdaBMEAAAAAXNSR0IArs4c6QAAAARnQU1BAACxjwv8YQUAAAAJcEhZcwAADsMAAA7DAcdvqGQAAP+lSURBVHhe7N0HYBTFHgbw7+7Se0IIKRACAZLQe+9NBRQRFUFRUcSCYgMLIiiKCgg2BAVEREBAeu+99xBaICEkQCAJ6fVyZd7u3QVSLpcLBIXn93vvJNtnZ2Zn/7s3u6cQEhARERERkUVK079ERERERGQBA2ciIiIiIiswcCYiIiIisgIDZyIiIiIiKzBwJiIiIiKyAgNnIiIiIiIrMHAmIiIiIrICA2ciIiIiIiswcCYiIiIisgIDZyIiIiIiKzBwJiIiIiKywt0FzrpofN/VBXaVOmDCkTzTSEB/4xc87NUd067oTWOIiIiIiB5sdxc4ixykZ2hR2SkGUz6aiSidabxOg3yNBpqCYSIiIiKiB1wFdNWwRaNX3kKzE5Pw2YokmLvHrI1cjJGPt0BNHw+4V6qOFoN+wpEs08T8w5g84HX8uuoHPNcsAF6Va6PnuO2IP78IIzrXRCXPamg5dB4i842z551biHd61kOgvx+qhnTGq79HIMc4CfkHJqH/ox9jbTLvdBMRERFRxaqYPs7+L+DL172x6rNJ2F8QxRaSfzMLPk/9gO3Ribh+bBLqHhqDMX/GGyfqk3B+z5/46NNDaPfzXuyf0RlxkwahzaA/UfmTjTi2Zhicl43CF2syAfUBfP7M+zjV6TecvHINEXM74fQHQzDphNawKqHOQHJSCnI0hkEiIiIiogpTQQ8H2qPF++PxVOZsjPnlPIxh7G1O7V7GB8+2RZCrEkrvjuhQD7gae8U0VaJwQ98vZuH11jUQ+tgQ9AnMRMgrc/BJjzoIavs8+jbKRuS5K8g58Bf+vtEJQ18KhTIzA4rQgehXLxI7dlw13Om27/wldh78FU/7VtBuERERERGZVFiEqfTqjbGj2+D0lM+w7KYwjTXS39iGCU82R5BfEMIad8DYnbnQ6wvNo7CFvYON8W+lE5wclXBwdDImThp2dJDWodVCc/UqrqduwocdW6BFC+nT8lH8Gh+Eqp4MlImIiIjo3qrAiFOFoCFfYLjfenz546lCd53V2D7+ZUxNG4i1UVcRE3UKU3o6Q2GaWh4qFxe4ePXFzxEXcfGi6XMhAguGBFbkjhARERERlVCx8aZdM7z7xTPIWzQfh0wP80EKoZMS0+AUFIYazoA++RAOXVCj6D1p69i16oSW+duwcHncrcBcl56AJNOb8LTnFuHTD37FoYIHD4mIiIiIKsjdBc4KG9jaSB/b2/ePPR4ahy/7+UFh7wIXB3mMIx4aOgRey15C604d0aLnt0irXh0OtirD/FCoYGNjBzs746B859rG1kYaV7BOlbR+W8M4ld9gTJzcAeHDG6F203Zo1yIMgWED8PtFYxidf34DZs1ajmN8qwYRERERVTCFkJj+vqfykyIRHq2Gf4OGCHA2jbxDusw4nDlzFTkOVRAcFozK9qYJRERERET3yD8WOBMRERERPcj4TB0RERERkRUYOBMRERERWeE/2VVDobiTl+ER0b3EXmNERHS/Yx9nIiIiIiIrsKsGEREREZEVGDgTEREREVmBgTMRERERkRUYOBMRERERWYGBMxERERGRFRg4ExERERFZgYEzEREREZEVGDgTEREREVmBgTMRERERkRUYOBMRERERWYGBMxERERGRFRg4ExERERFZgYEzEREREZEVGDgTEREREVmBgTMRERERkRUYOBMRERERWYGBMxERERGRFRg4ExERERFZgYEzEREREZEVGDgTEREREVmBgTMRERERkRUYOBMRERERWYGBMxERERGRFRg4ExERERFZgYEzEREREZEVGDgTEREREVmBgTMRERERkRUYOBMRERERWYGBMxERERGRFRg4ExERERFZgYEzEREREZEVGDgTEREREVmBgTMRERERkRUYOBMRERERWYGBMxERERGRFRg4ExERERFZgYEzEREREZEVGDgTEREREVmBgfMDSY9Tmw+g/7IE5JjG3BFtKmZM34MvTmtNI4iIiIioNOUOnPW52Th68jJ+2xyJn7dewtLwFFxVC9NUE50aF87GYa40z0+bL2FZRBoS7yA206UmYv7G85hxJA0ZpnGF5WekY9eRGMzeJKVl22Vsjs1DvmmaObmpKdiwNwrT1p/H9O1x2H5NDYvJ0udg545ILIpWS6GqGfosbNsWicWXSpkurT3i8AXMjsgyDVcUgcyMXFxJz4fONObOaJGUko3E3GLldz+6x2WhTknC4s0XsPIKLyKIiIjIvHIEzlqcP3QKgybuw+g9yYjL1iEnMxO7d53EgK/2YczBDMPdT31GIqZO340hq+NxPksPdVYGtm0+in7fhmNTejkCNClQWrH8FKbvjcXsfUlILBIh6hC+/RB6Tz6K6acykKjWITU+HpN/2Y2By27gRonISYeoQycwYOpxzLmQg2ydHolxcfhy2h4M3XQT6eYjLYkSiVGX8f3OBKSamUebcB0zN0dL0xORZm4d6ptYtP4S9iYrTCOoKD2i9hzFM0vikVxqGRS4N2Why0rDyjWHMfiPSMzffQlrL2tKCbyJiIjov87KwFmP6H3H8frqNIT2bYtVbzXD5/3qYlS/RvhxRGeseD4AisvJuKLT4fDWM1ioDsD3b7fGN0+EYeQTjTH93U6Y06syvFWm1ZVJIPHkefx6oxKGNHeCucVsK/njy3c7Y/HLjTD6sboYM7gN/nq2CnIPn8aPZzSmuYzyr0Tjk1WpqP1YGyx8qSE+fLQuPnuxHf4aWBmJO07hu8ii89+itEe7EHfoL9/EoTzTuFukNEYlI0aphPZyEg6rTaMLyY+9iaNqV7QLczKNoeJy0rNxKVlt8ZsCg3tQFpqYC3hhWgT2O9fAd6+FoJWDaQIRERGRGVYFzvrUq/huUyoCujTGJ01c4Ggab6SET3ANfPFMDYQochBxRQ3fOr5oXHgmpS1CGvqjmYt1d1712YmYtjEV9XuGoL2juWVUqNuoGlp5FQ6pFfAODUT3ShqcjMooFIhpsWdvHGIDa+LdZs6wNY2V569Svw6eC9Jgy6EEpJvGFqWAb1hlhGhTsP9S8a/wNTganYFqzaqhmT4V+0pM1+PchWSkVK6MDt5m9kGvQ0Z6Dq6kqpFTSn8LbU4u4rON9z/1+WpcTc6DabAUOiQn5yC5+HWAToubKdmIz9JZvpuq1eBGSi6S88v6ZkCPnKxcXEnJQ2YZPRu0ajXib+YgKbfYlrX5uJqQheu5AkKTjyuJmYi6kYm4jNJWWPFlofTyxadvtMOkrpURYGtd3SQiIqL/LisCZ4HYE1dxCJUxqI1bocDTHDt4OSuQmphlxVfvpdHgyObz2OUdjLebOVh7S9xIoYKjnQJCFAr8tGk4KAVStUMqw6/4ypQOaFPbBeorqYgoJV5TefmgXRUtDkemosiNzPxUHI6zRdOG1dGhqhZHItOK3jXVZeNAVC4CpO0GF47v9Xk4sO0EBk3Yih7f7sfzU3eg0+e78PqaeFwqEvDqcGTDAQxcdQPnjoTjqQm7MPD7negx94ppejG6HGxcvBe9fzyFtUkFma/Bqd0n8NQX2/DYjwcx8Ost6PZ9BNanFA2MhV6NfVuO4YkvduCpH/bgoc924OU1Cbheogz1uHb2At7+dhu6frMPz/+wC12ltL+x7gauFss/bUoCfp67G93G78Kgn/fh0fFb8djs89hmqhiaa5cx5rej+CY8F5rrsRg9+whelz4jNt8s9YHHii4LlbsbQtzKVcOIiIjoP8yKqCEfxy9lAFUroUXRW80lKe3QvZ0/PKPOY+Ta67hc5vfvJeVejsa3J2wxuE8ggsob06gzcTFZSmoVF9iYRulzshGbpURAJQczXT4U8K3kCLucXFwv8fW/icoZHUKckRJ1E2cLBYeaKzdxUu+BloHOaFfHFSkXk4pM16Un4VCiFJiHud++2NDnY++qQ3jvoA7dBnTAji+6S58eWPVcAJThp/D639eRWChY1UvxrTruIj7crsPA17pijzTvmqd8TVML0ediy7Ij+CzSEa++3Awv+BszLv/SRYzZkoMOgztj92fdsOvzLvixozuci8TNAue3HcWEy6549+1u2PN5d6x73g85h8Lx5eHcQneoBdLOncXrf92Aa4eW2DheSvvnPbDx5epwCA/HW+uTkW2aU/7G4JvZ4djqEIQZo3tg57ge2Du6BZ6xvY5P5pzHYSmvbavXwdzRnfFDayfYBdbGn6O7YsuYrlj5pC9K7dhSkWVBREREVE5lh6a6XFxLE3D3cIR7mXMr4B5WF9OeCYDq5EkMmHwQn+1MwGUzfU7N0mbgz9VXoGgdhmdNwZ/1BOKOXcFBVMLD9e1v7Zg+Jx8ZwgaupQT9SnsbOAotsvJK656gRJ0wb/in3sT+hIIwUo/oqBSkVauEpnYKVA3xRlDaTey7NV0g9UIyzjtXQsdqt/dDeyMW0w7r8Uj/Rni5jpMpQFTBv04tfN3PH/pTUVh0rVDkLFGnK9Hl6YZ40k++FFChkmux0E8Kmrctl4Lmiy54d2hTDAksmC5w82oGEjy90T3I3nghYWOPBk0D0alS0W4JOp8g/PBiHXQwdH1RokpobbxSX4mjEYlIKUiOLguLN1+DXZuGGNvKHR6G3VKiUlAQxvWqjNSjl7HDcKtYypv9F7HWpjrGPxmIus7Gbdm4emLQUyHokH0Vi87cwRWVQcWVBREREVF5lR1JCD1ytYCdbcn7teapENS4Hv4Y1R4TWjkgas8JPDlxPyYcyyzjncN6xOw/i/l5/ni/i2exftRl06VcxdQd6QjqUBt93AsFhjohrVkBZSldWBUqpZRiAV3ReLUI26o+aO2WjQOROcbXv+nzcDg6B7WCvQ0BpE2VymjlWWg6tDh8IQ3OtXzQ6FacK3D1fBKiXX3wUK2S9z3daldBa6dsHIsueuvbNrg6htQouH9ejD4fe1YexWfRbvjwlcYY4F94PgUqBbiictJ1/CHlfcHd4JIUqN8oALWLJEmFWlWcINLzkGC6npDv2h64YY8mUhCenpGHpEKfPC8X+GuyECnfLpfyZv/FTHgHecA7p+h8SRon1PDUIyo+G6U8jlmmiikLIiIiovIrO3BWqOBsB+SotVLoVw6OrujevTHmf9AeXzUGNi05jM+OF/7qvyg58J2yPQcde9Uqu0tIcfnpmLfkPE5WqYPPu3rA3jRaprBVwk7aqrqUSE1odNBI++hUeKHibDzQUYosL164aexKkZOMo9ed0Ly2qfuHjRva17LHxcgkGG505qdg/2UFmoV5Fep2oMe1lFzAwxFVzeW6yhH+bkCKFGAWIUX8pV2y6NMSsOBENqrUC0Q3n5Jz2QfXwde93RG1Zh/6fHcMk/cl4YqVd//tbKRE6vXQFATOqbnSvudi5cI96Dtpd5FPv5mXEetgB3c5MJXmuZ4uEH/kJPoXm6/v5MNYcNMGlZxVUrh+hyqkLIiIiIjKr+zAWeWE6pWUyEzMNPOwmBXsXdCzTzOMrKvHtt1XEW32DRIa7N58EQfs3eGfdh2L9l7GQsMnFpuv5UOXk45NBy5j8ck00/yF6LKxZslx/Jbjjy8GBaF2sZuzKlcHeCk1uJlpPvHZmWpk2znA18lSKKdC0zBvOF9NwoFsgZyYZJx28kLLKgXZp0KD0EpwuXYTB7IE8uOScFzniY7F7izLMaj83GJpFyDyNJWq7CIpoPSqis8e90HG3pP4/FjBHdbCbNGgfRMs+bgdxjZzwOW9J/DklGP4+4bZQrBIzh2FwgUvvt4d+7/sWeKzb1wbDA0wpl2hUCC4c2vsNjffF93xe1e3W33Qy69iyoKIiIiovKyI0mzQMsQLDtcTsTWptJCvDEpbhPk5QpGtRnIpq3Dy8Ub3akrEXk5F+K1PGs6n6SDUuTgvDZ+8UqzDgT4P25YfxcRrXhgzpC46uJoJfu1cUKuSQPTVdDPvCtYiIi4TCj8PhJXRE8UpuDKaq9KwLyofEVGpQFAl1C8U/TnV8EYzVSr2XczH+cgUZFT3Qesi7wVWws9DGpGajVhzMbwmG5dTFQj0Kc99UQV8mzTAN53tsXflCfwSY/62usrJFV061sPP77bEiy5JmLY9sdw/1a3ydIIP8nClrNelKI13zhOSc8zkd+nKU7PuviyIiIiIys+KwFmBKo1roI9HBhasjUNMobcV3KZFXGw6bpYWU+nVCI/LgU1l11LelGGLVl0bYeJzTYp9GmFEPUfYePri7YFN8PWjAab5JdI6D6w7inEXXPDekAZ42LOUO8YqN3QOdUbi2WvYm100PNOn38CKszo0a1QFt25YlsbRG+1rCJw4dwV7pAC1frBn0a/+HSuhXRCk6VexMyoP9UIrw7PIOqWguE4lBGYlYeP54iGlwLWTV3FQIV08hJTzzqh0UdK0ZxN8WCsPvy+MwNpir5orws4V9Xxtoc7TSSVWPkoPb7Tz1+HQyQTcetudOVLg3CbEFXkXr2N7RtnhsIOddMWSq4EVs95212VBREREVH7WhRMO3nhzQC0EXz2HYbPOYPH5DFzP0SInJwdnz8Vi8uy9eGFFAq5dicTgSYfx9a7rOJ6oRna+FsmJyfh7xXH8EOuEQd0D4FshAYwG4duO48Pjtnjl+YZ41Esao9Xf+mh1haMwJeq3r42HFNfx1fwL2Hw1FxlqDa7GXMHXf5zD8SrBeKu5oxUZYYu2oZ7IOxeDlUmuaFHLzjS+gB1ah3ggN/ISliS4oX3o7Td7FLCtWgNvNlVi87JjmHI0BVeytMjMyMSBvafwzroMNHo4BL3c7qD3r9IJfZ9ujGedk6R9vIgTudI4fR7+mrMH72y6hpMp+cjJy0PkqYuYc0agdYNKcDEuaT2lK55+pDoqRZ7BiOWxOJQgl68OGWkZOHw8GpPWX8MVQ0CtQK02IXjaNQnf/H4aSy5m4qYUqOfm5OJi1DXMWR2J9TcLykeJqv6ucElKwJroXGRmZeKodIFVdlB/92VhJKDTmeqN4SFSKduEgLbQMBEREVEBhSjyayGW5afexJIdl7EuMhUx6VpolDao4uOB1g2r4dk2vgi2VyP8SAwWnUzCyevGX4uzcXRE7Zq+eKprMPpUtbUiQC1MIGrrfrwQ6YsFrwffvlutScRnXx/FikzTcHFKFwwZ3h7vBN7emjrpOn5dF4210VlIygecXV3QtFEQhnevihArH0bUp8Xh7alncNi7NuYPr4Xaxbp36JIv443vzyEiIBQLh9Uwf3ddl4tDey5i9pEknE3OR56NLQICvNGnU228UNe50IONOhxZuQfvptfGphcC4Gwaa2R+mjbpCj6ceRYX6zXH6se9kB53BdM2x2JnbDZS8hVw9/ZAl/YheLuVBwy/+6FNxjffHkNiz66Y2rRwr2OBpANH8PgBd8x8OwT1bu2nQPLlOPy67Qp2x0r5mCdg6+iA6v5SHWhWE8Oau99Kiz4rFX9vicLys1JdydBCp7JFlcpuaFAnAC92q4qwgq4T+hxsWhWO746nIVFrg9rtmmBuH+8y36pSEWWhiT6Dx2fG4qq5CFlhg4ef7YqJje68NzYRERH9fylX4ExERERE9F9l7p4oEREREREVw8CZiIiIiMgKDJyJiIiIiKzAwJmIiIiIyAoMnImIiIiIrMDAmYiIiIjICgyciYiIiIiswMCZiIiIiMgKDJyJiIiIiKzAwJmIiIiIyAoMnImIiIiIrMDAmYiIiIjICgyciYiIiIiswMD5P0KXEI5vZh7FRZ1pBJUjT3SID9+HL374CyN+3IiVsVrT+PsXy7t0zBvLHvz80ePKno34bGsC7v8jlYgeNOULnPW5OLdvD37afhU5plEVS4vk2AtYvmYnvl+wDb+sPY7tURnIM02Vpx9b8gee++MCskxjyDq69OvYceQqEvSmEQ+Y/HM78NLYjdhVgRXP2jzRXdmHt6eGQ9+gCR5v4gU7zf2fifd/ef97x/KDfiwUoYnFtC9+w8TjatOIu3c/5o865So2bdqNHxdsxYz14dh/LVcKj0ujR/Kl89h6IVO65KX/HsYJdG9ZGTjnI/bYboz6bAG+33AYP2+LRVoFN6r61Cj89OWPeHTyfhxNV8LD0xGK9Fgs+PFn9Bi7A8dy5bkUcHBzg7+XA2wMS1Fx2pgdGPjeBhzWmEY8YEpLv9LeCb6VXeH6jxe8dBI+dQGRwS3wdtdQdO3QEr1q2Zmm0Z0reSxXdN190I8Fqyht4enlAR+nB+HLQx3OLpmFx+bGSGcUa6lxev1f6D1yGZbFauDs4QRlSjRmfj0NfWecNs1DVBjjBLq3rGpt1ad34au9CvR7+0VMaOcJlWl8hcm+hImfL8ZGn4fx9w8v4qvnOuLFXm3x6rP98Nv37+CXHpXk+EWiQr2H+2HSo4FwMCxIxenz85CcnnuPvhG490pLv03NVvjqrXZo+i/ErOlZati7OLHOVaiSx3JF190H/Viwisofzw7vjyGhtqYR9zMBdU42krPypb+soUfivlV4bakWL48fjpnDuuHl3tJ54bknMPe7V/Bx3Qdhn+mfxziB7i3VZxLT36Wy8QnGo62ro5oTkBN1EnPjvPF810C4Kkwz3BUdzi77C5/dbIE5o1qgRvGoXGELn+pV4G8ImPS4tn8rpkW5om0NB1zYsg6/xnlKfzsXugLQI/n4Tnx5EGgT5gm5adVnxmP9uj2Yu/kkNp9OQKaTN2p725uWMa5zZqwnGttdw18rdmP+rkicTndAcJAHnMu8tMjH5RPHMHftQSzdG4kj8VpUrlYZle1Ky5zb22tkE4t5S3dh4d4YXBYeCK3qDLucBGxYtROztpzB8RQ71AzygmuhPMmJv4i/1+7Hn9tPYfvZZOR7+CDY01a6xtbi1PqV+HpTNM5cS0VcXCx2HTiPGOeaaOlrC11yFP7ar0XHnr6I37Ybv64/gR1R2XCr5gd/x6JptTa//tH0J53Gd0uuwaehH7wKyiQ/Ffu37sXsDcexMSIB6Q5eqFXZ4daFXenbMirIk069QxFo7mpQdwOLZq7DHyeuIepGCqLOX8SWKIH6DarAzZCGPFw4eAhz1h7B8n2ROHYtH27+PvB1KNjC7byqk3sGPy/ah1Vn81G9gR88kk/j+xUJqFpbhWPrd+KXTadw6DrgF1QZlWzVuLB/H35eeRSbzqfDMcAP1Qoqoi4Zq+fvQaRPTYQUOgDzzu3DZ7s16FrXyzBsbt/Kyo+ypIfvxPi9OjSXtlFwQtLFh2PSgstwa1QVVQryUJ+OzX9txRGXYNR3y8CGv3bjgk8VZB/YgR/WhuNIXiV0CHIqdCzb47SFsjeuMwdn9h3A7DWHsepQDCJzHFAj0L2U4/OfOhZKo0fapdP4Y+V+LNp9Fofi8uAq1Qs/x0JLaaS6u3kvZm44gS3n02Dv64O8g5uxLLMamvvK98n0iN292VB3Wld3ur29/FjMmRmO3LpBqCa3ibo0KX+347RXMMKcE7D4t11SXkt/uxfalj4Lu/5eh80iGM18pELKu4k9W/dj7oZjWHs0FjEaF9Su6oqCamv2uLCY/1a0oZqrmDdjA/46FY9o6Vi6cO4CNh25Cbf6NRBY2sWwLh4zpmyF5vHB+KSpU9F6qnJAtSBv00BxetwIP4z1mjp4oYWX6a5jWe209ecBdUIUFq3cg3lbTmLtvgis338aGw5cQGKlOmjsrYTueji+lY/t+r7wuLWcBsdWr8FqdRCaVzHdBy2jHAykerJv8x7MWn8UK/dK29onbWv/GexMcUOPEHfjPOU6Nm4rvW6rcWjFGsxP8pbqXsG5VY+kYzvx1V4NutWrJJVNqlTv9uFSQCBcYo5h5vKDWH4oDlcU7ggLcDacd2Vyuy23cwGBamz8exvm7r6MHN+aCDVkTNnHSX7SJSxeuRvztp/BvkvZcPH3RYDp25XSpxnL0ti2FIoNshOweeM+aX9PYIOU35fyHBBU1R0FX9YUpLVqHVtEbJbbhZPYGW2+XdBqtFIdVFrddtL/l9s19N8iNagrdiejebdmqGUueClCOngvnsH6cxnSqVGFKnYZWP73UYQX/ipWn4mNq/fgvM4Z9tKg7sYJvPvBQvyV5ol2beujg18ulk75BW9tSzH1fzOuc9na1Xh2wk5clk5APZt44cra+Xj+j0vINsxTmnzs+W0ORm5Lg1doXfRqVQ0Opzdg0IS9iCy1c51pe2tW4blvDuCmfwi6hwBbp8/GiMV7MWrMYqzM90O3Fr5I2/oXBv8edaufVu6JdRj8wzHEuwfioXZ10dj+Er4aMw+zY+WNKVG9YVM82dIP7g6V0blbCwzo0QzdA+VcMMm/gbkT/sS0q65o06o2qiXsx7BxG3HQ0A3GyOr8+ofTr0u9is37Y3GjoItQfjxmfvErxhwD6rWoj87VtFIaZuG9XZmGyZa3ZSWVB1p3boaHaznD0a82nuzRHE+3rQZvuZ5KJ45V303HC8tuwC0kDL1bVUel+H0Y+t4CLLpasA05r85i5cY1GDbjApwa1EVbXztprHF/Nm3fh0/HLsAfad7o3DIQOLwCg77djtk/zMK7OzUIaxGK0KxjeGvseuwtuG2qz8DJA6dxMqVoX6n8a1FYeTzBNFRSReSHs5Max1Ydxu5bHQf1iD98EHM27sWKC7cfw9KnnsW8dYnQukmnFel4PHXoJObP+hNjjtuhTctgBNrL9xsLH8tl1F1dClZO/QXDN2eiaqMGeKRxJaRvW4QnJx9DnNnk/1PHgjl6XNm5BP0nHsbNKrXQq01tVM88jhEfLsLSgsqrkbb95S/48LB0EdYiDC2dr2HyZ3Pw+brj2BlX0FdZj4QLp7HxQkbRbWmSsHfnBVzIM61Lzt+Dp3H0pjSscoV98glM33K1SFcIfeoZzFl5A1oPKWBTX8SX45ZiaZIzmrZqgB5SkHBw7my8suqGaW4zysx/K9pQVSW06yqVgXTB5Fw1RDqWpDLpHoY6jvJE87SXz2BbQjU80sbjLk9U1rTTVuyDRHf9CN78eAW2KaqiZ4d6aO6Shr1H0+DXuina+RtTqUu5go0HrhTrI65DdPhJ7Io1la815SBdJC+a9Cs+PqJAw1YN8XCYdLF5MhLXvOvhycami4ZyHxtGluu2PUKrK7F51hosjDfuhFyHJvxyDJrq/oZh+WLs1KFwLJo7Fy8tjIdbWBi61QZ2zJiJl6R9KKh/hnZ710F8NmEVdjnURPeG0kW34euGso8TfcYZjBmzAtuV1dCzfSjqKuOw/EBSmdPkdd9uW4x0CSfx3sjfMSPWEU1aSPld1wUxa/7EYxOPINqUT8Y2eT/GfjoP0+Pd0La1+XZBG7sd/Qd+g/cP/j/3ASOLRLnoRNL630Td0XvFNZ1p1N1KPSiee/J7Mfmi1jRCphN5eWqRnWv85OQXbEwjTsz9TrT7+aLIkwezTot3XpgsxkVoDFNlusR9YtCgmeK36/Iy2WLd5K/FowuuGec3yTy6XHR4ZaXYly8PyeucKuq8tEAsjb+9nrwza0XX5xeLTYUXNCNPrZFSW0j6UTF04DTxw+XSMqhgewvFsusF+6wTUX//LGo9MUV8dCD91vrU59aJboMXifW5phH5+SKvyGqzxN9ffi4e/euGaVha5vx60eOlZWKHYd9uU0duEN2f+Ea8se2mUJvGifwY8eVrE8S7BwrGlCe//vn09xy6QuwxjNeJ6xt+F03e3SLOFJpPl3ldnIwzpdyabRVZZ2m0IvKvaaLF1DOiYDfk7d/ctUA0f3Wl2JtlGmWQI7b+OFE0++aESDEMG/Mq+JmZYubl23VLVlAew7cnS3MZaa/sEI/3GyO6TjsjbhSkPT9WTHjjSzFin6mM8i+Jz1/7Vnx+uuj60rfMFfVG7zMNmdk3K/KjTPmXxZevfyXeK6gvugzx1/gJov0rE8RDf8SZ9kNqIzbPFU3H7De2Eflx4pvho0WD0btFZJF8LnYsS0or+9S9f4k2UllHFB6ffV58/MokMSa8aD4Udu+PBTMyTokRQ6aJqVGF05UndkybJDrMiDIMpUp1p9lra8TB2xVKZF3cLQY9O0Y8szrNNEYjDs36VnSZdel2GmVZR8SQp2eK32+aClPO3zcnitEnjNtL379YtBy2Why4lT6duLpmtmgstdlxhsNVI3JvtadGKVv/EA3f3WoaKll3ys5/a9tQjTj++3ei7U/ni+RpabJ3/ikavLpGHC4tr0tVsm6V3U5bsw9aET7ve9H06xMi1TBVok0Q097/TLy46XZDoD69RnSRyvdQkXTnisXjxxUp37LKQXNho3joufliRYZphLQHF5f8LBp8ftjUvtzpsWFN3c4RO6Z/K5p/dkjEajPEuikTRccfz4iCamc8rseINl8fEdGFtp12YIlo/YKUXznGYcOx9vhn4pkVN4rWYyuOk9xDf4tW728TFwqHBiaWppUof12mWDVxgug846JIN0w3yTwrRg39Ury+01h21rUL0upSzorJk5eK+ZfMbpz+A/71O856dT7yYAN7+9tfeuSf34EX35uGPu/+hD7vfIvmz/6BhalFLt+NnGujb3Mdtu6OgfGCUP6K5gzO12mEPj7SruVfxrbTdqhfTYfIi1dxyvS55OiBgPTrOJ1csE4FKjdriT5+tx8lsK/hj1r5abiSbma7hdjb2RS9G+LoCT/XPKRmWVpO3l4L9PYtuMWuRED1KqgUUA/PtHC7tT676r6oIaXhakEabG1hX2Rj9gjwdkJmpnW9OJVeIRjYoRJufTNq64e61TS4lmC6n1Ku/Prn039bPg6eiIN/i/qoU/CdoETp4otG1Ux3FStsW+ZosP9gNDzbNEUrZ9MoA0e0b18bdmejcOzWLT8pr9p2wODqt+tWAbk8nmlf8FUyoPLxRW13bzzUMwRVCtJuWwUh/hpcT7T83UeZKiI/bAPQo4kdDh27bHzTTV4M9sUE4OUng5Fy8oLpzo0ae49dQ53mofAt2J7CFQ/3a12krKynwZEjl+AU7APt5dt18tQ1e/hXzsa56AzTfOVTccdCUXlnz+OAgz9q627cTuvFJLhU9kBKzDVpDi2Oh8fCtVk9NCnUAdO5Vgv0DSnzK7cyuTVthC66c1hz2lQBdWnYeOA6GndsgADD6m3gYFukIsDJxwMeOaXVA2vz/87b0NJo87XQ2NoVq7d3xrp2uqx9EEhOy4WbtzucjJMNd/m93QSyc/Kls095lF0OuowspDu7w/9WPVGisocT9Ll5MCb7Do8Nq+q2Izo/1wc9rm/FR98vw4TIYIx5PhSVCidZOq67PNwYNQsd1+6N6qCp5hqOxd3+BkrpWR+v9Kpy+1iTlH2cyM2NdP5IiMCcfYkl3o5haVoJ6mhsCnfCw11rwM00ysClNh5trMKRk3G33txVZrsgUXqGYeTI/ni2RL9S+q+ogCbp7ihdnOGlzEJCoa+e7UK74a+f38P2Ge9j+6TuaK7Ih9QumWGHNp3rwvboKRyQa74uBRsOJKFFx7qQ42Z9TgYSM7NxZONWTF2w5fZnSSwcGgejloWvCaFUwUaph9bC110GOQlY99dSDBn1PboMm4z2ry/CipsCwrqnX25RqJS3AqhblEqoFAL6W1mjxoW9W/HB+Bl46LXJ6PDKFLy9Ix36cm7rNgVsbZTSPho3cDf59Y+mX5eDxDQdKnm5ldzmLRWdV4XosnE9WQsfqZEvfgDZVHKHd24WkgvVV5XKRsppKyik/CrRFiugUiqgu52Jd6gi8sMGjVrWgioi0tA9Ku98NMJ9a6Jra+lkeTMKuxKlNOZGY2dkJXRp6V4ob5RSPbvD3oB6tdQ25OLmuUP4vnCdXLADx+xqoY2ho29FqIhjQY+slEykp1/GgoWFlpE+087Zon1DH2kenRR85cFLqif35LRrH4x+rVTYsfeS4aFIXcJpbLwWhMda376gzYqNwPc/zsUTb01Bx1cmoduU47hRWj24m/y3tg0thZ2zIxyys3GHcXdRd9pOF9kHJerVDUBm+BkcM0Vr6qsnsC7KHU1CXUu0BWUpqxxsawShQU4UNp439RPQJGLF3mvwC6luvLC+w7Kxum671sb7A6rh9J7LqNO/B7oV7jdfGhvpQsJFviAxDcukRq3oIz/WHCfSYgFt8d17DZCx/Dd0eXMuxq2PQYKpLlmaVpwuPR0JGlfpYqJ4G6SEr7crstOzpdaxNEXbBSJZeY/1iucQiGZB2Thw7KqFyls6+5DGeNjpAtacUEN7PQIbE4PRt6WLYZrS1g4ONh7oNfR5zP1sSKHPi/j94x7oak1DYIkuGX9O+g3fXvHHK+++ii0zR2HvjGfwhPcdBgkW6RG7fiGenZ+Euo8/hSU/j8KeWe/jh66FA5S7c2/zqwLTr7CBva100sor7S7PPc4rafsO0vZzpe0XP+/qctXItXOAW0XFcyUoDEF4+QLeissP+7AwtNVFY/ulfJw5GQv3erXg71ILnYITset4BnLOROKoTwi6yVeuFUFpA0d7FQLa9sHsInVyCH4f9xzeb2481ivanR0LStjZ28C2cgOM/bTwMtJn3Iv45dlQaR7jiThPqidlFaFc0qLcV3o2aNKpHlyOncLuHB1i9p3B1YaNpaDHOFV3/SDeHLsZUTU6YOrX72D3rA+w7f2m8CutyfqX8l9mW8MPwZnXcMLUz/aOVWA7nZWnhav+Ej5+5zv0HfUjun96GM79+2N4aKFLeGm1Cikit5Rqa8pB5OZD7SRwcJq0nfdnoPcbv2GhYydMeirQeEf0DsvG6rqtu4nV2+MRGOKJ09uO4bw1XXqFGjlqO7hZuill1XFinM+3SVf8/P37WPFaKPK3LsATP0ZYMa0ohZ2tlF8a5Nz+QQgTKYCX8tjByQGm7ymJrFJBZ7e7oPLC433CkLV1C/6IuYPO9rb+6NvOFfv2nEP43rNIatoYnQq+PnfwQ13/VJyMzLbYiN2x7GhsPeeJp59rjbb+jqa7n3rcm4vTXOw/fBnVuvfA4IbecDfdrtLrip5YlUollDodtOU938ruaX5VYPqVTggJdEX0xSswPgpYnHXbumPS9uvVdMOl87Eo2oNIj7iIy0iqFYQmpd8KvztKR3g45SIptfDtlXzE3ij2EFkRFZgfdkHo0TAP+45EYs85PZo3rgwbpTM6NPHFueOR2HnkMrybhiHoDm6nmi97W9St4Y0rF+JQSu+IUv0bx4JTDX8EJVzB8VJfdK9C7UBPXL0UjyKz5CbiUlLhEUp4uNojPS2zyIN+uddTyvxhErvgxujlFYW1R65i3cEsdOpU59ZX1BmnzuGIT3OM7BWMIJeCiiC1Wca/zLjz/C9JAZVKYbh7Z02RqHwa4LHQZCxfF4V007g7UlHttC4NW/cmocWQ17Dz19cx64MXsXbmO5jRN7BIFwCVixNcsjKRVPh0pk5GXKEMLLsc5AdvIxBd7xEs+3Ukln8yEHO+G4XNH7VHk1vdw+6wbKyq2zpcXLMKM7VtMOWzpzBYvx+frrhe9OaWFCRfjS/a7mhj4xChqYL61Sw3gGUfJ4XZoWr91vh8WFM4hkeaxhWwNM1I6eqPepWScPxcTtH91aXg4NksNKhXzXghQmSliguc9ZnY/MefeGeNsX+S9ZTwadcHkx7S4NfP52LCjjgkFpwpdLmIOhOPGzolbEo9DqUTUccGCDy1C2N35aF75+BC/c+q4Ok+NXB+yUrMOZ916wnb3OQr2HToStET151w8IC/SwqOnEw29JHSZ13HkunrsPLuzzBm2MG/shOunIvCZTl/9Lk4u3UlvtiZXqThUnp7wld9HSflPma6PKTnlCMt9zS/KjL9NmjeoykCTmzDpIOpxsZcnYLtC//AK0vkp9Kt29ads0Hjnm1Q7/w2jN10DemGlWpx7fhWfLIuH0892eR2/96KJr+doKELDmzYj3C5250uAweX/oX3N6daCEasyw9t3GF88NUW7LHYndoOrVrURNLerVidHIj2teQDUwm/prUQdH4fvjthj04tve+oG4L5slchpEcbtLm8A5+sicXNggSrM3Dy4FmEZ5ZeKf+NY8GmenO82OAGfp6xH8fSChKbj4QLZ7Dlotx5QoXQjk0Qem43ph5OMwTF6qQL+H7iciy7WbgElajeKBjepw5h7kVDPzQknt6FN78/gitlRZ0qHzzWzgv7l63GqpxQ9Gt4OyxwrOwBj4TL2HNdjur0SI85ijG/nbz9tpoS7jz/S1LAz8cNuTFXcFHavC4719RXtxQqTwx4qTuqHlqG1/48g6hs08yaTJzatQkvf7jaOFyWimqnVa5o2cQd27/7EX3HLsQHv6zCh98vxWcLD2N/wu0oWeVXC208LmHB2iuQexlrUy5hxqS/sbjQS2/KLgclKterDb8jf+Ph9+dg+I+r8OlPf+ODmVuxMDzV1Cf3DsvGirqdf3kfxqzQYODQtghx9MewV1pCLQXSs2IK5pbl4/CCP/HB5nhDdxpdRixmzD0GTafW6O5qmqUUZR8nOkRu2YxfjiQb38Ouz8HpE1J+VvUrY5oZttXwTC9/HFu0Ggujco1tniYNu/5aiT/ymuH1TuX75k2ffBoTJizG7xcL5wX9l1hVX7RR2zHw1UloP3QyHltwGTmR29F/2ES0f3UWpkWZKr3IxaWz0Thw+Q4e1lG6otMLQ7FseB1k7FqNp177Bu1f/hqtXpmO97bo0PvtPujnKSdVIQXQNoavOgtT+TXE47XSEGXXAI+HFY6wlQjo9jR+f9YT+6ZPR/uXJqHjq5PR64vN2Jqgk7uUSsyvU55oYyv3bzMNm2NXC+++1Ro2G39Dx5cmouPI5dhZpT1erGsHadFSlLI9G5VhXNHrA2n7t9Jgiw6D+uM55SE8N0zKn1en4+Njnhj6aHU4F1qX0rMh3uzninVfTkIbKf++PGb8aVqlSlq/SimtsTD5DpAKdtJ4o7vIr384/TY1OmHa2/Vwc9FMKe+lujniT/yeFoLXHpb7x1m5LbN5UpxCmk8Ju2L7q6raGtNGd4DbvsV45GXpWBg6Bc8vTkXHES/io/oFX/yVklcS89uW81DKr2IJslXZFCojGzR9qj/e8T6LN974Gu1fn4NpyfUxaUgduJe6b9blhzbhCnaGX0dCGYGZc4N6aJd7E2l166C5aVdVfqHoVCUVcc6h6BlYaAfkPqJm9slc3pRa9pWbYcq4Hqh6ciUeHyqlf9i36Pj2H/j2UCo0xkpp1r0/FsxQeuDJd17Eez5RGDNqEtq+Mhmdhv2El+afwxWN8Xt4VbV2mCrV3Rvzf0EHqd3oNn4fsrs9ibdDi6bILrQLJg90x+ZvpqLV0KkYvCQdj4zohS4uKqgKvtI3m79KBHVojAZJiXBo1xjNCj285dC4Oyb2UmLB2MloM/RbPD7tAqr2bYvmDrdXUDx/ys5/a9tQKRhs3wXDPCLw8ivSekauw06LkbP8cF47zJzwKJrf2INX3pqItkMnocObv2HCESUee62Haa7iiqXHqnbamn0QUt7YwKdeG3z48sN496kOGNKjLkI1ERj18TKsLvj6yTYQb77dDb4HF6LbixPRddwOXG/bH6ObOUrbMxacNeUgpG3beQbhhRd648NnpXx7tAW6B2mx/sdf8cFu43dtd3ZslFG3RQr+mrMPuT374JVgY4vuUKcTPu+pxR9zDhuGDRSueOylbvA7tBgPvyRt+70VOFazN2YOqYWCTiKltrFlHicqBAS54dKKP9DzZal9f+VnfBodhC/ebFXGNFnxslQiuPdAzHzcAeum/oC2cnsttZs/JtTG5HEPo7XpTpt17YJULtk3cSw8GmdTrfnehP4fKeRXa5j+JqL/rHzs//UnfKLtjZXDQ2HqEkv/mDws+eIbrGj8Lv56lLl/X8o9hTdfPYjG3w7F0MJ9+DVx+PrdhUgbMhITmxW9dXDn1Fg76VvMD3kDC/t6SqFfAS1OzP0JwzN7Yf9bIaZx/wLNFUx87y9kvPweJjSuqH0mejCUdklKRP8huhtH8cvp6vj4uToMmonMkW8x6bMQe61wX1k9ks6cwt5MPzQNqujTqcDN+JtFnqPQpV7GmpO5CAvxNY0hon8a7zgT/edJJ/+j+7DatgmGNHLh1fS/gnec739aRO9ai4/mn8V1Jy9Uc1UhPzMNN4QvnnqxL95q6layS8JdyL96EuOnbcammw4IrOIEO20Ort4UCOv+CL54us7tn7j/N+iuYOI7i5Dx8ru840z/OQyciYiIiIiswJtLRERERERWYOBMRERERGQFBs5ERERERFZg4ExEREREZAUGzkREREREVmDgTERERERkBSsD52QsH9YCg/64XujF7/SP0Ibjl1dfx+zTD8jv4j9o6aXbDGX3Bmafkcqu8N/lpN47CYPfX4QY06/xP6i04b/g1Tdmm4buEX02rp87goNHIpGoNo17gBny7PXZ4OF/W37CWRy9kHLvzp0Fx+r9lulZsQg/FYds02CpLKZfi/BfXsUbs8+Yhu8RnreoHKwKnHVRf+CnNb7o2rMKlLpz+LqtJ7r+GFuuhkB7ah7GTFqPa4y8LdDi1LwxmLT+2u281V7FkXXrceRa+aOQfyXP7yK9/88qtCy0pzBvzCSsr+iCNZTdOhy5KpVd4b/LSRO9Dys2hSPJzKK66O/QxVkJhUIJla0zKod2w2uzTyDTMPHO2pZ7RXv1CNatO2IaMuMuy0F78kf0DQlCoz4v4IVHm6B67T74MdxS9KxF/Lav0K+OG6q8sAp5prGF6S7NQl8/O9jVGI6thValjd+Gr/rVgVuVF7Cq0ILaiPFobi+Xh8L0sUP90UekLVnBzP4b8mz9Edw3h/+9Olaspsb+L/ug/bM/49wd5kmZbUfBsXqftbkpS4ajTdu3sdxwcFtgMf1aXD2yDuuOXDUNV4T/g/Ms/ausCJx1uLBkCcKb9sWjVaTZhRb5+fnQ5OsMv0BqrfyIlfhxzg7E8oLOgnxErPwRc3bEWnfiKgPz/P5RoWWRH4GVP87BjgewYEVOhhQkt8XEyBxk3zyDFcM9sPHNpzFmpxTN3WHb8q+5y3LQ5fugz6yTuBJ9FpFRW/GWxxZ889NWswExkI7dn3dDm2FbkeOihEajKXlxob+OJaO/wZW6LeGlzkWuKRPTd3+Obm2GYWuOC5TScprCC+blQeM/FOsy1VCrpY8mB+FftoBVvwX3INTDfz2N9ug88RBiNn2Aenf4S38Pajvu9fwCREfNxSBX04j7Bs+zdHfKDpz1Sdi58yxqtW0L77LmzjuHhe/0RL1Af/hVDUHnV39HRI4eiUtH4JEv9iD3yiK80bk9uo3ehBzTIrflY99X/TB4+ulblTlv66fo9fJvuKDTI37dJ3ikblX4+lZFSJdx2GHu+x9tJBaPfBwtavrAw70SqrcYhJ+OZJkmlrIOfTzWffII6lb1ha+U5i7jdiDbYlqklB6ejAGv/4pVPzyHZgFeqFy7J8Ztj8f5RSPQuWYleFZriaHzIqW1mJY9txDv9KyHQH8/VA3pjFd/jyi5//pELB3xCL7Yk4sri95A5/bdMHpTwVwC6UemYmDzqvD0rIaWQ37DafnsWur+WpPn+Tgy5Sn0Hb/LNF66QPrtJTw8fNGtK2f1vq/wxLPTcErOBLNla5yvpPKmF0hb+wEeee5nRNxqfLKxc/zjGPRjuPR3Hs4tfAc96wXC308qu86v4vdSNq6NXIyRj7dATR8PuFeqjhaDfsKtKlBM5rFfMbRDLXi7e8C//iP4aHXBHQg1Lvw9Er0bSul384BfWHcMn3f6Vv4VlP/qaS+iVTVPQ3kP+e20IeDRx6/DJ4/URVVfX6msu2DcjkzzZWGxrubj8OQBeP3X1Zj2YitU8/REtZZD8JuUifrEpRjxyBfYk3sFi97ojPbdRuNWNSks8xh+HdoBtbzd4eFfH498tNpQruXJnyIslX/aQfwwqLkhnQHNn8evZ7LKCHwVUNrYwsE9CO1fHYWna1zD4QOxpmmls3gcFU5D04GYMm8iXhg6WzpeLR/Ld5ofpZeD5bpTmH3LZ/BK5wAptJK41EXdGrbIyzUfNkOvhag5DMuPrsWbjR2lHCwpdcM4fHb6MUx8I7RQ4KuHVtTEsOVHsfbNxnA0t6C0NpWtHezspI+NDVRW3E6xWA9FOo5MHYjmVYseG+U5jqWDDJMHvI6fF45DjyBP+D76C2L1FpY3045n3stjxZS+X1dPw4utqhVt54rQI27FWAydtE269LFcF61uO0zLFiWQcex7PNtcTksAGj81FQfTTZPK0XZbaoetyY/C5XXx2Cy8/e5c47ostncyC+kvovQ6UDL/zAQJ//h5VmJNW//zQozrEQRP30fxS6zeupiB/j3yT25blLdRDKvmLQYtyzYOa06Jz5o5ifaTo4XWOMYkT+z/qKHw7fKlOJCsFbqU/WJsW2/RbNxxkZd4Tuz8vItwDnpOzNq5Vxy6mCJ0pqVuyxVLB3mLWiN2CbVpTObcx4RzvY/Eocw94t0QP9FvbpzQiCwRs/eAuFgwU2HZe8XsifPFvpgMoc6OEYueryncek4X1+SNqc2vQ73nXRHi10/MjdMIkRUj9h64KG3fQlqkEblrXxJ+zh6iwcDp4sClc+LvoSHCoUqgaNJrvNgcGSP2jO8sPHyeFUszpAXz9ouPGvqKLl8eEMlanUjZP1a09W4mxh2XtleEViSe2yk+7+Isgp6bJXbuPSQupkgJz10rXvJVCftaT4mf9l4WcQcni56VPcTjcxOFzsL+aq3I85t/PC48A18Vm3OlAd1l8X1ne6Fw6SVmXjdkmNg5opaoMnCJSLNQtsX34o7Te3GyaO9cV3x40JTjmSvFC/4B4sVVmVIWfiQa+nYRXx5IFlpditg/tq3wbjZOlMhCSfbe2WLi/H0iJkMtsmMWiedruome06+ZphaStU28WdtDtHh/jYhMvCHOrpsixsw6YdgfeXsN3EPFC3MOi6uJsWL/jKdFTad64oN9eYZFC8q//tM/ib2X48TByT1FZY/HxdzEXLHn3RDh12+uMFanveKAVMnMloWFvJCPhbUv+Qlnj/ri6Z/2istxB8XknpWFx+NzRWJ+oji383PRxTlIPDdrp9h76KKQq0lRWWLbm7WFR4v3xZrIRHHj7DoxZcwscUJKk8X8kcsuIFAM2yjtZ+G/LZZ/rtgxorZwbTRcLD8fL86vGye6SeVvazpWitOc+kw0c2ovJkebWo+bf4kBPu6i79ybFtoWicXjyEwa/G2FnSENlo9lS/khl3NA4DDD3yVozZdDWXXHLHWyOPP3W6JZpTri1bXJZtrGwnLF6iG+wmvg38LUIhtl7REjG9YWL626KXLXDxUBfkPEavm4LiR39RDh6zVQ/F1oQc3hj0UD73bi1S+/Et9M/VUsPXhVKm0rlLL/cp75quxFraeKHxs6Q95Yexwb6p+fq/Co009MOxInYmJuiAwLy5ttx0tJY1F3caz4OQuP+k+XbOeMc5hoxKnPmgnnnjNEgs5SXVRb33aYlr3F1ObaVe8rJm+PFvER88RzwY6i3kcHpe2Uo+2WWGqHy86PouWVbjp+DE2IpfbOYvrltjBABA7baNhM6XXIfP6V9M+fZy3uu6mtd/WoI/pNOyLiYmLEjQxrYwb6t5QdOCfPEo841RLv7DZVwtJObnk7xFvBPmLAgniRmpoqfVLEucmdhEvHKSJGqiDZ8/sJ15CRYp+5umxgKXDeL0aFeYo2H28T16ysO5rcTBE/61HhVvdDYWgD1ObXod4/SoR5thEfb7tWqCEpO3D293tBrMwyTlPve1/Uceohpt8wHjK6y9+JTs7NxRdntFK2vCWCfQaIBfFynkiflHNicicX0XFKjJkTZLaY389VhIzcd2u7hgPa30+8ULAxkSJm93IWoaMO3J5HUmJ/JWXlue76TNFLOmDf3SPNkDhH9A1oKdo08BZPzE+RduqQ+LBeZdF/gfR3GWVbxJ2mVxcjfujiKsJM82WsGCz8q78iNmTniR1vBQufAQtEvGHbqSLl3GTRyaWjmFJi44VJIV1mvJj1qJuo++FB07jb8jZIwYXXk2JhqmnELXliy2vVDUGqFMoZSWmb2tFJ2of9hsHi5S9SZotezqFi1IFMsX9UmPBs87HYVqyiWiqLkmUnN6b+wu+FldJp3Shldi/hHDpKHJCnZ88X/VxDxMjSCjZvgxga4CWeLLlzhZjJH7nszAXOlso/d6cYEewu+swpyC2dSJjRUziZjpXiDIGzQ23R//MfxPeTPhHPt/QRbo0/EDvki0wLgbPF40htKQ2Wj+XbSuaHxcBZVqIcyq47RWWJpYOlCyQHW6FUOouQp6eKvTdKXDIUYy5wVouTX7QRNfrPE1elQyKvHIGz7vo68fWbI8T7I98Trw/qLGq6eohmH20XlmrOLWbqYenHRkb5jmO5/vl5it6zrpraScvtgPl2XHIvjxUr2jl5WWsD5ztpOwwMafEVzy5NM43QitPjmwvHZp+LiKxytN2yUtth42SjUvKjSHkZ68KtwLmQEu2dpfRrCgfOlupAbqn5V9I/e54tzHxb7yc8e88yHLuy8sUM9G8o80s5vVqNfNjCzs40ojTaq7h6PRWbPuyIFi1aSJ+WePTXeARV9bz7d97ZtcKo6aNQZVl/hAZ3wivTDyKlcD+9Avob2DbhSTQP8kNQWGN0GLsTuXq98WvjUtZh12oUpo+qgmX9QxHc6RVMP2jd088KW3s4mL4PVTo5wVHpAEcn454qnRzhIH9FqhVStlzF9dRN+LCjnCfSp+Wj+DU+CFU9y5ErClvYF2wM9nBxtoVOo7G8v1ZQ+jyMXs1vYOvGU0jdsw3H6z2HT3r74+DGHUiN3ICt19uiTw/38pftnaRXGYj+T7dF/OqlOJqfiS3LtsHp0YHo4qTF1avXkbrpQ3Q0bLsFWj76K+KDqsJcFupvbMOEJ5sjyC8IYY07YOzOXOj1JXMk51o8Ur0DEehkGnFLDmLjkuBTsxZudc1T+iJImjElIdE0omj5w94FzrY6aDR2aDVqOkZVWYb+ocHo9Mp0HDRbUSVllp0CtvYOt75yt3dxhq1OAykXy5ZzDfGp3ggsuXNW508RlspfG49rSe6oWs3FNLMSTo4OZrsS3CIycPn4ARw5mwzfATOwd8fX6FxGP0iLx9GdpMHkjvKjVNbVnduc0X9ePLJyc5FybhGevDEBjzz2FU7e+prcOrroWfhglgOGj3scHrnZyMnXSXks1cdcNcp61Enp2wsf/fQDvp08BdMXbMPeHzsh5ucpWJZoTStonvljo3zHsYHSFQHVvE1tjOXl77Qdv6tjpbR27o6Uo+0wR2EHZxcH04AKVav6QpF6EzfV5Wy7S22HrciPIuVVTFntXWnpL1KBLdWBu8w/2T06z5a9vBKuAdVudYWtkJiB7qkyS0Lp4gYXZTYyMsuoJioXuLh4oe/PEbh48aLpcwERC4Yg0MryViqVyJcC9YItSYG96S8lKnf+GCvOXsLer+vjxCdP4oONJXv8qLePx8tT0zBwbRSuxkTh1JSecL519ixlHcrK6PzxCpy9tBdf1z+BT578AIbRpaalfFQuUr549cXPEQV5In0uRGDBkMCyM78MlvfXCkp/9HqkMS5vXoPFmw4hoGM3dHm4M5x3r8eSVVtwqVUvPFRJSmUFlK2srPLxe/wpdEhcg6Xb12P5Njc89kw7qflSSdt2gVffnxFxa9sXcSFiAYaU2Lga28e/jKlpA7E26ipiok5hSk9nswGUnbMTbLPSkVaibbWTGkw7ZKQUPvFmIyVVDQ9vb9Nw6ZSVO+PjFWdxae/XqH/iEzz5wUbTlKLuuuwssXOGk20W0kvsnPX5U4Sl8rdxhotDFtJSyxHtqWrjmanzMf/3GZj43hNo4FF2JbJ4HCktp6H0Y/kO86NUd1p3VHCv0wejRzwEm/Ad2JNQvhO+5uRBnEjYh9HNveHl5QXfp+YhPmEBnqnWDuNPlCcKV6JSrZqopM1AWvadtXelK89xbE4Zy5fSjpepoo+VMlg6r1jbdpRNj9TUDMDNE5525W27S2uH7y4/ytfeFUp/kQcqLdeBisu/ou62rS7v8vcyZqCKUXY52Aehhl8KYi9LFbkQoddCk59veApeq5MaHbtW6NQyH9sWLkdcQVutS0dCkvFpCaWDI2zTEpBQ8MRcCUr4+3vj5tG9OCstootfh9Hfb4Nh9rxonDyTCr3KEw37D0Y3f/lkVPJeijYpEWlO0tVwDWfp2EvGoUMXoC5ol0pZR170SZxJ1UPl2RD9B3eDf3YKUnUW0lJOdq06oWX+NixcHnfrgRBdegJM2VKMEg6OtkhLSLBqWxb3V1J2nqsQ2PsR1D8zGxPW2aJdl1pwatETHfXr8MX002ja6xHIL1Ipq2ytVWZ6fR/D052TsWzUF9js3Q/PtJK/5rBDq04tkb9tIZbf3jjSE5JMDxwVpkVSYhqcgsJg3MQhHLpw+yRVmEPLdmiSuQkLVl4z3JXLv7wW3809IuW7I9p0aYnczb9jYbQx4zKPzsDcfVXQs08Tw3Dp8hB98gxS9Sp4NuyPwd38kZ2SaphSvCzKyguL5G83bNOQUFrBOrREuyaZ2LRgpfG1YPmXsfa7uTiSb33+FGGp/O2aoGUjLfYsX4PrUjOgi9+AsT/tuKNjxRKLx5HFNFg6lu8wPwqUKIfy1B0tzq6cg/XRpgeY9InYve0Ysn1DESZfrOrisPar9zFxY/ztIFynhTZfA700Quh10qAWctPr0P9PJOaZ3oohfTJWDYG/7/NYdvMoPm8i30HTQavNh8a4IHTyeuQFpTVfP3UUlwsCTO01rJ+7DleD26NDgBSx5BzGzFGfYVl0ybbWoKx6WER5jmNzLC9vvh2XJvzTx4pFluqi9W2HWbrrWP3dNByRH6jLCce8JSfg264TQpzK33abb4fvLj/KbO9KS3/BDWADS3Wg9Pwr6Z89z5a3rS9fzED/hrIDZ7uGaNvMCeeOh0vXnBKFI1ydBfZ/GAJHe3vYSx+H2iOwQ+OHwRMno0P4cDSq3RTt2rVAWGAYBvx+0VD4dm17o4fN33i5QShChyxC4edpjezQbMgIdL8xCV1Dw1C73efQPNQb1e1toMg+hqm96yC4aRs0r/co5roNx4jeJb/bdXxoKIZ4LcNLrTuhoxQAfptWHdUdbA1Pieszza3DGZnHpqJ3nWA0bdMc9R6dC7fhI9DbtfS0yOtSqGxgIz+BbtoupGFbG2lcwVWkyha2tvI4BZR+gzFxcgeED2+E2k3boV2LMASGDcDvFwsOicLs0LZ3D9j8/TIahIZiyCIplxQq2NhI27q1MSVsbO0M67e0v7Ky81xKanAf9GmYigRVR3RvKm3EqT16dQESMpuhb29/YwVRWi7bIu4ivUBl9Hm2F7SRl1Dj6WdgOOdLy/sNnojJHcIxvFFtNG3XDi3CAhE24HeUzEJHPDR0CLyWvYTWnTqiRc9vkVa9OhxsS74HSlVzKCZ+Wg+7hzZA7fphqNnqfRwW7tKlhBKBQ77FN21P450mNRHWsA5qdf8Fdm/PxNhOxq9zS5S/UiprO6nMlZk4NrU36gQ3RZvm9fDoXDcMH9HbMEvxstBZzAuFVKVsDG85KCC/hcLO1tbYdcOuLXr3sMHfLzdAaOgQyNWkCFVNDJ34KertHooGtesjrGYrvH9YwF1VRv4Yyk6uu8X+tlT+ymoY/NlI1Nz6EhrWqYtabcYis3sv1HQw/3YGhbROw3pVZm65KIzHka2UnuJTLR5HJdIwBkk16pi6uVg6li3nh6GcDRlQihLlUHbdKUxcXYnXm/gjIKQh6tUIwZOrfPHejLHoKn9jrYvFzj9nY+GeK6ZjLBmzH3ODnb0bHv/jBlIXPwM3Wye0HH+q5DEoHWt2cvtjysTk2Y/Bzc4ebo//gRupi/GMmy2cWo7HKSnwjl48DE0DqiKscWOEBtbFkP2NMHHOx2gpVT39zQP46+d52HmlxBaMzNTDUo8Nm/Icx5LC9c/A0vL6UtpxabF7eqyYb+dKZ6Euwvq2o0Q7LqVF5VgXbf1Won9YbYTW6Yyp2YMw6ePOcChP232LuXa4HG2HScHxI4+y2PZbSr+pLbQ1NkSl14H80vOvpH/2PGt5+cL7Z1S+mIH+DQphRR+E1EUDEPpFdaw6MQmtb5/LzdNlIu7MGVzNcUCV4DAEVza8bMlAlxqNE+eS4RbSFHUqmW9g9FlxiDiTCJc6TRBc+HuavAScOxWFdIdA1K9fDS5mTsoG+UmIDI+G2r8BGgZIV3iFlbKOvIRzOBWVDofA+qhfzUU6ZIxKTcsd0GXG4cyZq8hxqILgsGAUypZidEiNPoFzyW4IaVoHpWTTbZb2V2JNnlvNQtlarYz0lk6HzLgzOHM1Bw5VghEWXBmlbT0/KRLh0Wr4N2iIsjaRd+MswmNyUTm0MWoWKWMd0i5H4Px1HbzrNECtSmVV/AJ5SDh3ClHpDgisXx/VClXUEmVxx3kh0aUi+sQ5JLuFoGmdSubfu5t3A2fDY5BbORSNa3pKJ2ej8uRPERbKX58ei1Pnk+BaWzpWvO7uWLHE0nGkT7+M8HM34VqnMXzX9Ifv5LrYfvxrYxBo4Vi+4/yQmS0H6+uOLvMKzp+7ggxbX4TUqwkva6tZhdEj50YkzkSnQHjWRL1QPzgbqqwecTMfRdt57bBu+2g0Ki1d1tTDIqw/js0rffnS2vF/5Vi5RYuTY5ujw7G3ELfuZXhKY0qvi+VoO8zSIz3mBM4meyCkcTC8Cs9WEW235K7yo8z2zkL6iyitDpSefyX9w+fZO2jrrY8Z6J9mVeCMrC14vcmbsJ0Vjh87F3TgJyK6P2X90bdI4EzllH8AH3YYDc+ZG/FRI56x74juCvYvXYHfvv4E+3tsRvjkNrfvxBPRA8vSJdltLl3x0Y8j0EiVKV0TEhHd32yDWuKRzvXgfe9ufv9/s2uFr/ZvY9B8N3QJOLZuK9JafYmZH7Vi0Ez0f8K6O85ERERERP9x1t1xJiIiIiL6j2PgTERERERkBQbORERERERW+A8EzmrsnTQY7y+KQSmv8b872nD88uobmH264t+xqN47CYPfX4SYO014QdrO3Pv3P951WitSfgLOHr1g/mfZHzTqvZg0+H0sui8ytrAsxIafQpzp9zsqnKHuvn5Pjqv7XVZsOE7ds4xNxqIXm+OlxYl80JuI6A78BwJnDaL3rcCm8KRSAmctTs0bg0nrr93ZiUR7FUfWrcMRw89OVSxN9D6s2BSOpDsOnE1pu3rvgy6r0yoFROOauqHD5Au3y0OfiLmPe8Kl/SScL7R83pY3UNNvMJaXM4ZQ7/8Sfdo/i5/P3eF+a09h3phJWH/tPggtNNHYt2ITws1m7F3W3buRsgTD27TF28szDYPaU/MwZtJ63GmWlVjeUHfX35Pj6v6WgiXD26Dt28thzNmK5omuXQOxadpcXPyvZS0RUQVgVw3kI2Llj5izI9bCLylRhbEJRZd2lXFyyzYkFARJOXuxdV8Gco5twpb4gpH5OLFlJ1KadERbR9MoK9l3nohDMZvwQb07fBdZfgRW/jgHO2Lv9xrxL9Zdr+exIDoKcwcZf8EzP2IlfpyzA3eaZXe7/P8PLzy/IBpRcweh5G+jVgQlfB55FM3OLsPSC4yciYjKq+zAWRuJxSMfR4uaPvBwr4TqLQbhpyOmH5XUx2PdJ4+gblVf+FYNQZdxOyDfHNTHr8Mnj9RFVV9fVA3pgnE75LH52PdVPwyefvrWST5v66fo9fJvkNvv/MOTMeD1X7Hqh+fQLMALlWv3xLjt8Ti/aAQ616wEz2otMXRepOm35fNwbuE76FkvEP5+VRHS+VX8HpFjmCJLO/gDBjWvBk/PADR//lecySrljXv6RCwd8Qi+2JOLK4veQOf23TB6k7weNS78PRK9G1aFp5sH/MK6Y/i807i9heIEMo59j2dN22z81FQclH9zX5J3biHe6VkPgf5+Ul50xqu/R5S+nrSD+GFQc1Tz9ERA8+fx65ksac0meeew8J2eqBfoDz8przu/+jtu73Imjv06FB1qecPdwx/1H/kIq0vc+tMicvFIPN6iJnw83FGpegsM+umI6edB83F48gC8/vNCjOsRBE/fR/FLrLS8pW1aSqtF9mj5UGe4H92KHaY8Uh/dgcOendA54Di2bUs1jtRFY8euq2j6UE/4yLXU4v4XpY9bgbFDJ2GbtP78fV+h3+DpuPWNf95WfNrrZfwmVzoz9TczcSlGPPIF9uRewaI3OqN9t9EwVIkSTHn262pMe7GVIR+qtRyC307nGSdbTK+l+puGgz8MQvNqnvAMaI7nfz0Ds9X3rutuPo5MeQp9x+8yTdPhwm8v4eHhi27d9VVLeffEs9NwSmumflw8hllvv4u5EflIXDoCj3yxB7lXFuGNzu3RbfQmwzqtq/v6UpeXj6v0I1MxsLm0L57V0HLIbyjI3vLUh1LnlerY70MfwkuzzhnbJO15zH65D0auSpIbJHz7zAjMWv0dnmsZCC/DcT0FB9LkGc0fL6Xvrx7x6z7BI3WrwtdXKu8u42BoEs22n9IF46y38e7cCFM7abk8C9rN1dNeRCu5zkjt5JDfTks1TFJK+wyvjugQdhabN15hdw0iovKS3+NsUfZeMXvifLEvJkOos2PEoudrCree08U1nRDqPe+KEL9+Ym6cRoisGLH3wEWhlv63590Q4ddvrjCO3isOXFRLK8oVSwd5i1ojdklzGGXOfUw41/tIHJJG5K59Sfg5e4gGA6eLA5fOib+HhgiHKoGiSa/xYnNkjNgzvrPw8HlWLM0QIm//R6Khbxfx5YFkodWliP1j2wrvZuPEcWl7IneHGFHbVTQavlycjz8v1o3rJnxVtqLeR4dubfc2rUg8t1N83sVZBD03S+zce0hcTNEZ1t/APVS8MOewuJoYK/bPeFrUdKonPtiXZ1qukNy14iVflbCr3ldM3h4t4iPmieeCHaXtHRTqvP3io4a+osuXB0SyVidS9o8Vbb2biXGGhBaXK3aMqC1cGw0Xy8/Hi/Prxolu0nptDfmTJ/Z/1FD4dvlSHEjWCl3KfjG2rbdoNu64kNeUte1NUdujhXh/TaRIvHFWrJsyRsw6IU2R0xYQKIZtlNOdLfbOnijm74sRGepsEbPoeVHTraeYLhektO21L/kJV486ot+0IyIuJkbcsLhNS2mV96UMaYvFgMr+YsiabGlAI8LHNhNVhywVK1+pJqoMWiqkIha6az+L7u6txFfntNKQ5f0vTnPqM9HMuaeYkaATuUsHCe9aI8Su25VOPOZcT3wkJdRs/dUminM7PxddnIPEc7N2ir2HLgqpSphhzDNnj/ri6Z/2istxB8XknpWFx+NzRaLOcnot1d/cHSNEbddGYvjy8yL+/DoxrpuvUNka01vU3dfdm388LjwDXxWbc6UB3WXxfWd7oXDpJWZel3dYLXaOqCWqDFwi0szVj/TbdUubeE7s/LyLcA56TszauVccupgidOWo+2aXNx1X9rWeEj/tvSziDk4WPSt7iMfnJgppL8tRHyzNqxPxCweIAO+HxYxotYia/rCoEva22C5XQHn7fg7CpbZ0XG+LEtci/hTP13IUdT84IOWMmfzIsLC/6j3i3RA/0W9unLTNLBGz94CQm0Tz7ae87gAROGyjlHJjXbFUngXtZv2nfxJ7L8eJg5N7isoej4u5ibpS1m9YSqwZ4icqD14h/UVEROVRduBciCY3U8TPelS41f1QHJQb/v2jRJhnG/HxtmuFTlhqsX9UmPBs87HYdq3waazswNnf7wWxMss4Tb3vfVHHqYeYfsMYtegufyc6OTcXX5zJFjveChY+AxaI+NRUkSp9Us5NFp1cOoopMdLJYucIEezeR8y5aVhMWjBBzOjpVErgLMsW8/u5ipCR+0zT88SW16obAqCCVQhdjJja0UmEjtpvGlGIfIL19xXPLk0zjdCK0+ObC8dmn4tjW98SwT4DxIJ4YzpTU86JyZ1cRMcpMdIpuxj1TjEi2F30uZ1wkTCjp3CS8ydjh3gr2EcMWBBvXE9qijg3uZNw6ThFxEhB2oahAcLryYUi1bTkLUUC50I0uSIzfpZ41K2u+FAuSFMg4Nl7lrhakLA8C9vMtZBW85lcTKKY85iHqP22VBd0seKHLj6i37xkkSEFuT6Bw8RG6WyeuuBJ4d14jPFiyFJazAS1VgfOZuuvJHu+6OcaIkbus7Qzcp75C78XVkqhkFHK7F7COXSUOFBGeZVef3OlYDVYuPeZc6vu6RJmiJ5SoFQycJbdXd3VXZ8peknB37t7pKUT54i+AS1Fmwbe4on5KVJ9PCQ+rFdZ9F8g/W2ufhSrW9nz+wnXkJGiIMvydpSj7kuKL288rvzECwUNgkgRs3s5S/shBa7lqQ9lzStdMMzpW0X4dX9adPWrLYatk/dXYua4PvOF8biOkI6f4vlhcX/V+8WoME/R5uNtonCTaL7+FQ6cyy7P4u2mVAlFL+dQMeqAhfot1ZaDH4QJp27TRLy5wiAiolKV3VVDfwPbJjyJ5kF+CAprjA5jdyJXrzd8LW/XahSmj6qCZf1DEdzpFUw/mAI97NBq1HSMqrIM/UOD0emV6Tho5esNFLb2cLAx/q10coKj0gGOTsYkKp0c4SCtXavV4OrV60jd9CE6tmiBFtKn5aO/Ij6oKjylWbXx15DkXhXVXAyLyQvC0UFhGrBGDmLjkuBTs9btPoZKXwQFOiElIdE0ohiFHZxdHEwDKlSt6gtF6k0kxF3F9dRN+LCjMZ0tWj6KX+ODUFVOaHHaeFxLckfV2wmHk6MDDCnXXsXV66nY9GFH43patMSjv8YjqKqnNFcOrsWnwjswEE6G5Uqjx41tE/Bk8yD4BYWhcYex2Jmrh/5WNwAlXAOqwbsgaZa2aSmtVqmE7j2bIWH3NpxN3o2dZ+qhU0cPuHbugTYZu7HleDr2bz+ESl0fRj25Pljc/ztnvv6WhwK29g4wVVnYuzjDVqeBxmJ6tRbqrxbx15LgXrUabldfqd5bnbHlq7tKn4fRq/kNbN14Cql7tuF4vefwSW9/HNy4A6mRG7D1elv06eFeMHfR+lEG7dVy1P3SKGxhX9AgwB4uzrbQaTTlqw9lzausjsGjh8Br59/YV/s1fPiQp2Exg2LHdUCA8bi+aegaXDQ/LO6vXSuMmj4KVZb1R2hwJ7wy/aDhjS9l1z/ryrNwuylVQjjb6iBnU+nrV8Le3g7Q5ENtGCYiImuVeRZTbx+Pl6emYeDaKFyNicKpKT3hXHAiV1ZG549X4Oylvfi6/gl88uQH2Jgjj+6Mj1ecxaW9X6P+iU/w5AcbjbMrlchXq2/1hZUCd9Nf5aGCi4sLvPr+jIiLF3HR9LkQsQBDApVQOrvAISsNqXf8kJGddIK2Q0ZK4ZNYNlJS1fDw9jYNW6JHamoG4OaJSm4ucPHqi58jbqfz4oUILBgSWDLjlc5wcchCmrmEq6T1uHih788Rt9dz8QIiFgxBoFI6uTvZIis9zXLQp96O8S9PRdrAtYi6GoOoU1PQ81ZBmmFpmzYW0moVJfx79ET9qB3YsGI7jlXrgM4BUo54dkP3ptewc+NybNlvg84PN5NKQ2Jx/w0rLJ1U55T5aqhvV7rbfbFLqb93zWJ6LdVfG0OglpWWaurfWl7lrLtKf/R6pDEub16DxZsOIaBjN3R5uDOcd6/HklVbcKlVLzxUqcwmwiyVtI9W1/3yKk99KGtefRLWzliM9LbdUCf8N0zba3p+owQdkpPTAHdPeJp55tTy/ipRufPHWHH2EvZ+XR8nPnkSHxgbyjLq3122RaWuX4/MjGzA2RVud10YRET/LWU2m9qkRKQ5BSGshrPU3ibj0KELt4KQvOiTOJOqh8qzIfoP7gb/7BSk6vIQffIMUvUqeDbsj8Hd/JGdIj/wJQVL/t64eXQvzuZJp6H4dRj9/TYYH/YrDzu06tQS+dsWYnlcQXihQ3pCkuGBGLsmLdFIuwfL11yXTg86xG8Yi592WNqKEg6OtkhLSDClxRFturRE7ubfsTDaOCbz6AzM3VcFPfs0MQyXoLuO1d9NwxH5YbeccMxbcgK+7TqhfttOaJm/DQuXx90KhHTpCUgqeMCpMLsmaNlIiz3L1+C6dJbUxW/A2J92GNNk1wqdWuZj28LluL3L6UgwrMgBLds1QeamBVhpeHVXPi6v/Q5zjxTbZ20SEtOcEBRWA85SziQfOoQLt6JJMyxt01Ja5dni1uKr9ydi4603ZJSkqvkQutc6iZmTtsG+bReEynfMpECuR/d6ODf/a6xK74CH25ru9lncf8uU/v7wvnkUe42VDutGf49tpoSar7/yQg5wtE1DQkKxPLSWxfRaqr92aNKyEbR7lmONMWOxYexPKL363m3dVSGw9yOof2Y2JqyzRbsuteDUoic66tfhi+mn0bTXI6hiZWCldHCEbVoCCrLMrlU56r6k+PIWlac+lDFv6qZPpSC2Pj77YymmvQT89t5EHCpYTZHj+iT+/PskfKVjOqTg7m4hFvc3Lxonz6RCr/JEw/6D0c0/Wwp+daXXv1vuoC0qpPT15+JybCJ8atSU2gId4tZ+hfcnboSFw5WIiAoYe2yUTpe8QbzT0ENUqd9RdGjaVPR6oY8IbTxaHNboROLiwaK6d5Bo0rqZCPb2Ea0/2SFSdYli8eDqwjuoiWjdLFh4+7QWn+ww9r7VnPtFPBbgIDyqh4oaQS3Eqx88JWo1HSOOaoTI2zBMVK/1pthu6o6rOfW5aO7RT/yZaRwWyb+JPh4txZdntEKoz4jZA0OFh4e07bZtRfNQf+HXaaI4ZejIlyH2je8gvB29RXBYkAhsPlR8OCBENBtztFg/vwI6Eb9ggAhw8BRBISHixb+kDeaeEjOerC1cXQNEaIPawsc9QHQdt10kmusPmLdBvFKjkXjixfaiml8tERLgJtzrvyqWGjo/qsWZ2QNFqIeHCGrSVrRtHir8/TqJicaElpCxb7zo4O0ovIPDRFBgczH0wwEipJkxf9RnZouBoR7CQ8rXtm2bi1B/P9Fp4injPmUeEpMeChDOnjVEvdAA4VPnGTEnUsonKW3DqgeL4dukTNUliw3vNBQeVeqLjh2aiqa9XhB9QhuL0YflNeSJDcOqi+Dh26S/brO0TYtp3f2+CHVrKEYb+k+XRi0Ojm4oHGwDxMurCzpoSuV+4jPR3NFW+D73d5E+2xb3v5jCfZylSid+eSxAOHhUF6E1gkSLVz8QT9VqKsYcVZuvv/IKdPFiwQBpGc8gERLyopCrREnGPKv15vZbeSb3p/apO0rsl3bbYnot1d+MfWJ8B2/h6B0swoICRfOhH4oBIc2k9Jrb07usuzJNhJjQ2lHYBr4qNhieFEsTywb7ChuXruLHS/KDmTIz9aNw3ZLo4heIAdKx7RkUIkJe/EtklrPul1jesP5a4s2CBsHwjISPqDtqv6E/d3nqQ6nz5u0XHzaoLLpMPWtcLnmNeCXYU3T5/qLceVi85F9ZtOrVXgRKx3Ud6bj2aPCaWGY4rs0dL6Xvry5xsRhc3Vsa31o0C/YWPq0/ETtSS2k/i6+7jPIs3m5KlVAM8qkrRu3PLb1+yw8r1qlk7MsupXv3+6HCreFow3MrRERkmUL+jymGLl1+EiLDo6H2b4CGAc6mkUZ5CedwKiodDoH1Ub+ai+kWdh4Szp1CVLoDAuvXRzWX27et9FlxiDiTCJc6TRBs7jtPq+mQGXcGZ67mwKFKMMKCK8PeNEX+KjI99hTOJ7midpNgeJW5GR1So0/gXLIbQprWQSXDHSUd0i5H4Px1HbzrNECtSoZOAxZI24w5gbPJHghpLG2z0F0pXWYczpy5ihyHKggOC0bl2wktQZ8ei1Pnk+BaW8qf4gnXZSLuzBlczXFAleAwBBdZUR5unA1HTG5lhDauafbrZPludFJkOKLV/mjQMABFS7IUFrZpMa33gsX9v017ciyadziGt+LW4WW5y6o+C3ERZ5DoUgdNgj1ROKXm669El4roE+eQ7BaCpnUq3erHXC4W02uh/urTEXvqPJJca0vp9SqS3pIqou5WDF1qNE6cS4ZbSFPUMSakXHXf3PIWWVkfDMozryxPqju13oDNb+cwqc45s8e1OaXub14Czp2KQrpDIOrXr4aCJrHU+lfEnZenufVrw8ehVbdTGHFuGV6obH6LRERknnWBM9EDQYcr+5dixW9f45P9PbA5fDLa/DMxI/2/uRU4X8CvD5URZD9Q8nHoo2Z48trnOPXnEyj0KCQREVmBtxvo/4gOCcfWYWtaK3w58yO0YtBMd8rGH42790Bj/3/gm5R/VA70oUPx87jHGDQTEd0B3nEmIiIiIrIC7zgTEREREVmBgTMRERERkRUYOBMRERERWYGBMxERERGRFRg4ExERERFZgYEzEREREZEVGDgTEREREVmBgTMRERERkRUYOBMRERERWYGBMxERERGRFRg4ExERERFZgYEzEREREZEVGDgTEREREVmBgTMRERERkRUYOBMRERERWYGBMxERERGRFRg4ExERERFZgYEzEREREZEVGDgTEREREVlBISSmv0tQKBSmv4iIiIiIHlwWQl6rlRk4V8RGiIiIiIj+LRUV07KrBhERERGRFRg4ExERERFZgYEzEREREZEVGDgTEREREVmBgTMRERERkRUYOBMRERERWYGBMxERERGRFRg4ExERERFZgYEzEREREZEVGDgTEREREVmBgTMRERERkRUYOBMRERERWYGBMxERERGRFRg4ExERERFZgYEzEREREZEVGDgTEREREVmBgTMRERERkRUYOBMRERERWYGBMxERERGRFRg4ExERERFZgYEzEREREZEVGDgTEREREVmBgTMRERERkRUYOBMRERERWYGBMxERERGRFRg4ExERERFZgYEzEREREZEVGDgTEREREVmBgTMRERERkRUYOBMRERERWYGBMxERERGRFRg4ExERERFZgYEzEREREZEVGDgTEREREVmBgTMRERERkRUYOBMRERERWYGBMxERERGRFRg4ExERERFZgYEzEREREZEVGDgTEREREVmBgTMRERERkRUYOBMRERERWYGBMxERERGRFRg4ExERERFZgYEzEREREZEVGDgTEREREVmBgTMRERERkRUYOBMRERERWYGBMxERERGRFRg4ExERERFZgYEzEREREZEVGDgTEREREVmBgTMRERERkRUYOBMRERERWYGBMxERERGRFRg4ExERERFZgYEzEREREZEVGDgTEREREVmBgTMRERERkRUYOBMRERERWYGBMxERERGRFRg4ExERERFZgYEzEREREZEVGDgTEREREVmBgTMRERERkRUYOBMRERERWYGBMxERERGRFRg4ExERERFZQSEkpr9LUCgUsDCZ7gE5v3V6PVRKpSH//2k6nQ5ardY0RPeanZ3dv1LORERE/yUVFdMycL7PyIHr3oNHkZiSgnYtmsGvSuV/NLBat24dPv/8c6hUKtMYulcqVaqEv//+G46OjqYxREREdC8wcP4/lph0E+OnTIN3JS98NOJVONjbm6bce6M++ABLpWDu448/NtwNpXtHDpifeOIJ2NramsYQERHRvcDA+f+YfNf5yMlTqF2zBip5epjG3nvydns+9BD8/fwxe/Ys2P+DATsRERHRvVJRMS0fDrwPyd0kWjRuCC8Pd9OYf8aNGzcQGxuLli1bwMbGxjSWiIiIiGQMnO9TcvAsXx39k86ePQutRoPQ0FAolawaRERERIUxOiIDvV6Pc+fOGfrdVq9e/R8P2omIiIjudwycySAvLw+nT0fAx8cHAQEBprFEREREVICBMxlkZWUhPPwU6tWrBycnJ9NYIiIiIirAwJkMUlJScPHiRbRq1bJCumnIT67K3T/kH1PR6nR8OwsRERE98Bg4k0FERIQhuK1fv6FpzJ2T15OTloCl8+bgyy+/xMQpP2Dv8bNQa6UA2jQPERER0YOGgTMZAt3w8HAEVq+OKlWqmMbeOW1eBmZ8+ym++PZHrFmzCj9M+gLPDX4Dmw9dMPycOBEREdGDiIEzIScnx/BGjZCQEHhUwLujUxMu49zlHPz61wrs2L4N338+EpqkCGzYcxT5WgbORERE9GBi4FzRhIDQ6x+oPr03b95EfPw11KtbD46OZT8YKO+bpX10dKuMYR+MQ8t6NeHm7oWH+z6BNkF+yNdopYVNM90H5PTL/bAN+8M+JERERFQGBs53yRB8afKhS74J7aVIaE4cRN62zciPjJaCy/s/GpPTL/9iYHJyCho3bgSlsuSDgYZ9VKuhS0qENuosNEf3I2/rZmji4s0Gwq5e/mjVqA5sTOvSaXKRo7BH7eAAqFT3T5VLuR6NdWvXYN+JS+xCQkRERGVi4Hy38rORt2Q+sj4fg8xR7yJz5EjkfvMttKeumWa4M0Kvw/G9q/H6iHdxMjbVNLbiyXdcIyMjDf/Wr1/fNLYokZOC3N9/QeanH0v79w6yRn2A3O+mQx9Tdrr0WjUObNwAVfXG6NulFexU98EPq0gXAnnpCfhhwhg8N/h5TPpzM9Q6Bs5ERERkGQPnu2XrCLuuXaBws4G4ngjkqgE7R9g2DAXuKkYUiL0QjsV/L0f0jUzTuIqn0+lw9Ngxw4+eyD9+Yo7CwR32D/eQdicHIiEFUKul/fWEKiTI4j7K3Tnizh7Cb5uP4YXhb6OOr9t98YuEOm0+di7/Hb/NXYWMrBxDv+v7IJwnIiKi+xwD57ukUCih9KokBZf2cqxroPRtAJtqHsaB+5xaCoJPhYejQYMGsLOzMxvYKpQqKH0qAyob0xjpz8CmsPFxNg2VJHfvSIg+iY++noNOg95Fn3b1DcGpPP7fJIQeUSd2YezkX3A9N880loiIiKhsDJwrgP5mAnQXI01DCti0bgyFve19cXe1LHFxcbh+/ToaNmwIW1tb09iSdJejoI+PNw4oVLDp0Ez6p5T9k4LTrBsXMfWzH9Cw69MY8khTaHOzcPLILkRfTzHN9M+Tg/bslGuY/u23ULs0QVtpn3kAEBERkbUYN9wl+Q6m7uoF6GNuGkfYe8Kmdi3pDz1Efj6EVifPZJx2n5EDyYtRUkCs1yM4OBhKpfnqIPQaaC+cgUjMMI5w8YNNcDVp3zTGfZT7B9/aR4GbsWcwZugw/LVzN84eWI2PR76P114dhrc+mYlM9b/Ul1hKn1adhUW//YSNF7MwdsII1AyuJJWS9fQ6gfx8AZ30r0zOv9sfw6iipHHyA6JCK3000kdazux8RERE9EBg4Hy3dPnQnjwCyAGyROFbVcrVDOQuX4ic32Yid9kaaK+nGIIrcwxBlxS4ysFr8Y+8hDTV7DT5Y1jWuBqz5OlyH+bSti1Pu3ghEo6OjqhevbppbElCnQPtqeNS5GhcjzIoGPq0y8hd/Cdy5sxG3tot0KVkmrYjcOXiaaS7+6Fdh1bQ5qQhLS0NOqjwyBP9Udvv3+nCIqft7IEN+HnmYjz+7Aj0aF4H1n4hoJMC37hoHZav0WL6fA1W7tQi6pIOa6R/V23TYtsRHXKkwLiAnA1ykKyJ0yNvtx45q3XIXqZD7hY9tNekcnsA3rZCREREJSmkgKLUs7jc1cDCZJLo0+KR+eF70J2KMo5w8YLCXQVxLck4rLSBTae+cH7vDai8S/64iF6vxZn923AyJtE0xkgh9DiycwV++Xs3nnvzY3Su62uaYiQUNmjUsi0a1K4OM2+Qg1arRezly9i8ZQu6du1q+HGT4jIyMvHOO28bXke3ePFiuLq6mqYUpYs/j8wR70JfsE+eVaCwU0MkpBmHbR1h+9hgOL86GEpXR+O4+4lUh9OvX8TLQ15EVpXmmDV1AnwdsjH0xUGYt2IPHnrjeyyf8iqc7G734S6gyRfYt1uLnxZrcT4B6NFGgeQYgXxp2pFYadXSv61aKjB9tB28HI3XodoUAfV2HdQH5DvxgF07JUSaPE7Apjbg+q4tlG4KqwN3IiIiujsVFdPyjvNdEdBevQTdDSmiKmBrD5sWXaBqanqrhhQYaw9tQf6xC8bpxQhp+tZFc/Dxxx8X/Yz+BPNXbEN+djqWzZ5aYvrojz/Htt2noS9WCeS7yAkJCZg3bx5eHDIEH374If6YOxd5eSUfhMvKyjK8iq5xkyaGBwPNE9BcPAN9erppWGLvAtuOD0NZJ9A4rMmFZuc6aC/c3Sv47pV8dSb+nDYRF5Iq4eOPPkBAJRfTFMs0GoEdG7X4YpYWJ64AD/VU4pM37PBQRxVOSkGzzMYWaNxQCVc7qbClotAm6JH9hxa5q6SgWZrm/IoKDh2V0CdLE6VRunjpH/lvIiIieuAwcL4L8ruWdRfOA0mm18XZesDhxXfg/NYIOI14DQov0x3cPDV0502RVjEKpR0eHz4af/wxr9jnD7z7cj84unvj1THfl5g+d+6v6PdQC6iK3baUg+YpU6YgLTUVgdWqGYLjeX/+ifPnzpe40kpMTDA8GNisaTPY2JS82yrT6/KgizgrRdnyPVaJvQ+c3vkETsPfguMrzwIuDsbxGZnQRl83/n0/0WtwdN0iTFm0C6+Nfh/twwKgtOJWr9yd4vxpHb5dosWlNMDHH3i+jw0quSrg7KAw9I2Wc1P+ocXW9VWQf9dFn6NHznIdNEelKdL/HR9TwS5ECZEhBdQxhtUaLqYUpT+DSURERPex/2RXDb1Oh/jzp3D2WqL8Lb71VPaoXbcRavh7SvGPgFBnI2vSKGjWHzFMVjbqAdfxn0BV2Rn6rCvIePFV6OOTpAn2sOv/Nlzee9owX2Gl5a98J3rVH9/gpU9mY9aK3ejfynR3t5jib+7IyckxBMP+/v4IDw/Hc889h5iYGLwybBi+mzrV0J+5wF9//YXx48dj0aJFhrdqlHwLiIAu9TqyPh8J3SHjHXNVp2fhOu5NKB1soL18HJnDR0KkShcOtm5weGMcnJ7pZJjvzgjkpt40pDtdbewzbi0Hz0C0bRYC22K/THjl3EG8JpWDS6uXMOOb1+HlZLyzrsm6caurRs/h32PFt0W7amSm6THh23wsPiKgVAHPDlDh40E2sJfy6PffNZiwVGcInOs3BKZ/ZI+qHgrkbNIjd5GUbo2UHU0UcB1uA6WzQspDPbLmSxdZVwXsWygNAbXSVo6gjdsiIiKie4tdNe6CfBd17cyv8PST/dG/fzk+g17Gir3nDQGT/B99VgK0p0y3EpUOsGnUDMpKznLpQJ+RCqGRIqgC9ua7QsgFWdrHMN2KeQpzcnIyvCFDDpCbNWuGp59+GiqVCsuWLsXJkydNc0lp1+tx+vRp+EkBtnflymbXJV9ViKQ46C+aXkNn4wq71i2gsLcx5IE+PUXuG2KcJi9vpo9wed2IPIz3hz5rPv8tfF77bDay8osG25qcFEz5djL2XHPCi092RGr8FURHRxs+ly9dQlZ6hmEf06/fRNSly4iOjUe+Vn6YEjhzQo/tZ4wHmJsr0KeTCvY2CuTnA4cOGYNmWUgNJbzdpeBYuj5SbzMGzZCK2q61EgonY54qpaDa9RUbuI+xhdPjKuMdZzPZTURERPe3/+YdZ70WF47vweGzV0xjrCOU9mjapiPqB/vJK4H60ErkjJ0CZKkB10pw+nQqHDrUk/JMmrZ3BXI+mwzkaAEHFzh+MhWO3Zua1lQ2+Y7zyrlf42X5jvPKPaXecS7L+chIPPXkk4YgedCzz+L3OXMM/ZnT09MxdOhQeHl54ccff4S9vb1piduEToPcNbOQ9/08KSqU9sOnOlwmToNdqJ8hfbnLfkHeNGlavh7w8oPzBGk9jWuYlr4TAlnJ17Bj526kZGkNsbh1BJwq18KjPVpLwa3KNA64GXUYj/V7CgfOXIOjQ9Efd5HLKF+thk4v31G2la5rbGFXoysObfkTNTzc8NUPGvyxU+6QAbRuq8D0kfbwcALOHtThqS+lfJGL1REY974NBnSwRe4uLXLmSPNLgbXCC3D/3BY23oyOiYiI7gcVFdPyrRp3SK/NRe70r6BetEGO26Co0QRu334Nlb839Oos5MyYgPzFWwzzKqo2geu3E2BT3fxPWptTUYGzRqPB9z98j0/HfGp4a8aCBQvQvXt3Q/eNZ6VAesCAAXj33XdNcxelz0tB9vhPoNlh7IqiatwNrpM+h9LVHvqsZGRN+Ajanca72MoGPeH69cdQVTL1674PpMWGY+SHnyAixvQ2kMK0+bgUfRE307Ph4hWIkGBf2Ae0xIJfJ8BR7YJhI9U4Jb80RIp9XxuiwrtP2kKXLfDpJA2WHTEG1D5VgDnf2KOenxIZs7TI32Ecr5Suqzy/sYVCfmCQiIiI/nUVFdPy4cA7JLJSoY08awiaZar6TaDwcDP8rU+6As0uY7Bp6N/c9WEo/SsZh8tBARXsVLZmXzdnLfnXAAc/NxiNGzfCzZs3MWPGDMN7leVX0CUlJSGsbl3TnMUJ6BOvQhdb8FCjlJrmbaBwtDVUPN3lc9AeO2ecZOsO+0ekffQo/Se4/w3uVevj+1l/YfPmzSU+G9YsQo8OjaTdUqHJY29j9bqN2DDvG1Sr5ILUFIGYbOM6lLZSgOwp7btUBgcO6rA9XG/4W1azlgI+TkBunoDIKXQwykfV7RvfBvLDhnp5Pr7DmYiI6IHFwPkO6W9chq6gq4eNG2xC60PhIAWV+dnI37gKIjFdCsqUUDVuC/vHu0sBWLFIqhA5EC15FaREvUZd8enIUWhQreT7n40Ru3VBWOXKlfHWW28Z7jhv27YNW7duRcTp03BwcECt4GDTXEXJP8qii74A/RXT3Vp7H9jWDZGSpYTITUfemhVAplradzvYdH4Ydp2aSzHo/VWdFCoVXKR9dnd3L/FxdXOHrdw9RboCdXSxh4e7K9xcnaXdU0CTb+hxYSB0QEqawIkjOvy4VIs0aYL8w4HyxUzLUCUOScH03/u00BXadfktGpoo4w+dyOWqzxXIlwLu7JVa6LNMMxEREdEDh4HzHRHQnD0G5Bm/mlf4SEFlPfkHRjTIP7ABeSs3SpG1gDK0OZyGD4fK13gn2hy9XoeYM0ewbt26Ip/1GzYg8vpNBAYH4PyxPSWmr1u/CRfjkkq8x9kc+eHAXr37oH379sjMzMSvv/6KzZs2GR4i9PT0NM1VjFYN7flwaZeM61fWrAlVUIC062qoNy2CZssBw91aVfMucHr5eSg978MfPrFS8Rv68pv5Ct4YJwfOC5fp8PY0DSoHKOBhev5RzvazZ/VYsEOL6lUVsKksrcV0NAkpOM76Qwf1fj3Uh6WAeaEW2Yt0UHkppIsr4zxERET04GHgfEekqEmtgaKylxSVKiD0+dDGnkfu3/OQ89MvQK4CqnYPwWnkh7AJq27oV1MqvQYrf/kSTzzxBPr161fkI4/r3/8Js9P69Xsei9ceKfgV7DJ5uLtj+BtvwMXFBfv37zd0VwgNDYWzcyndK4R0UaCXAj0vd0MtEbocaC5EIOePGcidvUCKLl1g+8hTcBrxFlSBPpb38X4n75/pTzmMruKrQDP/2wF1thpo3lqJAZ1V0JpmlP+JuCTQu6cKrWup4NhBCVUdaaS8kDRRHyMFz7/qkPWLDtpIAcdeKjh0Mr2GjoiIiB5IfDjwjshfv2dBd+kCNCePQRcbDyG/Ck0nBdOuHrBp0Ap2bVpA6eYMRRkdlOU3fBzdshxbj5l+sttaCkd06vko2jQNtuoHPWTymzSGDx9ueH+z3Pd5+vTpePHFF6FUlrx+kt86IbIyoL14GtpT4dBeTZT2TwqmNWoovarAplkH2DVrCIWz/QMZNOs12Vi/ZhVORcahduuH8HjHRrfeAa3XCZw4rMOSTTpkKvRo0lSJfp3toMoTmLNIg0gpKyr7AF3aK9Gung0c7eSLJwHtFWG4w6y9LB0zGike95CuL2oqYNdICqp9pIuQgs7RRERE9I+qqJiWgfNdkR/2kgJM+eW+WtM7hKWAVGFX9NVn9wv53c2HDx9C//5PGoYXL15s6L5hmbSPOp1xH+XAWWYnBcvyfv4fx4Fy8Cz/SrlUunBwUMBGDnqlQ0GdL5Av/8CJnfxqbikYNs1fQEjLCbX0h5xVNtIxJM1X1sUTERER3VsMnKnc5LLMlwLgL7/80vDrfLNmzkQVX1/TVCIiIqL/TwyciYiIiIisUFEx7T16OND4Gi6dTg99safX5PHymyR08tf/DMqJiIiI6AFRYXec5fl0GjUyM7OQlpaM6zeSEC99atRrgiZ1qhvejyv3B069cRkHjxxDSpYGTVu1Q2jNQMM0IiIiIqJ74b7rqqHX5ePQrnWYv3gtTh47jBNno6DV6tDskdexauEkVHayxY2LJ/DlyJH4c+sB5Gn16DV0NP6cMgaujqaX4xaj12mQlZUFrfyLE+WgtLGDq4szVAzIiYiIiP7z7rvAWX59WXpaCm5cu4zpE0ZjxuIthnfeOnn64/f1u9CjhgJfvT8cM5fvQo5Ga/jhjs4vfIRlP42DhxRUlyRw8/JpfPPV14hKzDGkxRpyar1Du+Cr0a/Ax/XB/VEOIiIiIqoY913gfJseZ3f+jUf6voS4jBxAaY8X3pmA5m5xmL3+CJ59/mUo81KQmJKObn2fQdfmdWFj5j3CcgicEHkMH438AGcTs03jrONd/1HMnvIe/DycTGOIiIiI6L/qPg6cgezkq3hv0BOYufmIYbhyFT/UqBmGDydOQa9W9aFSGB8eVNnYGH58o7R7yXpNPjIyMqHRm94fbCWlrQM83OSuGiUD8rS0NMMPgRDdLxwdHeHj42MaIiIioop2XwfOQqfG4p/HY+jIb5Ct0UNl54A3J/2OyW8NgO2/3O94/PjxmDx5smmI6N/Xq1cvw4/REBER0b1xXwfO0kKID9+ILo8+iwtXU6Gyd8TIHxbjq2F9rP55aJn8i3X5Go2hP3R5KJQ2sLezMaS/uMTERNy8edM0RPTvc3V1RbVq1UxDREREVNHu78BZok6JQqv2DyH83CVpSIUOT76LlfO/gZe9yjhDmQSSosLxxefjcSEpxzTOGgpUCu2JqZ+/hirufDiQiIiI6L+uogLne/IDKBp1DjauXI7k5DRT/2UdLp7ejRMXbxjuHgu98U5yWTugF1pkZqZLn0zDa+ms+kjz5+Wmyz/BYloLEREREdHdu+s7zvJr6HLSk3D+QgwcPXxQza8SDm5Yis+n/IWO7Rrjj19+QHyuFkpbR7z22Y/45t3nkBp1HOuOJOLZQb3h5mDuVXRGWo0aKcnJ0Jbr2UABla0DKnl5wkZ1j34YkYiIiIgeGPdNVw1Nbjp++Xgkvl+5CfauleBfxQuJSekY9O6nGNItDEOffAxrD0ca5q1SuzE+ef9NnF6zBH5dn8cHbw6Ak535Hz8hIiIiIqoI901XDU1eOjYePYpLsVdw7vRJHD51ET1eeBuvPf0wKvsH4fmn+8HN0XhXOSEqHJ+PGwtN3c4Y+vxjcLS1tr8zEREREdG/667vOGvVmVg4aSJ+27wbdi7u6PfsUDzT7yF4OjsY+jdnp8ZjxpQJWLs3AlA5ossjj2HYS8/D19PFsH4iIiIionvpvumqIU/X5OfhZnIqbOwd4enuDhuV4lZQLE/PV+ciNS0dUNrB09MddjYqBs1ERERE9I+4bwJn+v+i12mRnZ2B5JR06HR6ODm7Gy52SnsvNhEREdH9rqJiWr52ggzkypSXeRN/TfsGrZs2RL169dGwYUPUrV8fL70zGgfPxkIrBdK8jCIiIqL/Kt5xJgM5aP5h/If4atoC2Li6w9vTA6nJibiZnCZdXqlQvUkX/DjtR/RqGQrVv/yz6URERETlwTvOVHGkinRu30bMnLsanZ56GX8sXIRVq1Zh3qyf8HibxrCHwOVjWzFl4nQkZuaZFiIiIiL6b+EdZ4LQZOPbEW/ikG1t/DD2TfhVcoN8U1nu73zt3FG8NWwYVh2IQJWaDfD32k3oEOZnWpKIiIjo/sc7zlRh9JpcKKtWw/tvvSwFza6GoFmmVNmgat2meP7Zx+HuYAN1fj6ycvKNE4mIiIj+Yxg4E5T2Hnjp9ffQvGZlwxVZYQqlLWrWqQNHZwdD32ZbG/NVRugF0pIFThzXYf0ODU5F6ZCaJnDhsg7no3WIiddBK81DRERE9KBiVw2yTOixe8k0PPnKB/AKewTr1v2JYG8X00QjvRQQnw3X45dFGhyMEggLUiA/V6CqlwLbzwu5CzU6tFPgqzft4WrHBwuJiIjon8WuGvSP0GlzEXH8NDJz7dB34CBUdXc0TTHSawWO79Hh46n52BAu0LCpEuPft0WTmiqsOyqQnglkq4GAako4GX95nYiIiOiBxMCZSiWEHolRp7Fy9VbUatsDz/XrArtCXTXkK7foi3p8NU+D04mAZxXgjYE2qO6jRCVPQIqpDe99dnICWtVTQlmsGwgRERHRg4SBM5VCQKfOwpr5cxCRbo+3PvgIYdW8bvWBlr/tUOcIzF+qwYmrcl9ooE83FRpUV8q9O5CbJSD9YxBQFahVRQmGzURERPQgY+BMZuk0+di3YTFm/L0RA14bjqe7NIJKjo5N5LvNZ47rsfGEsb+QlxfQo7USdioFsqWg+VTk7V8ZbBCqhJcbw2YiIiJ6sDFwphKEXoeLx3dj7KRfENZnGEa+8QI8nOxQuKeF/PDfql063Mw2DtcKViDET2W4qxwbpcehGON4B0egcYgSjjYMnImIiOjBxsCZipCD5usXjmP8mK/gWr8nvvjoTQRUKvoWDbmbRnKiwPEI/a3uGM3qK+EqBcly941lm3XIMk3w9ASahMn9m43DRERERA8qBs5UiEDy1bMY//7HuOHVDBM+fQ81fdxvPdQnd8/Izc2BRq9HghQ4x6QZRkNpB1SrooR8U/nkUR22nNAbK5Y0HFRDgQA3JXR8hzMRERE94Bg4k4lAekI0vvrwI5zWh+Dbrz9Eg2qVbz3QZ3jDRtw5fCJNPx6XgpxcIOfWNECnM3bRmLpIi/gseW2A/AKO9s2UiIzQYecp3a0+z0REREQPIv4ACklRrhwUR+DrUe9h9vpI9H56EJrVq3Lrqkqj0eD69Ws4fewgkpybYNOSH3DppC0Gf6W5FQyH1VZAfsOzUAlcuABk66XAWQUMeUKJC1JAPeAZWzzc2IZv1iAiIqJ/XEXFtAyc/+ukoDkp5hQ+futV/LnpCPL1zlAp84o8CCjT6eQ7xg54d+IsfPPeQFyNFHhpdD5ic00zSPO3aa/A442UGD9Dh2ydcbSLMzD0eQVe6WUHJzt+wUFERET/PAbOVCHkhwHD963B55NmIVutMY01z8nTHyM//QLt6lWFNg9YulSDhTt1yJfi4UZNFHj9KVuIZODLGRrEZgi4eyjQ9xEF+ne0hbO9wlCfiIiIiP5pDJzp3yVVC51W4GaigFYl4O2tgL3cqVkan5amR3o24CEFzm4uUsBsWoSIiIjo38DAmYiIiIjIChUV07LTKRERERGRFRg4ExERERFZgYEzEREREZEVGDgTEREREVmBgTMRERERkRUYOBMRERERWYGBMxERERGRFcp8jzMRERER0YOuIt7jzB9AISIiIqL/a/wBFCIiIiKifxADZyIiIiIiKzBwJiIiIiKyQoUFzukRyzDxrWfQq0s7tOvSB8+9NxWrzmaappqThoO/j8cX847C0lz0X6BH8rqP8FDHfph0KN80joiIiOj+UgGBcx7OzHwKTVs8jS/WxMM1pCVa1fXCzc1f4alWPTDhpNY0XzG6eGyd/iW+mLkDiTrTOPrPyku8hMgLF3AtTW8aQ0RERHR/uevAOe/QBDz/zgpkdpyEXRG7sfiX7zD153nYeCoSe759FNVsTDMSlUqJgCFLcPnGGfzwkINpHBEREdH95S4D5xSs+v5XhKMNRv30Dpq5mkbLlJXQ6tVP8Hz9O4yc9WkI/2schjzcEmE1qqJqjXpo/9THWHI+zzQDoA2fjTdfmYrdNyLw53u90TQ4EDUbdcdrM48i3TSPQdZpLPjgCbQOCUS1Ws3Qo/9ADBw4EINe+BIbU/RA/hFMf/UljFt9Dbfvd+pwedkneOnN2aZhOUnh+GvcEDzcMgw1qlZFjXrt8dTHS1AoSWVvy0CH+J3f47VHmqNOYDXUrN8RA8etRLTaNLkUuvid+P61R9C8jrTumvXRceA4rDQtpE/Zgq+GvID35kbg1mp0cVg57iW8PGkH0qRB7clZGD7sJxxMOoHf3+6N5rUCEVSvEwZP3I7rt3Zci/DZb+KVqbtwaet49G0UhOoNhmJxgnEGS2mQ5V9ahXFPt0NY9aoIDGmO3m8twLmCLx3yL2HVuKfRLqw6qgaGoHnvt7DANFEuy7de+gTLLt/++kGfuB8z3n4cberWQLXAWmjU5VmMXXIWWabpt9O6Gzci/sR7vZsiOLAmGnV/DTOPFqkBRERERHdPfo9zacqYLETuKvGCj1LYtv9WXNKaxllLe0Z80dxW2LabJKLMLKuLmSI6V6krer/xhfj593li9uQ3RIcqKuHQbJw4rjHOk/33QOFhW0u0bBEgqnd9XYz/drx4pa2PUNlUF6+szzDOJJLFqpeqC1vvduLtX5eLNYsmi2frOQmVZ2PRd+gksTVZJ0TmXPGYva2o//FhYVq1RC32vldH2HoMMA3rRMyUzqJK3d7ijS9+Fr/Pmy0mv9FBVFE5iGbjjpuWs2Jb0nqSN7wlwpzcRINnvxHzV68Wf015STT1sBPBL68SifIsZuiSN4i3wpyEW4NnxTfzV4vVf00RLzX1EHbBL4tV8kK6q2L+k37Cxq2TmHxGTo1OXFvwlPCzDRQvrkiUhm7nV9PGlYRf6yFi7ORvxPt9aglHpYfoPOWMMBZDtvh7oIewDWkjWgbUFo+O+kZ8Ofp7sTXFijRojovPmjkKt2ZDxY9L1ohV86eItweMFqsz5fVqxPHPmglHt2Zi6I9LxJpV88WUtweI0caJprTVEe/uURuGReo28X5DZ2FTqZkY+NFE8d23n4qX2wcIW1UV0efXi0XTWqulaBFQXXR9fbz4dvwroq2PSthUf0XcqgJERET0n1ZmTGuluwqc5eC2o51SVHlxtcg1jbNaGYGzEHkiN7dwFKkVkd+0EbZ2HcXUy8bxhmBLaSdqv7hExJrWoYufJXq72YiAYRulNUiyl4pBnrai0acFwa0UJy8fLHzsmoixJ01jrAqcJXm5omiSIsU3bWyFXcepwpAka7alPSu+au0gXLp8X2i/teLsV62EnVM38VNs4Q0UkKe3Fg4uXcT3hTJLe/Yr0crOSXT7KdY4fGmm6O1tI7x6/SKiE1aKIdVthf/TC0W8aZXG/LIRVfv/JiINmSNRHxVjGtkKmzrvib2GmNUYjCqUbqLTpAhjHhqUnQZd/DTRzc5OdP/5uiFQL0IXL6Z1sxN23X8W183sYtHAWdrW162FvW2IGLE9zTiDLPeIGNvMXtgEDRfbjIVrSKvSrrZ4cUmstJRMJ+Jn9RZuNgFi2MbbqSciIqL/rooKnO+qq4bIyUWuUMDewREV/+Pc9nBwkJOnRfq1C4g4eRI3tQ5QiCykZ9zuUAFVEPq83BeBKuOgsnIjNAxUICUxUVpSostBtloBN3ePW2m0dXSArchGZmah9VjD3gHGJKXj2oUInDx583/s3QdAVWUDBuD3TvZGpgqIC9xb3DNnmWWWlamVttPsb2tmWZrmKs1VOdLce++JEwQHCKKIIiJ7jzvPfy5cFRx4UHPk+/z/Tc66Z33n3Pec+53vQm8pg5CbhaJFkjAvY/Ju7Ao3wKdWJaSFhSAkxPQKQ5ZjRThpo3AiUlc0XinGZOzeFQ6DTy1USgszTxOCsCxHVHTSIupEZNFoCr83MXFEGxi3fYuXegzDovxu+GF8X3iW3MuKKnhp2OuobmHuVtdB145+QFwYQs3VMUwUXn3xxQe1xb1gJmEZ5E6BCKhoRPBvwzF9X8KNKiMmcicEBlSEMfg3DJ++DwllVUsxXsXO7WEw1uyD/q0dzD1FlvXRt1dtyBIO40DMjYdOFb498VavyiguAnJUqFcXlWXpSE6+w4OpRERERPfgvoKzzMEetjIjsjPSi0PqA5WDsDlD0MbXGS6VAtCwaQu0H70PRbGyzF9MVEOlErOXwVBcX9m6BTo0t0TIvHFYfjoJ6Rf3YvKUdUh2b40O9dRFU0iWE4Y5Q9rA19kFlQIaommL9hi9rzjoFi2ShHkZryYi2aBH1Kx+aN2yJVqaX22HrUemlSMcrW9zCSIGycRkA/RRs9Cv9Y1pWrYdhvWZVnB0tDaPqECNd7/DoCrpOB6SgOqDR+INH/MVxR0p4OHuKl6QZCOjRIsWMms72JWsni5lGSzb4vuFP6OnbBM+aecPv2avY+yWS+ayYYm23y/Ezz1l2PRJO/j7NcPrY7fg0u0Kjj4BCUkGyD0rwadUFXklvL09IDdmIDXtxrLeQq2CStz7BkMZ4xARERGV030FZ7lrIGp6ypF7IgQnH3Dzu3k7v0SfDxYjt9sMHLmSB51Wg4w/e4qxuJz06UjPlsEudwuG1POEi19HjI1tgm8XjEX3aw8zymSQidFXEIQSDwfeLA87v+yDDxbnotuMI7iSp4NWk4E/e5ZYIgnzkllYiOugRJPvTyJfo4GmxKsw+zQmtLnNGsosYCH2Vjb5HifzS0+jKczG6QltzCMakbJlLlZdcERFbyWil8zC1nTzoDsSkJOXL/5rDVvbMr43kLQMcjgFDceyU+cRumwE2mk2YkTvXhh9tLhwyJ2CMHzZKZwPXYYR7TTYOKI3eo0+iluKjlzcRmoZjPm5yC3VVKERObn5EOR2cLC/r6JLREREVG73lz4sgvDSs75AzGL8vj751tCpzUKmKZOVmx4x+w4iXhaEIaP7oZFHcRNlBn35G3zWhq0Qg5w3Bi2JQWraZcTFpyLl7HqMaF/hxsorbGFjLSAtqcQ6aGMRejLlRrc+BvsOxkMWNASj+zVC8SIZUHKRpMxL4VMLNR2NOBd+Atnmfnel8EGtmo4wngvHibImytiKEZ8uRF7Xsdi+5GMEJMzHp9/tKt3CiDENZyMTxCU3Mybi4MEYGN0CUNurjLvTUpfBROGCen1GYOGakWhpiMDuvfE35gcFXOr1wYiFazCypQERu/ci/ubdqqyCwGo2MEYE40DJO8visu/ffxJG5/poXJ3tHBIREdHDdZ+37azR9vPReMHjKv4Z3BMfzNmLc+mF0ObEI2TlT3i1ST18sOkuyTk9EttWLsfy5cWvFSt34UyOHG5e7lAboxG8J1GM0UZkhs3EWz9uv/Xu5F0ofeqjnmsMpvZugs4vvYUPP3gL/d94D1//tgln88wjqeqjST0LpKyfisnBV5GTeBDT3+iFH46WqG8sd4OXuxrG6GDsSdSLIS4TYTPfwo/bbyyRpHnZdMbAvn7IEkPlh7OPIrlocj3So3dhwaz1OHfbawMbdB7YF35ZYtj8cDaOFk8EfXo0di2YhfVFE2Vh56hPMC8lCF+MG4iarb7E+EE+iJ39CcYGX5u5SAyfm4Y/i7dmH0FiThKOzhiGn/do4d/3NbS9XqH5du6+DPrQGfjs+2UIKxqWh5g9RxEHR/hUcYNCH4oZn32PZWHJRfswL2YPjsYBjj5V4HZLXrdD1wF9UDFnA0a+OwV7LmShMOsCdk95B9+szUOtt95FFxvzqEREREQPS/Ezgrd3l8HX5Z6cK7zTwkuwMNV3KK7uK8jU7kLjN34TDqffrpUIkeGi8HsXe0FeYpqil7KqMHSfRhCy9wuj27gJKoWV4OzhKjh4tRSGTnhfaGjbXPgpsrj9hIJ1gwR3y9rCV0fMTZiZ6COEH5tZCvZ9/hFyTd15x4Rx7VwFx3p9hI+HDxM++mCIMKBXE8HLQiG49pgtnDc3EJEd/IPQzk0pyEzLILMQKnX9UVg7sbtg5zageARR9v7RQhs3laCwchY8XB0Er5ZDhQnvNxRsm/8kFC2SxHkJmUeEyX1qCPZymSBXWQu2VipxO6gFt3ZjhZAbzXrcJFM4MrmPUMNeLsjkKsHa1kpQidOr3doJY8WJdCd/EJpY2wtNRx253sKJ4eoKYaCfhWDXfrIQI867uOUKX+GFYQOEug7i+1xf13FCcIZ5InHqdYPcBcvaXwklN2uxuyxDxDShh7eFIFOoBSsLcVsqHITaAxcI0aZ10kUI03p4i2VEIaitLASl+K9D7YHCgqKBt9mXhnQheHwvwd9GdqNMqdyEZu/9c6NFkDssqz7iR6GZpb3Q55+iEkBERERPOVOOeBBkpv+Ib3ZbMpmYau88+CZ6ZJwPQ/jZJOSrXVGtQUNUdy53jeTSjDm4EHIUUVk2qNG8KarYlfcGuRGXpndB4P8K8d2pPfhf1Wu3NrU48mUDtJrqh1mJG/CmY3FfQ+Z5HDt2FnnOtRHUqBKuPXJXkjHnAkKORiHLpgaaN62CG4tUvnmZxs+5GIbQyKvIVznAu2pt1PJ1xN0qIBhzLiIsNBJX81Vw8K6K2rV84Six1kL+ilfh/WooBu06hfHVYxAcGg9410Ozup4oz+/1lbkMmhScCTmO2EwFXAOaoHEVB3NrFyYapJwJwfHYTChcA9CkcRU4lFE7xEQv7pPjx88i1WCHynUao7a52g4RERGRVOXLtHf2AIPz40iP8G8bo+kv9hgTuh2fB5jrIuRHYMrzrfH5hQHYGTEZre8z3xd7mPO6NyWD86RWj3BBiIiIiB6iB5Vp77OO8+NOiTqvf4znPUPwdRN/1G3VAZ06tEAt/yb4/EQgPp32JVo+sPz4MOdFRERERA/bf/yOs1n+JRzZvhNHY5KQa7SEq28DtO/SGlUd/oXrhoc5r3IyXNiCGSsS0WDAALR0+49fMxERERGZsaoGEREREZEErKpBRERERPQQMTgTEREREUnA4ExEREREJAGDMxERERGRBAzOREREREQSMDgTEREREUnA4ExEREREJAGDMxERERGRBAzOREREREQSMDgTEREREUnA4ExEREREJAGDMxERERGRBAzOREREREQSMDgTEREREUnA4ExEREREJAGDMxERERGRBAzOREREREQSMDgTEREREUnA4ExEREREJAGDMxERERGRBAzOREREREQSMDgTEREREUnA4ExEREREJAGDMxERERGRBAzOREREREQSMDgTEREREUnA4ExEREREJAGDMxERERGRBAzOREREREQSMDgTEREREUnA4ExEREREJAGDMxERERGRBAzOREREREQSMDgTEREREUnA4ExEREREJAGDMxERERGRBAzOREREREQSMDgTEREREUnA4ExEREREJAGDMxERERGRBAzOREREREQSMDgTEREREUnA4ExEREREJAGDMxERERGRBAzOREREREQSMDgTEREREUnA4ExEREREJAGDMxERERGRBAzOREREREQSMDgTEREREUnA4ExEREREJAGDMxERERGRBAzOREREREQSMDgTEREREUnA4ExEREREJAGDMxERERGRBAzOREREREQSMDgTEREREUnA4ExEREREJAGDMxERERGRBAzOREREREQSMDgTEREREUnA4ExEREREJAGDMxERERGRBAzOREREREQSMDgTEREREUnA4ExEREREJAGDMxERERGRBAzOREREREQSMDgTEREREUnA4ExEREREJAGDMxERERGRBAzOREREREQSMDgTEREREUnA4ExEREREJAGDMxERERGRBAzOREREREQSMDgTEREREUnA4ExEREREJAGDMxERERGRBAzOREREREQSMDgTEREREUnA4ExEREREJAGDMxERERGRBAzOREREREQSMDgTEREREUnA4ExEREREJAGDMxERERGRBAzOREREREQSMDgTEREREUnA4ExEREREJAGDMxERERGRBAzOREREREQSMDgTEREREUnA4ExEREREJAGDMxERERGRBAzOREREREQSMDgTEREREUkgE0Tmv28hk8nMfxERERERPbnKiLyS3TU4P4iZEBERERE9Kg8q07KqBhERERGRBAzOREREREQSMDgTEREREUnA4ExEREREJAGDMxERERGRBAzOREREREQSMDgTEREREUnA4ExEREREJAGDMxERERGRBAzOREREREQSMDgTEREREUnA4ExEREREJAGDMxERERGRBAzOREREREQSMDgTEREREUnA4ExEREREJAGDMxERERGRBAzOREREREQSMDgTEREREUnA4ExEREREJAGDMxERERGRBAzOREREREQSMDgTEREREUkgE0Tmv28hk8lQxmB6GuUlIerYTizfdRJp2YVFvSydK6Jm62fxQvOqsLdSFPUjIiIielw8qEzLO84kmTYjHsfWTcNvC1bhUKIClf38UbmCFZJCFmHhH79iSUgqCnRPxoWW0aCDTlMAjV4QDyRzTyIiIqIyMDg/4QSjAXqtBoWFhaVeGq0eBuODDYWGggzERp1GHKrj2dcH4f0PPsAH776Fvm1rQIgNwZL90SjQGsxjP1p32i7XXunxETi5fyUOXtJD93gs8v0RjDDqddDesq7iNhBXkN8cERER3T9W1XjCadMisHfTHhyLuoI8cz+ZUg2Xmi3RoU0L1PKwglIhMw+5P7qcJESHH8Y5gx8aNawOb3tLyHMTcHT1JHwz6yjS23yNbV93goutyjzFo1OYFI1j+7dgS1iyuU9peUkxyMjNQY33VmNoC0vYPPpFvj/aTFyKOIyd20JwPrsA149aK2fY13sGHzwTAFsLpbknERHR0+VBZVoG5yeSDrrCKwhfswP7j+3DnosCXN28Ua2SPSDk4dzhXTiTaYtKLV/FwL4d0aauN2wU9//lglB0V1MPA+RiGFdAJpdBkxSFTTO+wKSdWtR67xdMeDEA9haP/ouM7DOb8dekEfhqYaS5T2mCUQXPwPYY/udSvFXHEtZPaHAWhHykxR3HrkUbsD/6HCKuWqJh65pwVgnIuRqDk0dDcVLVCO883w/PvdoS1TzsYWWeloiI6GnB4PxUK0RBVij+Hvw1pu/MRsUhH2P4Wz3QsqK9uL9yEbVrHuZPmY/lJ2Ro99HX+OydF1Hf7cEmQ1OI1uWlImL7X5i7bBtSPJ7HgPcHokMVO6jv4Q63UZuPzNij2LY/DjZ1WqFZg6pwszAPvAfZkRvxx4TvMf6ACq06t0AVRzXUpfK8JZy8aqJD3+dR21kJ1SPI+lmxx3DoaBQynOqgRYvaqGirRHk3nSCkIWbvXIx+5Tec9AxCx/ffxvBXguAqBue8pFPYv3Q2Jk9YhwsOrTH4l+/wVsdaqGj3pN9eJyIiKp8HlWlZx/kJZioArgHt8Vyn1mhc1Q2WlpawsnJBzVbPoG2zAHjnn8Kp0xGISSwwT/FgFIXm7CSc378Y85dvQlrFbuj1ykto7WN/T6HZxKjLR/qZXVg4Yw5WHzqHFI15wH2QyW3hVb0DXhs+CqO+H4MxY0q+RuDT9/uggeujCc0m2bGHsXHhX1iw6Tgu5hhgvMfjWRD/p7L3Qv12z6Jfz6bwtrOBtaUtKvjUQrOu3dCmohzZWccRHBaH1KwHsGGJiIieUgzOTyQ5FGpP1O72Ivp//ALa1PaGg3mIiVxhA1snK9jYA3kFBcgvKG427kHR5yQh9vBq/LVgEWIcu+K5l/qjS11P2KjNI9BDZAkn74bo9t4b6Nu3JWo6WuNGg4AqqNS2cPJQiKHciPScXOh0evMwIiIiKi8G5yeSGIgsfdD01cF4pVczVHO1NPcXCYAhLx2pqTnIyLODs4MLnBxK13kwFiQh6sB6zPv1V/z26x9YtukILuUazUMBbfolnNq9BL/OWohV+2OQnKfFtaG6nGRE7V+Bf1ZtQJRjTwx66x10rOUGhxKL8EQzFCIr7gg2LPgDv//6O36ftRJhSeLFhzlvGvWFSD29Gf/8PRdzVwcjOjkHjzaKWsG1Sms8/85APNO4EuwsS7ajrYdem4esVCNUCiW8KrjA0uI+6r8QERE95Ricn0gyyGQKMTxbi0FIVarVDAEFSDh5GEfDziLduRGaNmmEmp7W5qGi7Hic2r8X67cdRsTpQ9i8eA4m/LEC26LSigab2mo+vXcppk/6Cd9OmImF+88jI19X3EqDLg+pZ/dj88ZdOKELRN8B76BzLSc4qwuQffUc9u49g/RC3SMOkvdBm43smMNYsXw3Dh0PxbGdyzFp4q+Ys/c8knK0YqbOQXrUHvwz+xf8MHYCJi0/gHMpedcvKh4FmUwOuUINC2srWKgUkMtKVJUpzEVO0kWEX5XByqsBWtWvAtf/zBUOERHRw8fg/IQz1XM2FrVZXIjsiyHYsXoufpu9HlGGyug2dChe69kc/vYlmiHTZCFFzMgOdZ/HJ2OH47XOlZATcRy7tocjJScRkXuXYMHaPTij80HTQGc4e7jBVqmAAjrkpkXhwJp52HDwErI0KmQeX4tlf/+JP+fMwLSZv+PHRUeRUagvDtmPCU1GAk7uXY2/5/+JOXPmYM7s2Zi7ZA32RSYix7SsJR8U0OtQmJWKJKE2en34ET4e0hl+xjhsXLgbMZcvIyFqH5b+NRXLY11RqZIHKvu6wdHSCo9jDRVBKERGfCSObTiIMKMnmr30HjrV94Krzb3VQSciIiIG5yee0ZCD+BP7sHXFQiyY/jNGfTUSs7ech6rhyxjQ73k09bWHQl4iLFWojU79+mJIn0bwcvFF9eo1UN+YipQzYTh8Yi92bDmEdI+uGPrV9/jhgxfRvb43bC1NrTAYodVooVN6olbDQFSSX8bRQ/uxb98+7Dt0AtHJMlQPqo4KFko8Dm02KK1sYe9gDaSfx+mjB3BAXM69e3dh0+p5+O2nERg/cyk2BMcgxyheeJingbUL3Jr1wdef90TTqj7wrFIHnSupIDt5DKeij+PA1s3YetkLvT/4EWO+eA9vda0PL8fH8w6uLjcFpw6uxfo9MajYqDeGvNISVV3tHot9Q0RE9KRic3RPOL1GDEjbV2HHgVOIy9SiIOsiTh0/C6NPW3TuMwAvtK+NOv4usJLffI1k2q8CLu//C9PHT8HqFC/UbeQLJ/ihx8ABaF+7AizkehjlaqiVcpiyt+mX6TSFBbj9jwOKI6isYGelLF1doCSjHobcSzi8PxzxabnQmnubGDQ5SD29DYvWRMKuZS90a1sXFUs2OCyTQ2FXETXq1kYtH2dYKuSmOd6RkBeP8D2bse5QNmp2ewGtqjnCRq1DelwINsyeiiUHk6Cv1h3f/PgFulSxh6W4jqUZkXP5NA7OGIy35xUi8JkGcDU4oMlzg/DyM7XhaqGDQaaEUim+Sl6YlCSurz4vEZGhJxEdn46Cm46l9Ijt2Lg1BEluLfFsjyBUdVSVbo7OsgL8AuujcW1PmOJ5WetbkqEwG+cP/IPZc+ciXFsXvd/5Fv1bixdA6uL9SERE9LRhO85URBDDmSY/B3kFWuiNYlbLica2pQuxfHkwTud7ouOQDzHsjS6o43b7n73IjViLWVPGYuTqRFRq0Rtvvj0QA9oGwN3eQtz/5pEeFEMhtJc24LN3fsaWE5eQae5dRDDCoM1HTp4OcksbWFupoSw5f7kFLPw64a1PPsK7veqggloM6OZBt2XaLgV5yCs0Qm1jB2u1QlwfI4y6XFwwtQgycTwWxtij9QfTMHFQPVSwFkOredJrtKnncW71CHT4cqt4IdICz7w8EF+8/gwCPU138c0jlUWfj/zL+zHzu0mYt+0kkgyla0MbtQXIyy+EQWEJGxurW5vFq9AYL7z7BUZ/2AauYqeUWRoKMpEQvhnz5/2Fg3lVEdS9P97u3gQeDiqGZiIiemqxHWcqIpMrYWnrBJcK7nB3d4dHlSA8P/gdvNFdDL/Je7B183YcOJ1U6u5uMbHwiAVIpRIDqYUFjBZeqFa/I55rWwMu9uoHH5qLyCGzdIV/nYZoEhSEoBKv5s0ao0GNSnASQ66bb03Ua1p6eFBQMzSrXwOVXW2hFhfurosnbhcLGwc4uzjB1lIM2WJqND1Ip1Dbw9s3AAEBlaHPzsCpfeG4otPf+kCjuG0UcjmsxOWBUg2Hik3Ro2MTVPG0kxaaTUwP7lk6oWKNOmjUvPlN6xOEhgG+8HCyh6OHP2o1FNeveenhQY1qo5qXvbQ61OLyCoVZSD6zDwv+mI6lce5o8dybGNC1oRiaTd8CmMcjIiKie2e643wndxlMjyltXoZwaulnwksN1YLSr6fwv3mHhDTzsOuMBkHITxEiN0wTPny2tuBQuYnQ84s1QmRuoaA1j/Iw6XJThJhVI4UeDVoIgyZtFk5nmQf8G5JPCRt+flWo5OovVGvyg7AtLVfINQ+6TpsrpEbsFv76pLvg7e0q1Og2SlgcelHIMw9+EC5t/1X4sEc7oevHfwp7E8TtLu6Se6bLFzIitgjzv+gjuNbpIgz664gQl5ZvHkhERPR0e1CZlnec/4PkcgVsHVxhbesEmYUaKrWq9ENhYvkxajJw5fgmrNtyAucLPRDgkIOcy4lIKTAWVfl4oumykXQ+HAcPhCAqqVBcn9Jfzej1emg0hTDKZZDbWcFChtJ3sA1a5MSL02/egCXRFVHfVwbLrEQkZxZAc9v63Y+Sad0MyE+Lwf6N67BsTwHa9H0HnzxXC+7X2u826JCbcAbHz1zC1RxxvYv7EhERUTkxOD9GDNoCJMeGIzYxDfm31q24QQx2uvQLCAneiX0n45CcU7KigRiKBQ3yc3JRIL6Jg6c7PNzEEC2IcUmbgfjYCzgXF4/L0cHYuHYPLlsG4Lnnu6GFjxxp6bGITywQg+UTHq0KEhGxcxEmjZ2Of4IvI1tnMIdFU8jUIzcnDYmXr0BuY4XKTWrBU6WESl+AnNR4hJ+IQ0raWRzZuQ17zxnQ+qVX8VLjSrBGIi4mZCC/4PFKzqZraH1BOs6HbsP24HNQVO+Edwe0RVUnK6jNdUpMDwtG75iDP1buQ8TV7Ce3nW0iIqJHjMH5ITI9/JZ2OQrhx4/iyJEjt7wO7t+NNf/8hg1HY5BWYJ7odnT5KIjZid/HfYVvpizArtOJyDEHbUHQIT0hEqGhJ3EhQ436dWqhrq87FKbgnHUW+9evwF9/L8LSVVuw/4Ij6nTpid4dGiCgmjcyEqMRceYqcrLSkRR/HmcupaPAYHzy7lCK26AgOx3nToZj795gnBLDoka8GBAEAwpzriL6xEGEnk2FXeVqeK5Hc3iq1VBqUnH55HZMmTIfqzavwpqd8VDV6oJXOgeiRbOmsJClI/pMHNKy8pGXfB7RF64gNacQjz5G65CbeAYHV6/AkcQ82PhVgOzSWZw4dgzHrpWrQ4eweft2nItPRoHuCb8oIiIieoQYnB8iXdoF7Jo9HH26t0Pz5s1vebXp1ANfzQlHVLIBxrIe5jI9dKa2gYuTFS5t+g2zZ8/Fsm1HcfSo6bULi6dMxLyt0chr+RFe7dMdLX3VEIxGFF6NQ/TRfzD1lwmYvDUPlXq/hmdb+8K1YmVU9qsKz7QYHNm+CVu2rcC8v2bit7WnkKzRPXnBWWEJR49K8HHMRsSGKfhx+irs3ndQ3DbB2Lp8HmZNWoSTNk3RvN9QDG5uB1u1DPqcTCSd2omNq8dj6FdrcbFyO/R8til8POzgWL0RqqsKcfnQLmzduxNr/5mMSQu2I+RihhhbHy2jNhWxYeuxctlJnBLXb/H3r6NzqyAElSxXnZ/FyFVJSMxXQHVLs4REREQkFZuje4gKEyOwfsaXGLXwJDQOXvCwvandXijg5NUEPYe8jRdaVoeLuYrqLcQQbNTmIDvhEOb+uhj7o9Ogt7KEWmG642wQQ7ILAjs+i5692qFWBRvYWiggGLRICl2OhYsWYtuVKmj9/OsY1LsRPEzNvkGPy6HrsHzudOy8aAOldyAadHwBQ7vXg52Nuqh1iX+7UQZ9Xiritv2KYT/shFv/kfj0ra6oZW8eWF5GHTQFaYg6sAEr5i9GaI4NLNSqoqtEo94GHv5t8PzgzqhfyR0VbCyK2p3Ojg9H8Kop+G1rCmzrvYr3B3VC4yqusBF3UGHGJeyY/wOWBycgA06wbfoSPundCnV8nMX3vUuzeGWI3/Ebxk9ZhXP+/fHVF68hyMPi1ibp7kKTeg7By8ZjyuoYZJZVAdvaBdW6v4PhfVoi0MvuX9+fREREjxO24/wEKg7O32HqbgFtPv4UfQOdYFmq8WAZlCobOFZwhaOtJW75TY6STFUv9PlIuZqCzDxNqSoDMrkFbJ1d4OJkDwvxPcTdKO5HI3R56UhLS0O23goOzq5wdbIuarvYFKJ0+ZnISL2KjHxxXJU1bJ1cUdHZuuj9HgZT+8NXQ1Zh2oLjcHzmDfTt3hR+NuaB98QATW4m0pNTkK0V18ncF+JlgqWNE1w9HGCtuhF69Zp85GZcRXK2AQpbV3i42sHKHIpNP/ySk34ZadkaaA1yyO3cUKlo+M0tP5dPcugqLF6xHwlenfFav06o5SxexJQzOBt1hchJu4KkLC1uegayNFOzhY4V4O5kCyvV/S03ERHRk4bB+QlUHJx/wO8HrdFr7Hi808AVVkrzwKecYDSI4T0DKWkFUNg7w8neBhb/8XxXdLGSkQOdyh5OzmIQN/0aIm8FExERPXAMzk8gBmcikemcIuiQn5OFzKw8aA1CiW8ESlCoYGXnBGc7q6KffSciIrpXDM5PIAZnouJvF4xZ0dixcBqmLTyGZAsxHNuYv17QFyAvKxWxV3Jh4d0QXd75BF/1boJKTpbFw4mIiO7Bg8q0vI3zCBh1Bci+Eo3jx0NwzNRsmPgKCT2Os4m5bC6MngIC8lIu40JsFHS+DdD7/W/x008/4acx3+Hrd/uic00XpGcq4Vm5Odo09IWDbamf7yEiInpkeMf5IdIkR2HznLGYvPoyKretDaRmQDDoYRCDdF5mNty6fIIBXRqhXhVX2FoVtwJxM9Ov3iUmJiInJ8fch6j8lEolKlWqBCsrK3Ofh0cw6pF2Zjs2bt6IlMovo0+nZvB1lqMw9SwOLp+HmX9sxRm7tvhg5Cd4tnlFeNioih5iJSIiulesqvEEMuZdQej6GZj6VygMz3yEL7tXha2FDumXjmP71B8w44QMvu3fx+ef9EGnWp6wkt/6pFhqaipGjhyJbdu2mfsQlV+FChUwe/Zs1K1b19zHTDzeTcFWq9VDb7yHbz/kCjGUq6BSKe74dZbpnGLQ5CI3Px+ChSPsxYtEmZCCyG1/Y+pXsxBs9ESfMUvwYUcPuFjLb2qykYiIqPwYnJ9EYiDRFOQgO0cLwdoBLrYWUMjFEKHLRUZ8CGZ9OBAL4lxQ65WRGPNOVwS4W9/S3m5KSgq++eYbbN261dyHqPxMwfnPP/9EvXr1zH3MdDnIvbgTv3w+FSuPX0B5v9dQ+3TCax98gI/6NoCj2C2lLphek4pzwf9g+phJ2FsYiFb9P8eYAW3gaCXHba4diYiIyo3B+T/FCH1+CvZPfA0f/R0HY61BGD92MDrXdMPNv4Gi1WoRGxuL9PR0cx+i8lOpVKhZsybs7OzMfczE4JwXvxdTR/yOteFx5Q/Oldvj5cFD8O6L9eAgdt8tOJvuPF8+sQXzpn6LpdEVUO/5dzD8tW5o5OtY9MM0REREDwKD83+MoMlG7PLheGn0XqTadsG3f3yGlxv54KZYQ489U/UGLbKS0lEot4adgx2s7/OHUh4qox76wjRciIpDUnYB9ObeUsmsXOBduTJ8PB1gajCmzOirL0Tq2YNY8/d0TFgVg0pd38XHb/dCp5oesOaPtBAR0QPE4PykEYwwGsRQYhC3p1wJldL0YxclYoUmB/Frv8Lz32xDsrIdvlrwNV5v4ot7/dVpethMdYONMIhhUG+IwcrRs3HGoTW6v/IcWtzfTyD+B4nHgHg86K+ewuZ/fseI3w9C8HsJ3/w6GJ2rVoCD3PQQLKC0UBbddeZ9ZyIiul8PKtNKqYJID4IuE3H752D08C8xdlkoMgoMJX70QRDDlh5Xr8RDJxNg6eMOd2sLqM1D6XEmBmYxBGrzs5ESH4ZNU4fjjZ6v49sFq7H/YjKyC9m84M1MDx/qEk9g099T8ePcgzB6t8JH37+DTlXdYa9NxNmdS/H9J0txMqcQheZpiIiIHgcMzg+LGBYKMi/j5JEj2L4tGCeSsqA3mqKzsejhwMyrp7H/QCQEG2e06NAcgW7OYOu1jz/Tj3losqKw6Y8fMW70T5i59hCOnz6PxJxcaMzjUEnicZByBvtWzsOchXuhcauDF997F8839ICj3IDU8yewc8cqHMg3Qmn6csY8FRER0eOAn0sPjRxKSzvYqwpw9cQm/LZsP87FXkR8fBxiTh3Glr9mY1uCBVybPYdn29aBj6MF2659Ahh1Glw5tgZnDV4IaNcPg4d9hfefrw0/F1YwuB295ioiD6zDgpmrcFbnivrtuqJFdXsUpsTjytkwHNq1GcuOXIHRzxuuCjkvHomI6LHCOs4Pi0GD3NQYHNy8GisW/IP1iXao5+sGlVKALl+H7CR7dBn5BlrUbYRGlSvA2YYVNZ4ERoO47+LDcEVWGR4VXGEvy8OJv/rjk+l7oW3zPb4b+ia6BvARz2tSI9dh3oSvMPGfc9A4eaCifw1UdBIvEk3XGdocpCRcQJzghc6fzcW0l6vCgb9JT0RED8CDyrQMzg+VHvmZSbgcHYmYpHzor29aFVRqT9RtWwtu1mrWbX6C6QuyGJzLkJ92EbHRJ3E+5c51v5XWjvAOaIxaHlZFD9ESERHdLwZnoscQgzMREdHj50FlWt7OISIiIiKSgMGZiIiIiEgCBmciIiIiIgkYnImIiIiIJGBwJiIiIiKSgMGZiIiIiEgCBmciIiIiIgkYnImIiIiIJOAPoNA9KkDW1VPYMmsDzhRoUWjueztKWxdUbdYFXZsFwMNeZe77HyEeH4JggFajhUFfiIKUSKwc9zl+WRUOQ41B+Pird9G3fRXYideoarUaSpWCV6tEREQPGX85kB6xTFw5vQJfth2O9Rm5yIJMLC/mQdeJodIog513Y7z4+Rh8/Xo7VHX+jwVnow7GnLPYsHQHzlxOQlbmOezfuA9hcekw2lRFo04t0KRuRTjIfdG8R3s0a+QDR/OkRERE9HAwONOjpU/FpWMLMPzlqUioFoQ6Ad5wtFaYB5oYoNek4eS2LUj0eQUff/4BXmlVDQ5q8+D/ClNwzorEyr834/TldBSYe99MJq+C1r27oGUzPziZ+xEREdHDweBMj1bhVVzYNw+ffxOOBp8Nw0tta8DDWmkeKNJmIef8Nnz52c/I7fgj/te/C5r72kF+y13pJ5x4fAiCHppCLfQGI+58tCigtrSAilU1iIiIHroHlWn5GU73RmENu8rN8fyAgejRqiYqujnCzs6u+GVrCaU+HXHBuxCuC0DTBoGoXMFWLGymqhsG6HU6aLU66HR6GIym4HmtIJv+NcKg198YZu5bNJ3eNJ22aNqyQ+pDJB6IMrkKltY2sL22/rd9WcOCoZmIiOiJxjvO9MAJmgxcCl2N8aMn4nClTzHp694IquIEtUELfeIJrNlzAlfStVCoK6Nx1+aoU9kF1kW3og3ixGk4ve0gTqfbwL9ZA9Sp4goLcUj2xVAcCw1H5OVcsUy6oWazpmjW3J/1hYmIiOiueMeZHlMGFGbEI/rAfuy74IBGHRqgsosNiqo2C0YIOVcQtv1vTPjhO3z2xW9YExqPDH3RhIBR/CP9BFb/MRGjRs3F+qMXkSP2NhVzTeYVRO1bjunjvsInI37Hsr1nkVU0EREREdHDweBMD5ZBg/QrkThy/DIsfTqhV7PKqGBnbklDoYbSvyMG9X8O7au7w1rIRGa2Fjpt8WCj3oD8mChEpyQjKSMHebkF15u5c6raEl06d0BQNUd41KqCqjV8+JAdERERPVQMzvRA6QpzcenUUUSlyVG1SzvUdbU3V8MQyeSQqazgXK0W6ng5wEWZhbx8MTgX3XE2wmgsQPz5GKSmpcFgyEdBgQYaU6gWxIKqVEMuEyCzdEa9oKZoVtcHtqbJHpGcnBzs2bMHS5cuLddrxYoVOHv2rLh+BvM7ERER0ZOCdZzpgRGMemSe24vfvx+FLZl1MXDEN3ilkTdsSjXdLCAnKQQrf/wcU1aFwevdJRg/5BnUdtYi/2oI/vphKhbt3okLhX7o9O63+Pz9XqjlABjyL+PIwp8xc0ce6vf/DG91qw5nVcnm726izUTCuUiEHI9FrthZrlKstIJTxUDUr+MLDwcr3G4u58+fx3vvvYft27eb+0hjbW2NsWPH4t133y36QRQiIiL69z2oTMvgTA+MoTALp1YMx9e/n4Gh7VBMHfosanpYm4deIyA35RTWjR+OX5aFwGOwKTh3Rk3rZMTvnIuv/kyF0jIEFy9nw+OZr/Hlh31R3xnIid+GJb8txklZC/T74A0EVbKAsozcjOxIbJkzHkP/Nx/nxc5y3d+19kDd57/Az9++ig413IrrZ98kMTERM2bMQHh4uLmPNBYWFujfvz+6desGleo/9mMwREREjykGZ3q8GAqRl3gKvw19GWvS6qLz+6PwUc96cLO+uTaQUPTw4P4//4fRf+2C4vk5mPL+M/DThGLFzAU4aNMKbRzDsGn9NmTW/xQjhr2NFq7JOLZiLpaF5MGnSz+82qE6XC0UZbcJnX8Z4TvXYu7fe5EkdhqL+0qjdkDlps/j9T6tUMvLAbeLt3q9Hrm5uUXN45WH6ZiysbGBlZVV0d9ERET072NwpseKIS8RVw7/iQHv/glVp88w7KOX0KFmBVjcpha9Nvsqji//Hl9NW4fUoDGYNbQDnKNXYtaGdFTs9TLaC2sx+bcluFD1HYz6ZAga6zZizpw9SPXsgNcGdkOgiwpKMTWXGTuNOhTm5yIrKx/XGu2QTg6llR0c7KyK2l5mvCUiInqyPahMy4cD6QHQIT89Hie27MFFwQuN2rdEQEUXqO9QuuRyOaysrKFQKJGVX4DUS2E4dDIWjg2aoFPjAFRzdYWFpZUYerOQmxKLozv2I1rtisA2jVDbVQ2lWPjvGmZNP0pi6wR3b294l/vlCXdnW1gyNBMREVEJDM5034zaVCTEHMCSZTGw9uyJJrXd4GIvv2PoVIqB2cHBBSqVGvGXohC8cgUOZfrAr0F9VHVXQGlhIYZuGXSZCYjbPR+r9gmoVKcbnmlWEQrxTVnDgYiIiB4FBme6TzpkJ5xH2Na9OGqwQoPXuiCwghNufiSwFDH5ytVqcRwDlHFbsD1cgF+tpmgR4AkrcbDczQNeFmoUntyGWcv3w1i9Prq2rAW34qmJiIiIHgkGZ7o/+lwkXwjHnuDLyHNsgA7NfOBqp75tE27XKZRQObuisoUV7C5nQ1G3KWo3rIbKdqqiAilzcICjOMwqzwBj1TYI6tQcdbwsoSyemoiIiOiRYHCm+6PRID8zC5keVeDf80V0qmIrht67FCulChZulRFYvTbqVeuCV19ohwYBbtfrRMuUtqhQuRpqNXsWb732Ep5p4gdrttxGREREjxhb1SC6H4IRgi4XSYmpyNXo79zsnZUj3F2d4GDFKwAiIqKHjc3RET0GBH0hNOdX4cvPZyMswwIOFZxhY/rFFKMB2pwUXEpIQmq2Ct49BuObD19Bt5quxRMSERHRQ8Pm6IgeAwa9FkmnD+KCRgH/Di9jyLAv8eWXX+KzoW/hxSB/WOk0yDH4oGn9Wqhayd48FRERET2JGJyJ7od49Zqdm4/Abm/g5RefRaeguqhXrwa8VOmIOR2LDK03ur41AC890xi+RbeiiYiI6EnFqhpE90EQjNAV5EArs4SF2vSLhjro8kMx482v8PeBeHi+NhKfv/cqmlZSw0LJBqiJiIgeBVbVIHoMyGRyqK0dYGtlAQU0yE4Mw5qxP2FZxFW49PoAQ/p1Q+OKFlCbfrmFiIiInmgMzkQPgGDQIyfxPA6t/gNzt0Qgr9bz6PNid7Sq4QpTQxrihS4RERE94Ricie6XIECXnYjIfSsxb8VhnFK0wIsv90HXZv5wsubPthAREf1XMDgTPQCZJ1bjj783Yfupiug1eDBefqYOvGz5MCAREdF/CR8OJLpXghHGwkxkHv0H7303GyFJnmg/8GN8NLADajrLkBO9G8sWREPdugN6dK0NTyWvU4mIiB4FPhxI9EgZoS9Mw9XT2zDjt0U4naREo2f74pVnW6CasxVkeWkIP7wDO2NjkCUeZvy9QCIioicfgzPRPTAaCpB+OQQb5yzAku0n4dq4Jzq2aYiKlvnISErAxZAtWLsjBMc1lnB0tIcNHw4kIiJ64rGqBtE9KMy4hIOLR2DMxJU4EJsPB99a8K7gABvzrWV91hVczNDCvt3H+OXLIege6AClgtepREREj8KDyrRPRnAWjDAYshF/aj+2zF2PvRcTkauwQcMXhqJ/lwbwr2AJGXTIvHIMW2YswYZj0Ug2AvVe+QYDujVFbU9L8xvdhrh+gmCAVqOBVmdAuddWpoBSpYalpUpcBrGzuC/9x+k1+UhPiELs5TTkaMw9xePl2v43HTdyhQo27n6o6uMFZxsl5OJwIiIievieruCsz0NS1B5s3BiNAisb2BtPY/q4lUDDt/HRd2+jV+PKsJUbUJh7CSe2Lsecb6dj5blM9By/Bp++3Br1PcpoEsyghSbtFDb9vQzr90ch1VjO9bWvikZd+uKj/s3hIHYqivsSERER0WPi6QrOBg1ykmIRE6eFnY8bXA2RGNOnH7YV1kX3L8diWK/G8DRVIhVykXR2G2a9MwZ/JlXBZ9PG4qUW1eBuZX6f2zEUouBKMOb+NAVz1hxDgsFoHiCRS3107j8Mk77uDlex83bBWafTITMz8/HYlkRPGKVSCUdHR8jlrOpCRET35ukKzqUYUJiVgIXvN8KvJyugxuu/YNzbneDvohYTahYSTqzGpM+n4Uy9LzD6055oUNEKZf4EhVEPQ0EaLpw5i/NX0lFY3tVVO8DdpwbqB3rCQuy83ZfxZ86cwahRo6DRXPtOn4ikqlatGr799lvY29ub+xAREZXPUxycxeicn4HQma9i8MJEWLYdjj8+ewF1vGyhy0lExKY5GD3lBGp/8R3e71YbnhZ3q1cqrl/x/++PuK3uNKfg4GA888wzyM/PN/chIqmaNm2KTZs2wcXFxdyHiIiofJ7q4AxdHi7vGYchX21Fgu8LmDjubbT1d0BW7G6s/X0pDsnaY8BHz6Gpj33RXeBHLSUlBbt374bBYDD3ISKpTIG5bdu2sLB4HI5mIiJ6Ej3dwdlYiOTIvzFy4ByEqlpi6Kz/oXdNG5zd9DsWbMlCtV6D8Er7mnApozGN68T1E4x6aAoLodHqUc4azuJGUkBlYQlrKzVb1SAiIiJ6DD3dwRk6ZMTvwK9vf4tNif7oPfV7DKybhU2jJyPc9Tm8MvBZNK1sU3bd5msMWmgzorF79QbsOBqLdGM5o7OtL+q264EBvRvCTuxkqxpEREREj5enPDgbkZN0Gou+GYj5YZao/+FEvKD+B8uDrdHiuQF4rm0AnKzuXOe4FFOrGpf34PcRP+G3pYdwSV/O6hQVGqPH4K8xe8zzcBM7GZwfIkHcV/kJCN2zE9v3RuCqVm8eIF7PVK6Dll16o1stZ3MfIiIielo95cFZgC4rEXv/GIYxi8Mg+HeHW1Yyqg8Ygtc6N0WAi4247OZR78aohy7nMk4ePIqws1eQU952nK3c4VenKTq1rAprsZMNZj0cBv1VnNmxHdvWbsW+VAMsnPzRuq6HOKQQSWcOI/REHAr8e+KVl17E851qwtVCBcU91qMxHQNGgw6mayq5UgmlXC69fBEREdEj95QHZ5EmA2c2T8U3PyxAaKoa1bt8ixFfdUcTP8eiAEv/bTpNJDb9PA5jR++Crs87+PjzgRjQqKI4RIuUmD1YNW0Kfl14GtZdBmPUd8PR3s8GNqp7S7uGwmzEHtmMvdF6VGzZGa1ruMFGUj0gIiIiehw8qEz75N4gVSph6eYOT1sXGLwa4bUB7VDPk6H5aSKTKWDnVx+dOnZCuwB3Ux/xZYEK1RqgSasgBFqn4UrscZy6kA2NrtyPfV5n1ObjYsgWrFq+EQdiM1DIxlGIiIieSk9scNZqCnA55jzyLKqgw+uD0LGOCxzYWtVTQ65wRfXWvTDo67fRu0MgPNQlbwFbwNLaGjaOgEarQ05+PoyP6zcnRERE9MR4IoOzUVeIy0fWYfPuOCjrtcfr3eqjgq2a9U6fIqbgXLVFN7zQrxsa+dlBXbICsyYbWWlpSMq0hJ2NOzxcbaC81wrOD5JRB132BRzb8A9mTpiAXyb9gVW7T+NKgThIzPWC0YC8hFPYu3omJs5cjHUHzyG3vHXuiYiI6F/zRARnQ34WYg6vwerg0zh3/hwitvyGGXPm4ZJLB/To1xstKrnCUs7U/DSRyeRQqi1gaWUBlaK4GJva49Zrs3H59CEE7wnGRcuaCOrYC21qOMNa9YjbOzEaUZAYiT1rt2LTwTO4FHsEaxdMw+iZq7ArKhVavR7Z8eHYtvhX/DDqW4yYMh8rj10qf7viRERE9K95IoKzNj8VYesm4tepEzFp8kRM/XUqQi3aocsLvdC6pjtsVeYR6alWkHwWR7fMx7QZy7EvToVmA9/CG6+0R4CzCupH3k6gAEGnQwHcUavbGxg28n0819gdGaFhCDl+HhnpsQjZvhRLDsRBXqkpghr6wturAmzMUxMREdGj9wQEZz10mgwkRJ3BuW0rsHj5EVyt8gIGf/QpujXwgouVeTR6CpmqMRQi5exhbF8yB9OmTMK4H8Zg6oIduGRdB517vYLO1e2gVj4GxVwmh5VPQ/R49Tn0bumPCp4BqF21MmpoLiLh/Ekc2rMBe45cgWPLd/HNyJH45u3n0bmOJ3+JkoiI6DHyBDRHp0Ne2gXsWTAT+y7IoXSth06vd0Cjip6wFQOR/Im4Z07/DlPZLEDCif3Yv/sgwhNyoMm+gqjwMMRr3NHohffQt2tLtGrgDTuVouyrRF0uMhKixfcJQ2KhrlQVCWNhNs4eWI2dEXpUat8THQPdb2mOztKzPpo1DURVLweozf3KZkDEih/w88T5OG4VCD8PV1Sr2gYvvfkqGnopIJh+wVKhgoVYxk3HIREREd27p6gdZ6EoROi0GujFLCGTKaEy/ZiFXOIvA9J/WHHZNOh10Ov00BsMQOFVnDqwDgvnrMDWsBy4d38L33z2BtpUcSyq53zHMpN/GdF7F+F/705FcEYubvwGoYkAg1j+tHoBcrVF0R3sm9/HpdUnGPXNALzUsork6hVJ+2ZizM8T8XuwHrV6DMSn7/XHay2q4HG4QU5ERPRf8hQFZ6LySsOJ1bMwbvgYrFc1w+v/+xlfv1wPFR0s7nzXWZOGhMhgLPpzE6LzNKXvOGsLcPVsCCITjHAKqI9a3g6wvKnOtG31bujzQls0q+EOS3O/u0k/PFcMzpMwObQi3vv6K3w9MAgVLVlhn4iI6EFjcCa6IyOuHl2C6T9+gjHB3ujxzkj89MkzqOVqgzs+IygYYTQKMBgM5vvYN+hykrD/j28wZZsWDT4cgY87V4fLzfUxZHIoFKaqQ7fejb6trHjsWjIDU+Yuxo4EX7z6yVf46r128LeSVtGDiIiIpHtQmZZfCtN/kByW1nawd3AFVErILS1gIR4wZRKDr1yhgEqthvrml0oFpVJRFIoVSpXYfbtxlFBICc1iQEdhEqL3rcDmY2nQ21dGdYs0ZKekIaOQF6lERESPMwZneiIZcpIQc/Igdhw5hQupBdAbSoZOHTSF+cjL1cDK0R6elbxhbwrQ5qGPgrEwBXHn4hB3+RIuhm/Hms3Hoa/YGC8/3wH1PAqQknIFV1M05rGJiIjoccTgTI+cNvsyIo8GY/vecJxPyYHW1KLEXejjD2HxxOHoO+Qz/Lb2KC6k68S+pvCsRXZiJI7u34VDMYUIaNAM3RpXhb2l+pE+TGq4ehgLZ/yKsZOn4OdJK3BK3gQ9Xn4efTvUR01/V1yOicDJMwnIzriMMyfDcOJCCnL1t1YbISIiokeHwZkeIVMsLMSlw0swdcRwDP58FjadTES+hLQos6kAX39/eOeEY+fCGfhz2SZs27ZNfG3E0j9m45+1Icip2xe9+72Bjv4WsH7Ez9zlxsci+vhazJu7FjtzqqJ5zw5o5O8AhXMlVPOtBMeUMziyYz1WrF+Nhas2Ye+pBORoDeapiYiI6HHA4EyPjNGgQ0FiKNYvX4N9p84jXatHqRoXZVB51kPP/h9g1NA3EeSpwtWwLVizZo342oqj542o3HEIRn79P7zX3g82FgrcrYrzvy1XsEK1Oo3Ro88gDP3gdfRq4Q97lQoKh2po2KEr+nT1hV1ONI5eEODXqjf6tq4OV7awQURE9Fhhqxr0aBj10OUkIHz5Lxj79y4ER2RAW6kHRk34DAPbV4Wj4i7XdGK5FIwa5GVlIyunALpS5VQBC2s7ODg7wFp5/4lZn5eOExvnYPlRHaq9MAAvNakkhl7zQIm0uanIyMpDIaxh7+gAe2sV5KY0LxihL8hClrgeeVpxHVQ2sHNwhKO1sng4ERER3Tc2R0dPMFNYTMXV46vw449LYPT1R/zxaJzWBGC41OD8EAmmcKsthFYnRnIL0w+gKMRQax5IREREjz02R0dPLqMO2VcisWHpZoRVeg5dOtVDLfe7/CT2IySTyaGysIaNrTUsTT/dzdBMRET0VGJwpodMgC7vKuKOHsLBhApo26YVqnk5siASERHRY495hR4qwWhA0rkD2L0rEvAPQrdm1eFhe8ff8yMiIiJ6bLCOMz08ghGG/DSsmfQOlh5yRqP3PsbAbrVhEbkQ34+Yg+XxNfGphDrOmZmZyM7OfirKpp2dHZydnc1dREREdC/4cCA9YYwwajKQsmUKBk0PRsVun2Hoa88g0E2B9F2/4P0fF2FjemOMkRCcx4wZg8mTJ0Or1Zr7/He99dZbmDJlirmLiIiI7gWDMz1RDLospF/YjtlDp2CPbx+8+/ZL6FHPG5ZKIG3XBLz34z/YZA7ObzRzQl62ASobB1RwtCqqT1TyebyZM2di3rx5T0Vw7tOnD77++mtzFxEREd0LBmd6ghiQlxyDQ/NHYuSvp1BxwGd4uWNdVHUqbgw589h8/DRnM/ZnBeLD4QPQzT0Bu2MsUb1Fe7zY0g9W4jglg/Ply5eRmJj4VJRNNzc3+Pr6mruIiIjoXjA40xOkAGlxh7Dimx8x80AcBK+KcLazgtpcG0ObFovI81eRorNHtRp+8LQ1QFvtOQwe+Cr6t6x8yx1nIiIiovJgcKYniOkHRAqQk5KObI0OBnPfazIPzcbI6euwO7MuPv1qMF4M8oOTjQOcTL+wZ6U0j/WwCDDqtSjIK4DOYBSX/M5kcjkUaitYW6qhZOPOREREjy0GZ/rPuLmO86P95cACJJ/bgj++nIPt5xORae57KxksnSqi7otD8b+XW6Gaq4W5PxERET1uHlSmfVTphOg6vV4Ho8EAQacX/zbcckf6oRIM0OZcxaWYGMReTkF2bj4KCgpKvPKRl5uJKxdiEXdFAytbG1haPOy74kRERPQoMDjTIyMYjdDmZyLhyhVkZ2XDmJSMxCtJSMvTQF9WHYl/kxjcdZlZ0Dr5oHG/TzHh1xmYPXv2jdesmfh90pfo06YmqjdtgbZ1fOBmzR9wISIiehowONMjo9fm4dz6bzFu9gociU6EJv0Q/vlpPOavC8OlAvNID5sgwKhVwcG9Jbr27oaOndqhTZs2N15BzdDEKRcpehW8A+uhqrcrLJibiYiIngqs40yPjNGgQ17yOcQlZiJXY+pjesDOAhV8fOHl5gTrR1EDwqhDQVYqktME2Ho4w9HWEtdzsbEQhenRWDbqQ/yV3ByvvD8Y/VpVh0Nxq3pERET0mOLDgUQPlRGG3CQkHfkH7375F2TPjMCnb3ZDC39HsIYzERHR440PBxI9TIIOeRkXcXTLDsRkVkeToFrw9bRlaCYiInqKMDgTSaHPR9aVKOw9lgCXVs+iTWBluD+SuiRERET0qDA4E92NICAv7SpOH9iJkFR7NHmmMXxdbaE2DyYiIqKnA4Mz0V0I+nwkxxzErkOXkFalPbrU90IFGyV/BpyIiOgpw+BMVCYB2rx0RBzajJOJBfBr3gY13R1gxSboiIiInjoMzkRlMeqQG38Iu/fGIc0qEF1bVoWTLdufIyIiehoxOBOVwaAtxJXwbYjIUKBS42fQoqobbJibiYiInkoMzkR3IBjzUZh9Epv+PoosYzU0a1UXPq42ULJyMxER0VOJwZnotgToc9OQcGwjNkZmwz6wFRpUdYedhXkwERERPXUYnIluqwBZydHYN38HzsMDAe0awN/dEczNRERETy8GZ6LbKchC+vnjWBOWDFlgZ7QM9IabLX/whIiI6GkmE8r44e4H9bveRE+cwkwkxRzDij2R0Pl3xEtB/vBytBKPCfNwIiIiemI8qEzL4ExERERE/2kPKtOyqgYRERERkQQMzkREREREEjA4ExERERFJwOBMRERERCQBgzMRERERkQQMzkREREREEjA4ExERERFJwOBMRERERCQBgzMRERERkQQMzkREREREEjA4ExERERFJwOBMRERERCSBTBCZ/76FTCYz/0VERERE9OQqI/JKdtfg/CBmQkRERET0qDyoTMuqGkREREREEjA4ExERERFJwOBMRERERCQBgzMRERERkQQMzkREREREEjyw4Jx1aiV+/ugVdG/fEi3b98TrwydhbWSOeejtZOLw3O/xw4IQlDUWPQ2MSNv4Jbq06Y3xR7TmfkRERESPlwcQnAsRMfslNGzSFz+svwK7Gk3RLNAZqdt+wkvNOuPHcL15vJsYrmDH72Pww+zdSDaY+9FTqzA5FtFnzyIh02juQ0RERPR4ue/gXHjkR7wxbDVy2ozH3lP7sHTmZEyavgBbTkZj/y/PopLSPCLRHcnhPWgZ4q5GYGoXS3M/IiIiosfLfQbndKydMgsnEITPfhuGRnbm3iZyFzR75xu8Ufsek7MxEycWj8Kgrk0R4FcRFf1qodVLX2FZVKF5BEB/4g98OHgS9l09hb+H90BD/8qoUq8T3p0dgizzOEVyT2PR5y+geY3KqFS1ETq/2A/9+vXDqwPGYEu6EdAew+/vvIlR6xJw436nAXErv8GbH/5h7jYt0gksHjUIXZsGwK9iRfjVaoWXvlqGEot093kVMeDKnil4t1tjVK9cCVVqt0G/UWtwXmMefAeGK3sw5d1uaFxdfO8qtdGm3yisMU9kTN+OnwYNwPB5p3D9bQyXsGbUm3hr/G5kip368Dn4YMhvOJwShrlDe6Bx1crwrdUW/X/ehcTrK67HiT8+xOBJexG743v0qucLnzpvY2lS8QhlLYOJNnYtRvVtiQCfiqhcozF6fLQIZ6596aCNxdpRfdEywAcVK9dA4x4fYZF5oGlffvTmN1gZd+PrB2PyQcwY+jyCAv1QqXJV1Gv/Gr5dFolc8/Aby7oPV0/9jeE9GsK/chXU6/QuZoeUKgFERERE98/0y4F3cpfBglCwVhjgJhdUrX4RYvXmflLpI4QfGqsEVcvxwrnbTGu4MFFo5x4o9Hj/B2H63AXCHxPeF1q7KwTLRqOE47ricfKW9xMcVVWFpk28BZ8O7wnf//K9MLiFm6BQ+giDN2UXjySkCWvf9BFUri2FobNWCeuXTBBeq2UtKJzqC73eHi/sSDMIQs484TkLlVD7q6OC+a1FGuHA8OqCyvFlc7dBuDCxneAe2EN4/4fpwtwFfwgT3m8tuCsshUajjpunkzAv8X3SNn8kBFjbC3VeGycsXLdOWDzxTaGho1rwf2utkGwa5TYMaZuFjwKsBfs6rwnjFq4T1i2eKLzZ0FFQ+78lrDVNZLgsLOzjKSjt2woTIkxLYxASFr0keKoqCwNXJ4tdN7ZXw/ougmfzQcK3E8YJn/asKljJHYV2EyOE4t2QJyzv5yioagQJTb2rCc9+Nk4Y8/UUYUe6hGXQHRe+a2Ql2Dd6W/h12Xph7cKJwtCXvxbW5ZjeVycc/66RYGXfSHj712XC+rULhYlDXxa+Lh5oXrbqwif7NUXdQsZO4dO6NoLSpZHQ78ufhcm/jBTeauUtqBTuQs9ZMaWXtWpToYm3j9Dhve+FX74fLLRwUwhKn8HC9SJARERET7W7ZlqJ7is4m8JtG7VccB+4Tigw95PsLsFZEAqFgoKSKVIvRI8LElTqNsKkuOL+RWFLrhaqDVwmXDS/h+HKHKGHvVLwHrJFfAdR3grhVSeVUG/ktXAr5uRV/QU3dQPh23BzH0nBWVRYIJRepGhhXJBKULeZJBQtkpR56SOFn5pbCrbtp5RYb70Q+VMzQW3dUfjtYskZXGMa3lywtG0vTCmxsfSRPwnN1NZCx98uFnfHzhZ6uCoF5+4zhfNJa4RBPirBq+8/whXzWxZvL6VQ8cU/heiijSPShAgj6qkEZfXhwoGizFocRmVye6Ht+FPF27DI3ZfBcGWa0FGtFjpNTywK6qUYrgjTOqoFdafpQuJtVrF0cBbnNba5YKGqIXy8K7N4BJOCY8K3jSwEpe8Hws7inVu0rHJ1NWHgsoviVCYG4cqcHoK90lsYsuXG0hMREdHT60EF5/uqqiHkF6BAkMHC0goyc78HxwKWlqbF0yMr4SxOhYcjVW8JmZCLrOwbFSqg8EXPt3qhsqK4U16hHupWliE9OVmcUmTIR55GBnsHx+vLqLKyhErIQ05OifeRwsISxYuUhYSzpxAengq9pQxCbhaKFknCvIzJu7Er3ACfWpWQFhaCkBDTKwxZjhXhpI3CiUhd0XilGJOxe1c4DD61UCktzDxNCMKyHFHRSYuoE5FFoyn83sTEEW1g3PYtXuoxDIvyu+GH8X3hWXIvK6rgpWGvo7qFuVtdB107+gFxYQg1V8cwUXj1xRcf1Bb3gpmEZZA7BSKgohHBvw3H9H0JN6qMmMidEBhQEcbg3zB8+j4klFUtxXgVO7eHwVizD/q3djD3FFnWR99etSFLOIwDMTceOlX49sRbvSqjuAjIUaFeXVSWpSM5+Q4PphIRERHdg/sKzjIHe9jKjMjOSC8OqQ9UDsLmDEEbX2e4VApAw6Yt0H70PhTFStN1wx2poVKJ2ctgKK6vbN0CHZpbImTeOCw/nYT0i3sxeco6JLu3Rod66qIpJMsJw5whbeDr7IJKAQ3RtEV7jN5XHHSLFknCvIxXE5Fs0CNqVj+0btkSLc2vtsPWI9PKEY7Wt7kEEYNkYrIB+qhZ6Nf6xjQt2w7D+kwrODpam0dUoMa732FQlXQcD0lA9cEj8YaP+YrijhTwcHcVL0iykVGiRQuZtR3sSlZPl7IMlm3x/cKf0VO2CZ+084dfs9cxdsslc9mwRNvvF+LnnjJs+qQd/P2a4fWxW3DpdgVHn4CEJAPknpXgU6qKvBLe3h6QGzOQmnZjWW+hVkEl7n2DoYxxiIiIiMrpvoKz3DUQNT3lyD0RgpMPuPndvJ1fos8Hi5HbbQaOXMmDTqtBxp89xVhcTvp0pGfLYJe7BUPqecLFryPGxjbBtwvGovu1hxllMsjE6CsIQomHA2+Wh51f9sEHi3PRbcYRXMnTQavJwJ89SyyRhHnJLCzEdVCiyfcnka/RQFPiVZh9GhPa3GYNZRawEHsrm3yPk/mlp9EUZuP0hDbmEY1I2TIXqy44oqK3EtFLZmFrunnQHQnIycsX/7WGrW0Z3xtIWgY5nIKGY9mp8whdNgLtNBsxoncvjD5aXDjkTkEYvuwUzocuw4h2Gmwc0Ru9Rh/FLUVHLm4jtQzG/Fzklmqq0Iic3HwIcjs42N9X0SUiIiIqt/tLHxZBeOlZXyBmMX5fn3xr6NRmIdOUycpNj5h9BxEvC8KQ0f3QyKO4iTKDvvwNPmvDVohBzhuDlsQgNe0y4uJTkXJ2PUa0r3Bj5RW2sLEWkJZUYh20sQg9mXKjWx+DfQfjIQsagtH9GqF4kQwouUhS5qXwqYWajkacCz+BbHO/u1L4oFZNRxjPheNEWRNlbMWITxcir+tYbF/yMQIS5uPT73aVbmHEmIazkQnikpsZE3HwYAyMbgGo7VXG3Wmpy2CicEG9PiOwcM1ItDREYPfe+BvzgwIu9fpgxMI1GNnSgIjdexF/825VVkFgNRsYI4JxoOSdZXHZ9+8/CaNzfTSuznYOiYiI6OG6z9t21mj7+Wi84HEV/wzuiQ/m7MW59EJoc+IRsvInvNqkHj7YdJfknB6JbSuXY/ny4teKlbtwJkcONy93qI3RCN6TKMZoIzLDZuKtH7ffenfyLpQ+9VHPNQZTezdB55fewocfvIX+b7yHr3/bhLN55pFU9dGkngVS1k/F5OCryEk8iOlv9MIPR0vUN5a7wctdDWN0MPYk6sUQl4mwmW/hx+03lkjSvGw6Y2BfP2SJofLD2UeRXDS5HunRu7Bg1nqcu+21gQ06D+wLvywxbH44G0eLJ4I+PRq7FszC+qKJsrBz1CeYlxKEL8YNRM1WX2L8IB/Ezv4EY4OvzVwkhs9Nw5/FW7OPIDEnCUdnDMPPe7Tw7/sa2l6v0Hw7d18GfegMfPb9MoQVDctDzJ6jiIMjfKq4QaEPxYzPvseysOSifZgXswdH4wBHnypwuyWv26HrgD6omLMBI9+dgj0XslCYdQG7p7yDb9bmodZb76KLjXlUIiIiooel+BnB27vL4OtyT84V3mnhJViY6jsUV/cVZGp3ofEbvwmH02/XSoTIcFH4vYu9IC8xTdFLWVUYuk8jCNn7hdFt3ASVwkpw9nAVHLxaCkMnvC80tG0u/BRZ3H5CwbpBgrtlbeGrI+YmzEz0EcKPzSwF+z7/CLmm7rxjwrh2roJjvT7Cx8OHCR99MEQY0KuJ4GWhEFx7zBbOmxuIyA7+QWjnphRkpmWQWQiVuv4orJ3YXbBzG1A8gih7/2ihjZtKUFg5Cx6uDoJXy6HChPcbCrbNfxKKFknivITMI8LkPjUEe7lMkKusBVsrlbgd1IJbu7FCyI1mPW6SKRyZ3EeoYS8XZHKVYG1rJajE6dVu7YSx4kS6kz8ITazthaajjlxv4cRwdYUw0M9CsGs/WYgR513ccoWv8MKwAUJdB/F9rq/rOCE4wzyROPW6Qe6CZe2vhJKbtdhdliFimtDD20KQKdSClYW4LRUOQu2BC4Ro0zrpIoRpPbzFMqIQ1FYWglL816H2QGFB0cDb7EtDuhA8vpfgbyO7UaZUbkKz9/650SLIHZZVH/Gj0MzSXujzT1EJICIioqecKUc8CDLTf8Q3uy2ZTEy1dx58Ez0yzoch/GwS8tWuqNagIao7l7tGcmnGHFwIOYqoLBvUaN4UVezKe4PciEvTuyDwf4X47tQe/K/qtVubWhz5sgFaTfXDrMQNeNOxuK8h8zyOHTuLPOfaCGpUCdceuSvJmHMBIUejkGVTA82bVsGNRSrfvEzj51wMQ2jkVeSrHOBdtTZq+TribhUQjDkXERYaiav5Kjh4V0XtWr5wlFhrIX/Fq/B+NRSDdp3C+OoxCA6NB7zroVldT5Tn9/rKXAZNCs6EHEdspgKuAU3QuIqDubULEw1SzoTgeGwmFK4BaNK4ChzKqB1iohf3yfHjZ5FqsEPlOo1R21xth4iIiEiq8mXaO3uAwflxpEf4t43R9Bd7jAndjs8DzHUR8iMw5fnW+PzCAOyMmIzW95nviz3Med2bksF5UqtHuCBERERED9GDyrT3Wcf5cadEndc/xvOeIfi6iT/qtuqATh1aoJZ/E3x+IhCfTvsSLR9YfnyY8yIiIiKih+0/fsfZLP8SjmzfiaMxScg1WsLVtwHad2mNqg7/wnXDw5xXORkubMGMFYloMGAAWrr9x6+ZiIiIiMxYVYOIiIiISAJW1SAiIiIieogYnImIiIiIJGBwJiIiIiKSgMGZiIiIiEgCBmciIiIiIgkYnImIiIiIJGBwJiIiIiKSgMGZiIiIiEgCBmciIiIiIgkYnImIiIiIJGBwJiIiIiKSgMGZiIiIiEgCBmciIiIiIgkYnImIiIiIJGBwJiIiIiKSgMGZiIiIiEgCBmciIiIiIgkYnImIiIiIJGBwJiIiIiKSgMGZiIiIiEgCBmciIiIiIgkYnImIiIiIJGBwJiIiIiKSgMGZiIiIiEgCBmciIiIiIgkYnImIiIiIJGBwJiIiIiKSgMGZiIiIiEgCBmciIiIiIgkYnImIiIiIJGBwJiIiIiKSgMGZiIiIiEgCBmciIiIiIgkYnImIiIiIJGBwJiIiIiKSgMGZiIiIiEgCBmciIiIiIgkYnImIiIiIJGBwJiIiIiKSgMGZiIiIiEgCBmciIiIiIgkYnImIiIiIJGBwJiIiIiKSgMGZiIiIiEgCBmciIiIiIgkYnImIiIiIJGBwJiIiIiKSgMGZiIiIiEgCBmciIiIiIgkYnImIiIiIJGBwJiIiIiKSgMGZiIiIiEgCBmciIiIiIgkYnImIiIiIJGBwJiIiIiKSgMGZiIiIiEgCBmciIiIiIgkYnImIiIiIJGBwJiIiIiKSgMGZiIiIiEgCBmciIiIiIgkYnImIiIiIJGBwJiIiIiKSgMGZiIiIiEgCBmciIiIiIgkYnImIiIiIJGBwJiIiIiKSgMGZiIiIiEgCBmciIiIiIgkYnImIiIiIJGBwJiIiIiKSgMGZiIiIiEgCBmciIiIiIgkYnImIiIiIJGBwJiIiIiKSgMGZiIiIiEgCBmciIiIiIgkYnImIiIiIJGBwJiIiIiKSgMGZiIiIiEgCBmciIiIiIgkYnImIiIiIJGBwJiIiIiKSgMGZiIiIiEgCmSAy/30LmUxm/ouIiIiI6MlVRuSVrMzgTERERERExVhVg4iIiIhIAgZnIiIiIiIJGJyJiIiIiCRgcCYiIiIikoDBmYiIiIhIAgZnIiIiIiIJGJyJiIiIiCRgcCYiIiIikoDBmYiIiIhIAgZnIiIiIiIJGJyJiIiIiCRgcCYiIiIikoDBmYiIiIhIAgZnIiIiIiIJGJyJiIiIiCRgcCYiIiIikoDBmYiIiIhIAgZnIiIiIiIJGJyJiIiIiCRgcCYiIiIikoDBmYiIiIhIAgZnIiIiIiIJGJyJiIiIiCRgcCYiIiIikoDBmYiIiIhIAgZnIiIiIiIJGJyJiIiIiCRgcCYiIiIikoDBmYiIiIhIAgZnIiIiIiIJGJyJiIiIiCRgcCYiIiIikoDBmYiIiIhIAgZnIiIiIiIJGJzpVoYMrJ+/HssuGcw9HhdGxO/fgu92JEFv7vNE+Le3p+YyFv59FJGmt9cmYsn8QwjTFQ+6G4NGg4ISi2W4Eo4xv+3D0QLx75TTmPDrLuzPMZqH0pND6rGiw7HVKzHtRKG5+zYe2/NBORkyEbxuA/43YQk+nx+Os1KPkaQTGDc7BDFSVt+Yiz1LN2Hl5Qd0zDxu2/6xLAsSyjDRAyQxOBuRdfk81m7cgymLduHP3RdwWWse9EDpkXbxLFatN81nJ2ZuOI5d57Jx43DQI3TZfLw+/yxyzX3+VYYCnD8RjgUrdmDS0gNYHZFRYln+w8STf2TIGZxIF8w9HhdGpMVGYcfZHDxRH+H/6vbUIXzFOizRu6OKQo/INWsxN78CqqvE2WbHYd70+ej7+WwMmX0UJ286aIwZp/H5J3/hjxIfgror57FufywuiKHCkHQB6/edxzl+Hj2BpB4rBlw4fQrBlzTm7tt4bM8H5WFEzNqlGLZfQFC7+mjjroBGYrY1ZCVi97HLSJIwviEhBNODjajk9oDuST1u2/6xLAsSyvBjQntmN978dgv25pt70BNJwtGtR9iSOXh+4kGEZCvhbA+c37YEPb/YhAMP8E6UMeMcfhvzK56dIM4nSw5HJyvIsi5i0a/T0fnb3QgtMI0lg6W9PbycLaEsmupfpLuEX7/5HUM3XES6ygZOSMGSX6ahz9xzyOQNOLodQyKmfTMdYyMe3v1w7fl9GL3TFm88Vwmq+EP4YZMK/XpXgQ0KsPWP5Vhp2RQ/ftIdnXP3Y+jC8zcu/IzZ2PTXVsS26onBfgpzTx1On7wEdfPG6Girx9kTF6Fr1AhdXP47X0zpL+xGv+GbcVTi3Ub6jxAD36HjV1G7c0e82KQmenatgzoW5mEPjB6hW8NQ2KwRGqrNvSR63Mrl03Cc/JvreKf3lltYw6OCHez+9QBD/yYJn4hyVOn4MtZM7I8f+rXCG892wE+jX8drhiOYuiPjwdz5y4vFz6OXYotbVyyfOhA/vd4GA7u3wDuv9cafU4ZhZmcX8cRnGlGBWl17Y/yzlWFZNOG/SFEBfT59H+u+6YVhvYIw6OXemP91Uxi27MQyKbce6Olj1CEnKxdZD+0OrXhRuysMkZ7+aOUkIGJPKI67+KFlBfGw1l3G/ih79OheA9U8K6JXlxqQn72AC0UHrBFJBzZhYlID/PBSpevHkjElDDOOe+LzAYFwzjqNmYfsMfTN+vD67+RmGLWFSMsqAG/4PGWEAmQVKOForzL3+BfoLmL9MQXaNncr942dx61cPg3Hyb+5jnd6b2WVZvjpo5blvrCix4viO5H57zuQwdLGEpYyc6eJwgaac0exLq8K+jdxvs+7vwZErlyM71Kb4K/PmuD6za9rZCq4+bjDq6igGZFwcAemnbNDCz9LnN2+EbMuOYl/25S4AjAi7fgejDkMBAU4wXSaNOZcwaaN+zFvWzi2nU5CjrUrqrlalH3VIM7XzkYlrv0NSns9Tm4+gZw6QejoUcbUxnxEBB/CH+uPYu2RC4jOt4RfZQfYiJPknt6PUZszUaWOB5zMb2HMiMb0uadQUMMHvhamOWoRFxaKeRsOY8WBaBy7okeFShVQQW1eGkMmNi/eh7NuFaE+cxi/rzqC9afTIFTwgL+DErkXT+PPFfux7NAlXLVwRYCHpXjJYWLEZXH7/ZXgigZWiVixeh8W7D6D0CQZvPxc4XRtRxqzEbz1NDQNS66nEZmxpzF/zUEs2ReJI5cKYeflBk+rG9tBmxKLpWvE99wVgeDYPNh6ecDb+g7bKfccfp9zCrpAX1S6dhIxpGLd39txzKYq6l6/y2nE1cM7MSnSCm39bXD1xFFs0lXDq75ZWL56LxbuicapLEv4+zoWbd8b7rK8hmvb0B15h3Zj6oYTOFbogta+tkWDy1tmtDGH8M28YzgYm4L4pCSEhkZg5xVLNK/lDMtr27NBU9RMDcXsVYexJjQB6dZuCKhw03uWUXZupzAzHTku/ugW6AghOwPp9n7oXscFloYUbF0XD48uDdHARiaubiyWH5Oh8zP+cE0Lx5e/xqLNsN7oWWI7p5yKRnK9duhfzRLZkWcQW7MN3gq0Lvs4Mcu+GIlF6w9i8e7T2H0mBXm2rqjqor4+rSH5NKasS4FfTQtE7tyPmZvCsCMqHTKxzPrZlz7oy9z2d9lv+VdisHzDQfy96yR2RaZB6+gGfyfTcSweu5vWYOzW84hIyMClSxex91AULthUQVOPa2GqEGcPH8FfG45hVXA0QhO0sBfLjMf1k1/x+Wf2RSdUL4jA9CXBWBuphU8dT9x8Uz7rxB58f8CAxoHi/jf3M1w5gfGL4mBfryLcr62yMQvbFu/AMVt/1L52QshLwrYtweL6h2FzyEXEFlrCt6IDrh9KhjSsW7gf0W5VUMPuxhmq8EwwvtunQwdxnqZlLT5WqmNAyXO0LgMHtx3A7M1h2B6VCQuPCsg5fhBRHkHoU+MOtyNKlN9a6WFi+T2E1UfjcUXpjJqeVqXO/+U+10paFxM9rpwKwezVh7Dy0DlEZlmginjM215/4zsf7/q4Yxj11yHsO5eMi0nJOB4WiVNGbwRVtkD8vm1F+7O5T4lyrr2Iv2afQIH53GRIO4fFB/Vo26MmKt/8+VSCNuYIxh+0wWuvBsLnpvHufHzcpVyW49xR9raXWnYf1PLc5TOsxPLUVydgsfhZtHBvNE7f9lx+E4ll+M7bQ8K5QMJ5uDD5PJavOYC/xX166GIBbDzd4GVtLPO9Tc+NTF6WALe6nnAW38vUPWV1EipWV+HUtn2YtSkce87nwb6SJ7ysbhwPpv0SLx7Pc8Tyv3TvKWwKPoXNB09jy/EceDSsBM8yyiU9eGUVzzJokJKphaODjTmQ3QfdZazel4bGHRuh6l3fTPxwj4nApjPZYjFSwF2djVXLQ3Ci5NchxhxsWbcfUQYbmL6JM1wNwyef/4PFmU5o2aI2WnsWYMXEmfhoZ3r575YX5CJVYwUXh5IF+iaGdKyZNBMfbMtBxXp10K2+C7J2LkGfCaEwVSW19XWH8vB6jNqSWjx/0/LOXYvlBnfULvoU0GL/n3/hfzsz4VwzEN2bVYLl6c149ccDiL62wOI0Jw8fx9yZf+LdjbnwaxSIhjiDr0cswW9rV6Df5DAU+tZEB98CLP/lL/wYfq3ulxGpMZFYu3ULBn2/AxG2PujUtCJkoWvQ94cDiLrjV1ZGxO9Zhhd/PopU96roHlQNPjnH8fEXS7DiavHdd2N2BEaMWI1d8kp4plVNBMovYdWhlKJht2Vlgdyo/fgnrKgOThFDyhn8vVY8OeyJF7eCmbiu2zYdwjlxf16juXgQg3/cjfNO/ujcwBnxGxbijfmxyDMPl7K8RdvwSDgWzvkbI46rEdTUH5Utiuvt3UuZUXpWRZ+OAQi0VcO/YSO83LkxXmrqjuI4Z6JH1IYFGLIsBW51AtHaPQNzf/oL406XqJd3l7JzKzmqdnwWv/T2g+ljv1Lr7pj4cjU4mAYp3MRQk4p9Ieni0arFufCLKKhSEb7IxOo/diG1cy8M8SsZeeRwa94Rw5rZF50UHBu1x/9aOUs4vsVtvXcZeo/eg2ibSujUMhCNHVIxd8w0vL8tRVzrYobMy9i29xjGjp6Pyeet0LhJAOoiGt98NR9/xN2o2nLXbV/GfisI24j+U0NxxaEyuojLUd8iFj+NWIA/LpqmlMOnbkP0aeoJB8sKaNexibiPGqGTGJ6KGDKwdvLvGLDyKuxrBKBHMx+4XAnG28MXYcnl6weeeP6JxJot6zFkxllYi/uxhYda7HsrG2sNQsWyvO96vXIjrhw9jL+2HMDqszfW15gRiQUbk6G3Lz6nGJLCMfx/czHjohUaNKmDzoG2uLD+bzz38zGcv74Y2Qg/dBrh6aXnrE04hzXHk8xdt6G7inljZuKLowJqi9u/qU0CJoyah4XxEr5BE3Q4I5bfQf9cgX1AINr7G7H115l4x7Ts5lHu6VwraV2MyDi8Bq9Oj4KieiB6NPaCIjoMW+Jv7JeyjndlBT8837EWatur4Vu/+NjsVsNWLNtGJJ0Vw8fZ7NLLp0vBgT1ncbZQwna5znRuvYxET0/ULHXQ3O34uEu5LHL3c8fdt73UsvsglkfCZ1jR8kRg5YZ1eO3HPYhz9scztz2X30RiGS57e9ztXHD383Bh7H689eUa7IEXOgbVQDWd+Pn79XKsyUCZ723IEM+DBy/i2seQqXvrroP4duQC/H7FHi2aV0OlpIMYMmoLDl//aDTi4rZ/0Fcs/7JqtfBckA8ck89hd7IDunSoeuvNRvr3CffAkHRI6P/qZOHnaJ25z33IOCy83meKMCFGb+5hYhAKCzVCXkHxK19rMPfXCWHzJgstp8cIhabO3NPCsAEThFGnbiyHITlYePXV2cKfiaZp8oSNE8YKzy5KKB7fLCdkldB68BohWGvuIYlBiN/4p1Dvwy1CWBnTZRxYLAR9sl04VXKcvCjhq8HjhREnipczM2S10K7/XGFRol5IOrBEaDlkhbAt89o6CkKhRifOrYSsEOHtftOEqXHmvtpLwrgPRggtfg4VLl7bbPpkYfr/vhGqv7tK2Jp6Y3uF/jVJaPTLqevdYfMmCdUHLRSWXi6x73JOC8MH/Sh8csi8lUzv/+HPwtdh5nGyTwofD5omTDpXcn8XCrunjRdazzhX1FVwZLnQ7NOdwtmSu7FMOiHkz4lC08kR4l4yMQjJW+cJTd4eLzT5aIsQbn4fQ8Yx4c3X/xDmJ5vWybz8by4SVly5sSyFERuEDm8sFbZe28kSlrd4G34t1Pl6nxBdan/eR5nRXhR++mCc8EVIyfmKSuyvuOvT64Rj4vo3nhRh7pZWdsoj92yw8OHQcULTgeOEjiM3CztS9UL89gVCO3Gdo8paj3IwZIYL77/xizAivMDcp1jmkRVCy/6LhDVZxd2a6M1CpxfGCu9uTxY0xb1E+cKWyWOFJuI2yC3qlrDt77jfRFqtUFjqwMkVlo8ZLTy7+Kq5W1yOqE1C5zdXCrtLTWsQUvcuEhq/s0Y4ULwgZvnCjl9/FhqNCxPSi7qLy5//K7OF2XF32R/aOGHMez8Jww+Z19aQLSz+/keh1eAfhS7zL4nvVNRTSNk2T2g44qCQYFpuQ46w9ucfhXYzYgTzZiuWEyl89vYY4b095oXTxgqj3/1FGH269DJkbZ8n1Po62Nx107lSlCGuY6N31wuHS+yq3Jh9wquvjRBeWZdp7nMb5vIbNC5EuFBiu2UcXCo0G7hc2FH0fvd43EhaF62wY+pPQq+lScJtTy9Sjnf9VWHqJ6ZzXMkF0QlH5vwitJ8TW6JMinKPCYP6zhbmms+jprL7zNurhf13WociOuHA7z8LzX6NKrX+ko+P25ZLkaRzh5RtX46yK7q/5ZHwGWZenruey28irQxLK4t3Wse7nocNmcKi734Qev5zpUS5MQiZcZeEs/nFXXd675vLUvF5cZzw/s7UG++lvSCMeddUVs199PHC+I9+EN7dU/xJaaKP3yX0emWusKTUiYIelvLfcTZmY8P8vYht0hlvVr2/ShomRo0WhVDCoqiKQjFt1G4MHD4NPT/5DT2H/YLGr83HPxm3ufq3qYZejQ3Yse8Cii/OTF//RCCqej30ND3VrI3DztNq1K5kQHTMZZw0v2KtHOGdlYjTadLvKBjTTuHnlano+GpL1FWZe95Ch2PHYmHt7wZ93I35nUywgFeFPJw5n100lkOjZ/BtszRMmbYCX/wVjxZvdkFHhxu7wkKtLLrrd52VEzztCpGRW2J5ZXZo90zdG18dKhxRs7IN/IIao8P1796UqOHjAk2qeBl8nQwVGjdDL+8S+862KtrVNOBkVNKNO70lFEZG4ZClF6oZrt5Yp5gU2FZwRPqFhKJxVN4e8Es6hb+CkyW2eKJEnWbVYH06GseKZqrDkROJqP1cOwRln8Me812+nBPROFm5BtpfXydx+Rs1RU/PG8tv4eeFqtpMxGcVbx8py1tE3IZdezcvaoHiugdYZkox7y+f6/NSIsCvAjTJ6eZuaWWnPGyqtcBvU77AkblfYMf3XdFOdxyjV2jw+jtB8BH31S8T56LfyL8xYn0cUu9xtQpORuCgXS28WLv01/wODeqijTIOB0p8jSF3ronX2lbAjep9VmjVqDK05y4WNw0mddvfbr+ZqFSwKHXgWMDb1Ro5OXerxajDwcPn4RTUEM1ufLEhEpevVTWoI88h9PqBIZa/Fq3R3+cu5z6VNzo3UONIaFzxA5mFFxB8wRtv9fFHevhZ891jDQ6EJqB645ooqhGlOY+tJ6zRtYMf7E2Dr7GthmfrK3As/NJ9tOqjx/ETF2HXqBYalNhVNlWboFcNCbesxG3evks9+JbY5o71a6ChNh7HLun/veOmiAJ+Pq6IPxCMjfG3tpwg+Xj/VxmL6rTa2lmVqt5XnuPjju527pC87SWW3bu567lM4meYhHN5aRLL8H2VRQnn4YJY7It2RMcgtxLnMjkcfCqhmpW5sxzkzjXQr7XLjfdSeSKwkg4JSeb77sY8pORawdP1xtwUjnZwMmqQXXA/xxXdq1Jl++50OLN+OcbGB2LsmwFwLefUtyO3tYGzPBdJJb6qU9fsiMXTh2PXjE+xa3wnNJZpkX/b5u/UCGoXCFXISRwyfaIY0rH5UAqatAmEKTcb87ORnJOHY1t2YNKi7Tdeyy7Csr4/qkot5NpE/DV1M2Ka98aIZrZ33mhiQU5KL0DqmSOYUnJ+i3YjVF0VQdcr81qj7evt0eD8CRzzaYv/NbnpPfOTsHHxCgz6bAraD5mAVu8twepUAUKZLQDJoJDfumRyhRwy492aDlLA1dEKuTkFuHVMI3LTc5CVFYdF/5Rcp+2YdkaFVnXdisZSeLfA5OF1kL3qT7T/cB5GbbqAJPPXWneirh6IVopY7DZ9da29iOAYZwQ1CUT7Gpk4cDwTBjFYHAy9BL/GAWU/oCZXQCk3Ql80P2nLW0wOlbJ0tZsHVmYkkCsVkBvN5V5y2blH4rGxdM4+FPZ4DgM8EzHtl224ENge371RD7KdSzE6+F4aeBTDQmo2NM7iB9LNtZfk9vB01CA160a1hNtROtrCIT8fmeLf0rf9rfutmAZnD+zA59/PQJd3J6D14IkYujsLdy3+hjwkpunhJgatm4uZ0sUBrgW5SCtx/lEolKXC0e0pUa9pVShORRdVJSuMOo8THlXQoXl1NEw9h73J4n4vOI890S5o39ShaL6GrCwk6ezED+hbNiY8XO2Ql5UnruG9MiAtsxDO4vo8sG92lXZwtdUgI+ffPm7kqNKzL6a0KsCskRPRefQ6LDhtqq5nUp7j/d9lEI9lhXi+vVGG7v/4uJOS547ybHtpZbf8Sp3LTO7pM0xU6lx+M2ll+L7KooTzsCEnB6kGG7i7PLAj6SYy8fwmF7eBeXsqPNHUvxDBhy4hq6iHHud2n8SpCpXRyFRRmh66cmx1PeJ2Lsd7myzxyRfd0Nr+Ae0wS3Hn++bhUOjle/pQsKhRH12tz2J9mAb6xFPYkuyPXk2La5bKVWpYKh3R/e03MO+7QSVeAzH3q87oUOIu7x3pUrFiyiL8bd0Jvw+sdv2BvtuSK2FloYB3i574o9T8BmHuqNfxaeNrNV4NiN0XhgiPyqh0PhTLLpY4eRrS8Pf4P/FLvBcGf/IOts/+DAdmvIIXXP+N0901AvILdLC2trjNSVUOtYUSqgp18O3I0us0b9RAzHyt5vXxPBp0wPQpn2L1uzWh3bEIL/x6yjzsDlSV0amuAQdDriA/9hxCbU0tQlihRUNvnDt+FkmFF7A70gntmjiV48Ne6vLe3gMpM/dCctm5F0bEbV2HOYYWGN3dDbKkczhYWA2vd/JFjWq1MbitI46H39udOUu1Usyr4oXtzR+I4gdQrlYFe5uy724JBVoUWlrCTvz7/ra9ERc3/YPXFqYg8PmXsGz6Z9g/51NM7VAcSsskU8JSJebYQu0tF46GAg0K1Jawv4frFouAALQwnMeuWC0iwi/CoVZVeNlWRVv/ZOw9no38iGiEuNVAR3ObvzK1CmrokH/LbWUxHIrbydLasui5DdMHq+k4vesFQSnFH8aF4vqUa7KyCOK+06hgKwaRe993EtdF4YDWfV/Fxlnv4YemBqwYNwOfB4uJ/T6Pd9PchfJtyDuQicevSty+WnFv3XC/x4cUj+ycdSf/2meYtDJ8X9tDwnlYphLLm2A6Tkvu6X+RoEG+zhKGU6vQ44PpeGHYZLy+1QLvfdQeDW/+1o0eColHlBFXDq7F4CVaDPzyJfQt+TX//VI44/meAcjdsR3zTb+6UF4qL/RqaYfg/Wdw4kAkUhrWR9trX7daeiLQKwPh0XmlTmaSGTKxeebfmFLQAjM/aYwqdy2kKgT6uSL+7CWU9W2Q/tJBjFxtQP9hgzChmxHzZ+5H5LVVzzuPHWec0Pf15mjhde2JdSOuXXw+CHnJqUgueUVvSMLx83pU9y/51dMN1n5e8E2Kx3FJDVirUbF2c4we0hBWJ6LN/e5EhaZN/ZF7Igp7wuJgCKiKqgo5XBtUQ80LZ7E7NBrHHKujs2f5TvzlW96b3E+ZkcvNd0vu5YNYWtm5F4bLh/HtOhkGv9MMVcQrEEGnh1Y8+ZsfhYGlGDwMhrt8PXBbcjhW8YTH5YsIualNd9OPpxzL8EaTEl+hCvkZuFBq5Qw4G50AbWUvVDUdW/d1vBbg4NE4VOrUGf3rusLBPFvjTftCLu4jubiu+pK95daoVcUesVEXUbpGmBGXTsUhpaovGtzLKU/ti851CxF8LBr7zxjRuH4FsXzYoHUDD5w5Ho09x+Lg2jAAvuZlldt5oZZLCo6fyS+9/oZ0HI7MRZ1alYqPT7kVHK0LkJJRcp9pcfHqTQ+5laJAtcpOiD+fUHodC5IRmyJha4sf3pevlH5//aVLOKVzQ2BFcePc674r77pYOKF5t2cxqqMawaHFF3v3fryL5dfOAlmZOaWqqBUkpkv6sZPSZHB3tUFGeo546XON9OPjtuVSqvv9nLuN+1qef+0zTGIZlrg9br+Odz8Py+09UN0pBSei73yr7762300MKVHYmOCLr8f/D3vG98dvIz/Evmmv4a07tYJD/zoJicSItPDNGPJnOnp92g8D/e5w68XU+sH8vzFsfXnvXMnh1rInxnfRYdboefhx9yUkXzuLGQpwLuIKrhrEQHLHDy7xYGpTB5VP7sW3ewvRqZ0/rM1DoHBH355+iFq2Bn9F5Zq/2hOPs7R4bD0SjzLPs8ZcHJi/EGOu1sevn7VAwLWUUSYFanQOQlDcbnyz/iJSr535NdkIPxyJE6aTp+4q/pyxH4XP9MRAHwvUfuFZvKINFoN0YvEdd0tHeNmm41h4WlF9RmNuIpb9vhFrHliaEpAfsR2DfzuGCFN9M0MeQldsxjJdPfRven3LlaL0aYyBda5i+oyDCM28tlJaJJ2NwPYYU/1RA6K3b8PMY2nF7VYa83E6LB7ZFT1NXWWyql0TzTNOYdK+bDSq510UDOQu1dDK8xL+WnwWtmKwKO9Tw3df3jLcT5mROaCisxZnziaL+9KI7FzTf6WSUHbuhSEZC2YfgoVYzl42X4Ao3dzhlxOHA5fFj3jTD0OczkD16l5Fw8pLXb0p3vC/hKmzjuKUuf6iJuUsJk8/iIKObfF8ibauBM0FTPppJZbEFojbxYiMM3sxdocBz3UPhKNphPvZ9mLJ8apgjfgz5xBnOn8YCxC5Yw1+2JNVKoDJXZ3goUlEuKlerqEQWfmmN1Wi/jNBqBW1E99uTUBW0QR6JBzfgW82avFSnwbFdZDLTY1mTaog5cAOrEurjFZFz4TI4dmwKnyjgjE5zAJtm7qKe95MVQmvdPdC6JJ1+OdcQfFy6zKxd/EazC9shPfamu+eK1zQsq4tDm0+iBOmapCGbBxesRifbsso406cAjXbNEBA1H5MPJJRFBRN+2nKuFVYlyVl5QwIW/Y3Ptt6pWg/GHMuYda8EBS2aobOpgrZ97rvpKyL4SqWLtyLXYnFHwymZsb2RxfA36+4Gsa9H+9y+NTzh+vJI5gXU1TXD8mn9+LDKccQX+7Ao0SVyq6QXU1G3LVFEEk9Pm5fLiW6r+Pm9u5ref61zzCJZVji9rj9Oko4D6t88HIHJ+xbuhVbk4rfveBqFCb/sADTzDv/vrbfTRTOvmjtEoXhH09H/59XYuTMlfj01/WYvOU84q9lJXqo7n4fxZCCRQsOIirXBpm/TMESc+8i4on+w+9fwSumH1wQChAbeR6HKjYWB3gXD5dKboe2A97GysBDmLFxHV76O1gvyrMAABGpSURBVBcGmQCdoIa7ry96DO2J3kV1JAQxQCuLvq4pSeFZF89X3YMfMoLwU0DJVZLDu2NfzMU2TPj9d/yRK57IVDIorJzRuENHNC/9NqXo44/g5/WJyLLPw8cfHzX3NZGJJ8P22PV5E3N3afIKjTBxFPDLgjV4fk2BuI2U4tWnBSoHNMSw2sClrZvwl6YJZvb2Kr7jp66E94Y0we6xm7C49SAM9KyKTz5qjhF//Yk2K8R5qW1Rt10rDAw8AM21T1hTPTCl+LopUKpM20ZxU0+xW11qe8lQoU13DHU8jWEf70CeuI3sKtfGt990Qctrufnm95c7os+wgcDCrRjx2X5kicVGJZPD1sMHL75SRRxBAW9fe8TOnY9nZppOJDI4+NXFDx82K5q8TFb+eKaeButCq2BYoPmiTPwwbd/ICb8uB94t9WMCstvuf4jLolSZ6saZu++6vKZxbr8NxQH3XGZM5bhH3zbY+ut8tN4lbtd63bHio7pwusO8ZDftm7LLTlkzvhMDYjaswwLLdvi7Y4mm5WwC8fHr0Rg+5hfxeFbCpVZbjO9YFF3LT1EBb3zWH4r5W/HJx7tRIJdDpnJAow59MPeFKiWa4xPXz6kevnnFDpsmTcVkMc+obNzR9e3++KzetatSCdteuNN+U6H1qy/idfED+vUhe6BQqeBStT7eftYHf2pLbGOnuviwdwQ+GzMeK+WWaDXoHfzc2gaKis0x7Ws5xi1cim5LdaZvbGHh4osXPh6Id2tfW747lL8y2NSphZYFJ7CnTkc0Nr+NwrMm2rrvwu9CWzxTqmFgOfx79MNsxRZMELfRbxqZWG5VcA9ogAmj2qL59etaJRq+9CKGzVyH998/DJmFFXwbtcb4QRZ4Z8+1Zbt1WRWVWmLS0AKMXDALrefIYWlXAc+88DK+O70IixRlfI0u7lOFyg0DPmoHYdMydF1cKJZdC1Rp1g2zBlQ3P8h4r8eNhHVROKGmcyrG/jAZI3XicsosEdCqF37uam7jWcrxLm4Phanc3PSJp67ZHhP6rcHIcZPwt7itHb1qYPDH3WH7UxiubRK5eJyqFOI2KO68I9sAX9SYHYPwbCNqXavTJ/H4uFO5lEs6d0jZ9uUru/e1PGoJn2FSz+U3kVaGpZXFO66jhPNwYJ9+mKjfgEnfTMBomVg+rFzRqmtH/M98PN/xvW8qS7cvW+Kymran2L+IIG4rlR2a9eiKj2upodHokZ+diuBNK/Dy6a5YM7xe0TNd9PDITE1rmP+m/zw9wudPw4d5PbHz/arXv6qn/yoDrpy9iBwP8QP9QT2TcI+0Z7fg2QmFGPn782jFenn0X2RIwYyvZyO86zDMal+qeRaie5a3fzHabq6ENWNaoWKJ07g2ejN6/JyPr2e9iPY8pz5UvE4h+s9SwKt6lUcemomeCgoXPNvGA+EHoyCl2jiRFKY7m8bMNFwoWV3PkIOj+2OQ6VcZATfd/ad/Hz9RnyrFX2WV8aUs0b+CJxr675OjYtsWaBsfitXXfhqO6D7ZNu+Eb+tcxVcfT0D3L+bg1W9movu7v2NMUiB+eb/RPT5/QfeDVTWeMtqsdCQa7eDjxO926CHS5eJSqgA3TzvwWXD6L8tLS0eejTPcWNDpQdIV4EpyNnKNKjhVcEQFSybmR4XBmYiIiIhIAl6yEBERERFJwOBMRERERCQBgzMRERERkQQMzkREREREEjA4ExERERFJwOBMRERERCQBg/NdGLJSEJWsMXcRERER0dOKwblMhdj+5x/4YlcG9OY+90Qbh9m/7UZwnrn7Dgoj9+PzZefMXY8/Q9IJjJsdghiDucejYMxB2MEInMws8Utd+ecw488QnH2Uy0VERET/OQzOZck+gzUnndG9tRuU5l73RJeKwwfOIaaw7J9h1V6JxaYTyeaux58hKxG7j11G0qP8dVn9Zfwzaw0WlEzJlq6wu7wXs48VmHsQERER3T8G5zsyIvnwSYRWrouentxMjy2ZTPy/HHK5zNxDJHdEz3aeOLwjAsmPMtQTERHRfwoT4Z0Ys7BpXwLqtq4N5ubHmRwKMTQrbtpHjg1rota5U9hRsgoHERER0X1QfCcy//1IGXOuYNPG/Zi3LRzbTichx9oV1VwtIDdcxdI/9+Ksmz8CHEqkI2Mu9i7fiG2CPxq5KUw9kBl7GvPXHMSSfZE4cqkQdl5u8LQyT2PIxObF+8T3qQSrc0cxe9URrA1NQLq1GwIqiPMpHus6Q8JR/LhGgb5DGiPAwtxTlH0xEovWH8Ti3aex+0wK8mxdUdVFXWp6TdJ5LFm7Hwt3n8HxVCV8KmqwZ8NV+PRoiPrW1+6M6hF/4ij+WHMYq49cQqLKGf75ZzEvzgXvd6xkHucOJK6LIfEEflmdhIq1PeB4fQF1CF23Hus0vmjsbqqAYkTCwR2YfdEJ9ZQXsWDFXvxz4ALiBEfUrGgDdX4SNq/dgznbI3A8XY0qvs6wM21ukSHtHBYf1KNNF08k7d6PmRvDsDM6E2p3D/jYmkcyu+P+NQ28vj7uyDu0G1M3nMCxQhe09rUVFzcTh7bvx+yNx7HlZCLSrVxRs+T+MmZgz+ZoKJoHoYNHib2gskTSsR04aNMMz/qpzD2JiIiI7l2JpPHoGK6G4ZPP/8HiTCe0bFEbrT0LsGLiTHy0Mx0GhR0s0sLw+/bL0JrHNzFmROCvNVehdywOf/F7luHFn48i1b0qugdVg0/OcXz8xRKsuGq+42jMwcnDxzFv1h94e0Ua3OsGorV7Bub+9BfGnb651QwDzu47hSv16qGjnbmXaR57l6H36D2ItqmETi0D0dghFXPHTMP721KuPzyovXgQg79chZ1Gb3Ro5gu789vQ//vDOFfqQTU9otcvwEvToiD4B6BToCVO/f0XBm1OlvYQosR1MaTHY8uh+JvqIBtw/kQ49l68Np4RKTERWLl+LV4fdwipXjXQqQaw4/c/8PHSA/hsxFKs0XqiYxMPZO5YjP5zzyHXPKWJoEkUt8E8TD5vhcZNa6K2MRKffbkQC+JvrHCZ+9c0gml9joRj4Zy/MeK4GkFN/VHZQhD752HrjD/wdYgM9ZvXQQc/GY6LFyylt2VxNQ156Zwu9rZDYGVLREZdMfcgIiIiuj+PQXDOx9aFW3Gh9av4880g9GgSgJ49emD2u1URsXQ/juhs0KFtdeQcOYnjOvMkYthLPHQaJ/3q4llTPYqcCPyyIA09Px+Ab7qLAatpXbzxVn+MqXcFv665YJ5GJOThilVzzB7VE2+0CsSzvV/AmA4GrNl+3jyCmS4Baw4WoH3barA19zJmncK4v+LRYuib+PmFhnimSSBeeOFFzPugGiIWbsfGbNNY+diyZDcSWvbB9P6N0bV5A7w/9G381toKuWIOvE5c3qnLM9F96Kv4X+da6NK+HX75sR+etdGg5GhlkroukghIT7VE/6/fwJddaqPrM90w9jlH7Ft2FMq+AzHj1Ubo0iIIo4c0hOxAKPYXmicTCXlZsGz/Gua/1wq9mtdGv4Gv4rt6V/H76rPi1jC52/4tGsm0gRFRWBuTh7dHr6D6eC3IQ7y+uISdYdZ4YUAHvNisJrp27oifP2iBmqVCsgxKuVx8mTuvk6OShz3SE1PM3URERET359EHZ20cdp5Wo3YlA6JjLuOk+RVr5QjvrEScTjPCvmE9tDecwfrT5nvOhkxsOZSI+m3qwFsMUYWRUThk6YVqhqvXpz8ZkwLbCo5Iv5BQPI2JzA7tnqkLn+vf3CsR4FcBmuR0c3exwqhwbDME4Pk6anMfoOBkBA7a1cKLtS3NfYo5NKiLNso4HIgSE6DukvivJdoGVYK1eThggTrP1EP9Es1yaKLP4bh1dXStceP9YeWNV9pWguRKBRLXRRoZKjRqgh4e1xKpHN4+7nDxroVXmthfLyRqHw/4aTNxOevGLWy5c0282tYVN9bEGq0b+aDw7EWcNYViCfu3iLg+XXs3R/WSG0Dhiupe6di07hRiilP4bdy+jrOpv5OtJYScu7QBSERERCTRIw/OxvxsJIvh5tiWHZi0aPuN17KLsKzvj6pW4kgW/ujdTIHdB2KL7mIakk5jS4IvnmtuCnVG5KbnICsrDov+KTG9+Jp2RoVWdd2K5nMncqUCcmPJugxaHNxzBhZB9dDweogzIi01GxpnMeyVaLyhiNweno4apGbpxeCch9R8G3i4lL1ZdZm5yHGwR8kquQ/Crety72RiEr2lCT65GFJlAu42C6WTLRzy85Ah/i1p/xaRQ6W8aeMqKmDQ8JfRPW8vXn9vMgbNPoQjaaXqaYhk4mKJy6q4eceIk4vrIHtA24OIiIjokQdnuUoNS6Ujur/9BuZ9N6jEayDmftUZHYoeCFSiQdtasA09iX35BlwIjsDluvXR0aHoHaC2UEJVoQ6+HVlyevE1aiBmvlbTNJJ0eWex9rgturf1KhUcLdVil0aL/JvrUhg1yNWqYG8jDpcroJbrkFdQdoULuUoBhfhe//q9UDFLygQx6Jo7HxahUItCtUVRNRdp+/fOFC7V8NHnH2PPhF7oqDuO9z5fiU0ZJdaoKDSL2/M2b5Ov0UFQl7irT0RERHQfHnlwhqUnAr0yEB6dV2bAU/vXR3fnc9hw7DI2Hs5F27bVYW8eZu3nBd+keBy/76bHjEg7Go5DHnXxXMWSFWnlcKziCY/LFxGSU3oehqQLOJbhjSY1xPFV/2/v/mOqKuM4jr/hXhgmW1iDSyqIpiZthKGV8iNauOZMyZJYCxOmgbmxSsvmXMs/Wi7ApY7wx1qytYhVuinrH4FVskE/VslgJBMuDi6g/ApIfozgQufq5XqBnAzYHPl5bWe795y75zzPnvvH9zz7fp8TwLKATipr+8aMpdfWzlW3hVLvIAsLW5qo+Nv9VwPUNnVN7w2F45h878O35zptrtxww0AHDaPpETNgpK+TK2Pas1NT3cRA8HyWOlbsJzm/dzInYAlb0zaS4GPlR/fqQNN8dh1IZmfImMRng51rHT2Y543+S0RERESm5+4HziYLiRsXU/3NWU5V97gCx/4OG+d/seGKhU0BxEc9QNmZAs71reDFx26tJJoXrSYl7Bo5x8v4vWs0qPqHlstVFN0+OXai4R4KS+p5JCaM4HFxmPfyJ9n2cANHT/5KZc/NTg20XeZwThn9cbFsdqRnmAKJfyaQi2eLKGx1jGSIpj+K2fVpOe1uy9fmReFsDmngs7xLNDqC2sEuLuTnse9CL14TMw6mzPTQUtb61ZH3nQ1H7eLQX3Ucz/yWr1tuXp8R9gayD54m3+p4WBimq7qEg8VDbFr/KPMc1yc7v/9hqP43Dp2ppv5GMaLRtrWGi73+hAa5TU5vHZ+fOMepqvE7owxhbexmQbDF+V1ERERkeu5+4Gx0YUFcIrlJ8yg9dozo7Zk8vTOLDR8WUtxix8PVQ09CYlYS1taKT9RKVrkXkXn6kfB2CnsCanl/byaRqVnEpmWz/ctL2AadkainCbPZOMYFxB4mE97OLRnsrZUU1AWxae2tgjgXkz/b9r5G6txKdr+ZQdTrGcR98D22iARyk5c4d9/wZFl8IofWXOeTfVlGP46QWjDAlnfiWXe/GVcarvEQsGNPAus7i3g59WOi078gtz+CI2mhPDhxe4iJJjGWG7yCSX8rjsCfvyIuJYNnD/zA1cgt7F81By9XZzyMtsx4jb+v0bjj3Ng8Z+OeXsbh/Kkjt9h7YSQZr/pRfPgoa4y5ez67juUpW9kfMVpEOYn5vc14zP4WLM0l7EjPINqY0/gTzTzxxkskuSWHDw90Ul5hpaLVfbNCw2Az5Ve8CQ/1d54QERERmR6PEYPz8z1umNrTJ0mqi+T8e+H4Oc/K7DRkLeKFj7rZnZPAOlcBooiIiMjUjVtmvIfZWygo7SYmdoWC5lnPTlXpn/Q99TjRCppFRERkhihwHuXhy3PJSby72u392jI79deQ/5MPr2xYzNhdt0VERESmTqka8v9j76OxfYRAy9yJe1GLiIiITJECZxERERGRSVCqhoiIiIjIJChwFhERERG5I/gXkM68zNT6Rj8AAAAASUVORK5CYII=;" vertex="1" parent="1">
          <mxGeometry x="66" y="40" width="718" height="795" as="geometry" />
        </mxCell>
      </root>
    </mxGraphModel>
  </diagram>
</mxfile>
